<?xml version="1.0" encoding="utf-8"?>
<!-- Generator: Adobe Illustrator 17.1.0, SVG Export Plug-In . SVG Version: 6.00 Build 0)  -->
<!DOCTYPE svg PUBLIC "-//W3C//DTD SVG 1.1//EN" "http://www.w3.org/Graphics/SVG/1.1/DTD/svg11.dtd">
<svg version="1.1" id="boy-heart" xmlns="http://www.w3.org/2000/svg" xmlns:xlink="http://www.w3.org/1999/xlink" x="0px" y="0px"
	 viewBox="0 0 1024 1024" enable-background="new 0 0 1024 1024" xml:space="preserve">
<rect fill="#FF5551" width="1024" height="1024"/>
<g id="boy-heart-boy-heart">
	<g>
		<path fill="#FFFFFF" d="M578.2422,809.3584c-6.3213,0-11.4375-5.1162-11.4375-11.4375v-43.7588
			c0-6.3223,5.1162-11.4375,11.4375-11.4375s11.4365,5.1152,11.4365,11.4375v43.7588
			C589.6787,804.2422,584.5635,809.3584,578.2422,809.3584L578.2422,809.3584z"/>
	</g>
	<g>
		<path fill="#FFFFFF" d="M401.2275,809.3584c-6.3154,0-11.4365-5.1162-11.4365-11.4375v-43.7588
			c0-6.3223,5.1211-11.4375,11.4365-11.4375c6.3164,0,11.4375,5.1152,11.4375,11.4375v43.7588
			C412.665,804.2422,407.5439,809.3584,401.2275,809.3584L401.2275,809.3584z"/>
	</g>
	<g>
		<path fill="#FFFFFF" d="M489.7295,795.8105c-114.8379,0-213.2349-147.9863-213.2349-269.1347v-94.834
			c-0.0556-1.1397-1.2954-39.1689,24.8003-66.9629c16.6973-17.7754,40.336-27.1289,70.2744-27.7881
			c89.1436-1.9878,193.8731-56.4638,217.0371-70.9443c4.837-3.0205,11.1465-2.0156,14.8096,2.3291
			c3.9434,4.6797,35.0488,42.0283,45.2344,68.3418c26.7266,0.8603,54.3359,15.7256,54.3359,55.2969v134.5615
			C702.9863,647.8242,604.5781,795.8105,489.7295,795.8105L489.7295,795.8105z M592.0693,290.7183
			c-43.2236,24.7944-140.0175,67.4536-219.9922,69.2353c-23.5712,0.5249-41.7714,7.4497-54.1074,20.584
			c-19.5952,20.8686-18.6235,50.5386-18.6123,50.8403l0.0108,95.2979c0,108.5498,89.6298,246.2607,190.3613,246.2607
			c100.7422,0,190.3838-137.7109,190.3838-246.2607V392.1143c0-21.5391-11.4151-32.462-33.9317-32.462
			c-2.5459,0-4.2324,0.1788-4.5117,0.2178c-6.0986,0.7481-11.7275-3.418-12.7324-9.4658
			C626.793,337.5488,607.2031,309.666,592.0693,290.7183L592.0693,290.7183z"/>
	</g>
	<g>
		<path fill="#FFFFFF" d="M503.1768,682.9492h-26.8946c-6.3159,0-11.4365-5.1152-11.4365-11.4365s5.1206-11.4365,11.4365-11.4365
			h26.8946c6.3159,0,11.4365,5.1152,11.4365,11.4365S509.4927,682.9492,503.1768,682.9492L503.1768,682.9492z"/>
	</g>
	<g>
		<path fill="#FFFFFF" d="M460.7354,562.4717h-60.5796c-6.316,0-11.437-5.1153-11.437-11.4365
			c0-6.3223,5.121-11.4375,11.437-11.4375h60.5796c6.3159,0,11.4365,5.1152,11.4365,11.4375
			C472.1719,557.3564,467.0513,562.4717,460.7354,562.4717L460.7354,562.4717z"/>
	</g>
	<g>
		<path fill="#FFFFFF" d="M593.6777,562.4717h-63.6289c-6.3213,0-11.4375-5.1153-11.4375-11.4365
			c0-6.3223,5.1162-11.4375,11.4375-11.4375h63.6289c6.3214,0,11.4366,5.1152,11.4366,11.4375
			C605.1143,557.3564,599.999,562.4717,593.6777,562.4717L593.6777,562.4717z"/>
	</g>
	<g>
		<path fill="#FFFFFF" d="M649.8457,678.5039c-6.3223,0-11.4375-5.1152-11.4375-11.4365V505.4663
			c0-17.2949-14.0723-31.3618-31.373-31.3618H372.9707c-17.3003,0-31.373,14.0669-31.373,31.3618v161.6011
			c0,6.3213-5.1211,11.4365-11.4366,11.4365c-6.3164,0-11.4375-5.1152-11.4375-11.4365V505.4663
			c0-29.9048,24.3369-54.2358,54.2471-54.2358h234.0645c29.9101,0,54.2469,24.331,54.2469,54.2358v161.6011
			C661.2822,673.3887,656.167,678.5039,649.8457,678.5039L649.8457,678.5039z"/>
	</g>
	<g>
		<path fill="#FFFFFF" d="M620.6953,412.0166c-4.0322,0-7.9414-2.1328-10.0195-5.9082c-3.0371-5.5005-1.0723-12.4082,4.3789-15.4854
			c2.4902-1.4521,23.2422-14.7871,11.001-48.0478c-2.1778-5.9253,0.8604-12.4981,6.7794-14.6816
			c5.9199-2.1778,12.5088,0.8486,14.6874,6.7851c15.5128,42.1787-7.1592,68.1016-21.3105,75.9141
			C624.459,411.5591,622.5596,412.0166,620.6953,412.0166L620.6953,412.0166z"/>
	</g>
	<g>
		<path fill="#FFFFFF" d="M689.126,320.4663c-2.6914,0-5.3838-0.9438-7.5391-2.8369l-32.5566-28.5474
			c-8.2764-7.2597-13.9727-16.4629-16.4629-26.6093c-1.8653-7.8018-1.1846-12.7608-0.9268-14.0957
			c1.6856-18.7632,17.088-33.7354,35.6729-33.7354c8.2314,0,15.8701,2.7979,21.9463,7.7627
			c6.2207-4.9258,14.0283-7.7627,22.2705-7.7627c18.4404,0,33.7636,14.7822,35.7628,34.4448
			c0.291,2.0269,0.5917,6.6568-1.0049,13.3301c-2.5244,10.1748-8.1983,19.3608-16.4297,26.6372l-33.2715,28.6426
			C694.4424,319.5449,691.7842,320.4663,689.126,320.4663L689.126,320.4663z M667.3135,237.5156
			c-7.7178,0-12.4092,7.0698-13.0459,14.0557c-0.0781,0.6035-0.2344,2.3398,0.5255,5.5117
			c1.3514,5.5068,4.579,10.6445,9.3143,14.7988l25.086,21.9971l25.6318-22.064c4.624-4.0874,7.8633-9.2475,9.2373-14.8208
			c0.7363-3.0605,0.5801-4.7636,0.5801-4.7802c-0.7373-7.6231-5.417-14.6983-13.1123-14.6983c-5.1592,0-9.8389,3.0772-11.9395,7.835
			c-1.8203,4.1494-5.9305,6.8296-10.4648,6.8296c-0.0108,0-0.0108,0-0.0225,0c-4.5342-0.0054-8.6445-2.7027-10.4648-6.8687
			C676.5166,240.4307,672.2832,237.5156,667.3135,237.5156L667.3135,237.5156z"/>
	</g>
</g>
</svg>
