<?xml version="1.0" encoding="utf-8"?>
<!-- Generator: Adobe Illustrator 17.1.0, SVG Export Plug-In . SVG Version: 6.00 Build 0)  -->
<!DOCTYPE svg PUBLIC "-//W3C//DTD SVG 1.1//EN" "http://www.w3.org/Graphics/SVG/1.1/DTD/svg11.dtd">
<svg version="1.1" id="candy-heart" xmlns="http://www.w3.org/2000/svg" xmlns:xlink="http://www.w3.org/1999/xlink" x="0px"
	 y="0px" viewBox="0 0 1023.9942 1023.9942" enable-background="new 0 0 1023.9942 1023.9942" xml:space="preserve">
<rect x="0" y="0" fill="#FF5551" width="1023.9942" height="1023.9942"/>
<g id="candy-heart-candy-heart">
	<g>
		<g>
			<path fill="#FFFFFF" d="M767.9043,421.1084c-13.3349,0-29.6308-0.0898-45.4336-0.1738
				c-14.8437-0.0781-29.2519-0.1563-40.3535-0.1563c-15.1777,0-18.4844,0.1563-19.2099,0.2237
				c-3.3057,0.3183-6.9698-0.8823-9.3711-3.2783L633.8125,398c-1.2959-0.497-2.4912-1.2119-3.4629-2.1836l-2.2002-2.2114
				c-1.0722-1.0835-1.9091-2.3623-2.4794-3.7475l-19.3438-19.3555c-2.457-2.457-3.6641-5.8916-3.2842-9.3428
				c0.3242-3.73,0.168-33.165,0.0342-59.1328c-0.2353-43.3408-0.3359-70.0674,0.2793-75.8252
				c0.502-4.8525,4.043-8.8457,8.7891-9.9453c18.9199-4.3672,38.2421,0.3965,51.3203,13.4971
				c10.2871,10.2812,15.8154,22.7231,16.0166,35.9746c0.0107,1.2119-0.0108,2.4297-0.0781,3.6357
				c0.9492-0.1621,1.9208-0.3071,2.8818-0.4302c20.1933-2.563,40.3633,4.2051,54.537,18.356
				c14.207,14.2402,20.9297,34.0371,18.4394,54.3252c-0.1113,0.977-0.2568,1.9433-0.413,2.9092
				c0.8154-0.0445,1.664-0.0669,2.5459-0.0669c0.1005,0,1.1621,0.0112,1.2627,0.0171c13.1123,0.3291,25.4423,5.8964,35.6171,16.0937
				c13.0342,13.0283,17.9366,31.7031,13.4473,51.2315c-1.083,4.7246-5.0371,8.248-9.8506,8.8007
				C795.5703,420.8623,790.3428,421.1084,767.9043,421.1084L767.9043,421.1084z M682.1172,397.9048
				c11.1348,0,25.5879,0.0786,40.4756,0.1568c15.7588,0.0834,32.0215,0.1728,45.3115,0.1728c8.6006,0,14.5196-0.0391,18.5967-0.0947
				c0.1113-6.9639-1.7764-14.7764-8.3994-21.4053c-6.0527-6.0537-12.7881-9.2139-20.0361-9.3984
				c-3.4512,0.2793-6.0313,0.5468-6.9024,0.8042c-1.5527,0.6587-5.5957,2.3344-11.292,3.8139
				c-4.4902,1.1729-9.2031-0.4687-11.9844-4.1494c-2.7919-3.6743-3.1044-8.667-0.7928-12.6597
				c2.915-5.02,4.7578-10.5097,5.4726-16.312c1.6202-13.2627-2.7246-26.1572-11.9277-35.3715
				c-9.1582-9.1416-22.3154-13.5591-35.4727-11.8335c-5.8964,0.7431-11.3808,2.6084-16.2949,5.54
				c-3.9648,2.3677-8.9795,2.1108-12.6767-0.6533c-3.708-2.7588-5.3946-7.4717-4.2666-11.9561
				c1.2959-5.1826,2.8369-9.2539,3.8086-11.4594c0.6367-2.4292,0.9052-4.7525,0.8711-7.042
				c-0.0997-7.2818-3.2383-14.0562-9.3145-20.1314c-5.584-5.585-12.666-8.416-21.0752-8.416c-0.123,0-0.2461,0-0.3799,0.0059
				c-0.1562,14.3906-0.0117,42.4687,0.1113,64.3876c0.1562,29.7989,0.2237,47.3448,0.0674,55.9444l18.9639,18.9761
				c0.4023,0.3964,0.7598,0.8208,1.0947,1.2675c0.3916,0.2793,0.7598,0.5865,1.1065,0.9327l18.9863,18.9814
				C669.3291,397.9439,674.2432,397.9048,682.1172,397.9048L682.1172,397.9048z"/>
		</g>
		<g>
			<path fill="#FFFFFF" d="M397.648,809.3409c-14.4136,0.0117-27.2407-5.2042-37.0972-15.0665
				c-10.1973-10.1971-15.7646-22.5165-16.083-35.6396c-0.0332-1.3184-0.0112-2.5918,0.0503-3.7861
				c-0.9551,0.167-1.9214,0.3018-2.8872,0.4248c-20.3555,2.4902-40.2246-4.334-54.3252-18.4628
				c-14.2627-14.251-20.9692-34.1319-18.3838-54.5255c0.123-0.961,0.2627-1.9219,0.4248-2.8711
				c-1.0107,0.0566-2.0332,0.0898-3.0605,0.0898c-13.8496-0.2343-26.2745-5.7744-36.5386-16.039
				c-18.5796-18.5508-15.6309-42.0616-13.5034-51.3086c1.1006-4.7578,5.0932-8.2988,9.9516-8.8008
				c2.1441-0.2354,7.2486-0.459,28.8208-0.459c13.6709,0,30.6197,0.0899,47.0039,0.1797
				c15.2901,0.0781,30.0835,0.1563,41.2466,0.1563c14.1787,0,17.2837-0.1348,17.9595-0.1905
				c3.4009-0.3349,6.8857,0.8936,9.27,3.2842l19.6738,19.6787c1.3125,0.4912,2.5186,1.2178,3.5015,2.2119l2.1895,2.211
				c1.083,1.0947,1.9043,2.3574,2.457,3.708l19.3887,19.3896c2.4853,2.4795,3.6855,5.9639,3.2671,9.4483
				c-0.3409,3.7861-0.1734,34.5224-0.0445,59.206c0.2344,43.2568,0.3233,69.9395-0.3301,75.6914
				c-0.5468,4.8135-4.0761,8.7676-8.8066,9.8506C407.1026,808.8047,402.3448,809.3409,397.648,809.3409L397.648,809.3409z
				 M368.1006,751.2969c-0.2622,0.9375-0.854,3.4395-0.7705,6.7686c0.1787,7.248,3.3399,13.9835,9.3984,20.0361
				c5.6631,5.6631,12.9395,8.2314,21.4165,8.3652c0.1788-14.3066,0.0279-42.3066-0.0893-64.164
				c-0.1621-30.3682-0.229-47.6348-0.0615-56.1455l-18.9756-18.9756c-0.3911-0.3916-0.7539-0.8047-1.0723-1.2403
				c-0.4077-0.2793-0.7871-0.6035-1.1338-0.9492l-18.9648-18.9648c-2.9649,0.0449-7.4942,0.0781-14.5806,0.0781
				c-11.1968,0-26.0346-0.0781-41.3637-0.1563c-16.3458-0.0887-33.2549-0.1786-46.8868-0.1786
				c-7.9966,0-13.5976,0.0342-17.518,0.0782c-0.0669,6.6455,1.6645,14.6982,8.4101,21.4443
				c6.0816,6.0645,12.8667,9.2148,20.1709,9.3369c0.0054,0,0.0054,0,0.0054,0c1.8545,0,4.3506-0.1562,6.9971-0.8818
				c2.1562-0.961,6.1264-2.4796,11.4707-3.8203c4.4677-1.1504,9.2031,0.5586,11.956,4.2666
				c2.7588,3.708,3.0156,8.7119,0.648,12.6767c-2.9375,4.9258-4.8023,10.4092-5.5396,16.2842
				c-1.6924,13.335,2.6358,26.2686,11.8667,35.4941c9.1416,9.17,22.2315,13.4581,35.355,11.9288
				c5.7798-0.7266,11.2803-2.5694,16.3232-5.4844c4.0039-2.3008,8.9854-1.9883,12.6597,0.8154
				c3.669,2.792,5.2993,7.5283,4.1265,11.9951C370.4463,745.6231,368.7491,749.7442,368.1006,751.2969L368.1006,751.2969z"/>
		</g>
		<g>
			<path fill="#FFFFFF" d="M510.4805,705.8516c-51.1084,0-99.0947-19.8477-135.1309-55.8779
				c-74.4961-74.5069-74.4795-195.7393,0.0332-270.2569c36.0308-36.0307,84.0118-55.872,135.1148-55.872
				c51.0972,0,99.0786,19.8413,135.0981,55.872c74.5069,74.5122,74.5293,195.75,0.044,270.2569
				C609.5869,686.0157,561.584,705.8516,510.4805,705.8516L510.4805,705.8516z M510.4976,346.7183
				c-44.9937,0-87.2339,17.4624-118.9419,49.1704c-65.5947,65.6001-65.6055,172.3291-0.0337,237.9121
				c31.7134,31.709,73.9595,49.1768,118.9585,49.1768c44.9941,0,87.2568-17.4678,118.9873-49.1768
				c65.5714-65.5937,65.5498-172.3174-0.0449-237.9121C597.7149,364.1807,555.4854,346.7183,510.4976,346.7183L510.4976,346.7183z"
				/>
		</g>
	</g>
	<g>
		<g>
			<path fill="#FFFFFF" d="M474.2998,606.17c-19.0429,0-37.2373-4.9375-52.6054-14.252
				c-11.7998-7.2266-17.2613-13.8496-18.9141-16.1055c-23.812-28.9824-23.4268-67.6157,0.9717-92.0136
				c13.5361-13.5425,32.2441-20.4727,51.2646-19.1158c-1.625-18.6631,4.7857-36.9409,18.3897-50.5278
				c11.8833-11.8945,27.7988-18.4453,44.8027-18.4453c16.7598,0,33.5127,6.2046,47.2051,17.4736
				c2.2676,1.6641,8.8906,7.126,16.0723,18.8643c10.5996,17.4795,15.4462,38.1079,14.039,59.6972l-6.3105,96.2754
				c-0.3789,5.6846-4.8809,10.2305-10.5655,10.6553l-97.2187,7.2588C478.9624,606.0918,476.6338,606.17,474.2998,606.17
				L474.2998,606.17z M421.3428,562.4551c0.0054,0,3.4565,4.5449,12.252,9.9287c13.2236,8.0195,29.5805,11.7725,46.2612,10.7334
				l87.1782-6.5117l5.6621-86.3516c1.1065-16.8813-2.6133-32.8974-10.7549-46.3056c-5.417-8.8736-10.0185-12.291-10.0634-12.3247
				c-20.3721-16.8316-46.585-17.0269-62.2998-1.2901c-11.9112,11.895-15.1729,28.7818-8.7168,45.1665
				c1.664,4.2276,0.664,9.041-2.5411,12.2578c-3.2109,3.2222-8.0302,4.2276-12.2519,2.5914
				c-15.709-6.1265-34.1992-2.3179-46.1445,9.6215c-18.0708,18.0713-13.3077,44.6475,0.7319,61.5684
				C420.9014,561.8291,421.1304,562.1426,421.3428,562.4551L421.3428,562.4551L421.3428,562.4551z"/>
		</g>
	</g>
</g>
</svg>
