<?xml version="1.0" encoding="utf-8"?>
<!-- Generator: Adobe Illustrator 17.1.0, SVG Export Plug-In . SVG Version: 6.00 Build 0)  -->
<!DOCTYPE svg PUBLIC "-//W3C//DTD SVG 1.1//EN" "http://www.w3.org/Graphics/SVG/1.1/DTD/svg11.dtd">
<svg version="1.1" id="cloud-heart" xmlns="http://www.w3.org/2000/svg" xmlns:xlink="http://www.w3.org/1999/xlink" x="0px"
	 y="0px" viewBox="0 0 1024 1024" enable-background="new 0 0 1024 1024" xml:space="preserve">
<rect fill="#FF5551" width="1024" height="1024"/>
<g id="cloud-heart-cloud-heart">
	<g>
		<path fill="#FFFFFF" d="M699.8369,676.416h-75.8701c-6.3213,0-11.4365-5.1152-11.4365-11.4375
			c0-6.3213,5.1152-11.4365,11.4365-11.4365h75.8701c47.7803,0,86.6475-39.0908,86.6475-87.1387
			c0-32.9482-17.9707-66.2363-43.7031-80.9516c-3.8204-2.1831-6.043-6.355-5.7305-10.733c0.291-4.1772,0.6484-9.2089,0.6484-13.4248
			c0-98.833-87.9764-179.2373-196.124-179.2373c-85.084,0-148.4951,49.5899-169.626,132.6573
			c-1.3349,5.25-6.0986,8.874-11.5654,8.6059c-1.4463-0.0615-2.8652-0.268-4.2778-0.497c-0.5083-0.0835-1.0108-0.2066-1.5357-0.2178
			c-60.1665,0-117.0547,60.3003-117.0547,124.0747c0,58.9258,52.5157,106.8623,117.0601,106.8623h43.7148
			c6.3159,0,11.437,5.1152,11.437,11.4365c0,6.3223-5.1211,11.4375-11.437,11.4375h-43.7148
			c-77.1597,0-139.9341-58.2012-139.9341-129.7363c0-76.127,65.3545-145.5303,137.7119-146.9258
			c25.9785-86.9775,97.6651-140.5708,189.2217-140.5708c120.7568,0,218.9971,90.6685,218.9971,202.1108
			c0,2.5518-0.1114,5.3721-0.2676,8.1641c29.5976,20.1875,49.0537,58.167,49.0537,96.9453
			C809.3584,627.0605,760.2266,676.416,699.8369,676.416L699.8369,676.416z"/>
	</g>
	<g>
		<path fill="#FFFFFF" d="M512.8379,764.8057c-2.6582,0-5.3164-0.9268-7.4609-2.7695l-93.1368-80.1699
			c-20.1372-17.7695-33.8584-39.9394-39.789-64.1982c-4.0093-16.5743-2.9092-27.1514-2.4512-30.1115
			c4.4282-45.5459,37.9854-78.561,79.9351-78.561c24.7719,0,47.7631,11.4868,62.7631,30.4009
			c14.6592-19.1153,36.8291-30.4009,61.378-30.4009c42.039,0,75.5898,33.0151,79.9238,78.5728
			c0.458,2.9814,1.5635,13.5586-2.4346,30.0771c-5.9756,24.3926-19.7236,46.5742-39.7607,64.1533l-91.4277,80.1699
			C518.2207,763.8564,515.5293,764.8057,512.8379,764.8057L512.8379,764.8057z M392.5664,591.2422
			c0.0059,0-1.1445,7.5723,2.1113,21.0195c4.8077,19.6797,16.083,37.7959,32.5899,52.3594l85.5029,73.6025l83.9561-73.624
			c16.4854-14.4639,27.7656-32.5801,32.6132-52.3711c3.2715-13.4922,2.0772-21.0752,2.0655-21.1426
			c-2.7803-29.9433-23.2647-59.2168-57.3291-59.2168c-22.1035,0-41.5479,13.1455-50.751,34.2881
			c-1.8096,4.166-5.9189,6.8692-10.46,6.8799c-0.0107,0-0.0166,0-0.0273,0c-4.5347,0-8.6397-2.6797-10.4653-6.8242
			c-9.1919-20.8633-29.7759-34.3438-52.4375-34.3438c-33.9922,0-54.5039,29.2852-57.2012,58.2227
			C392.7002,590.4834,392.6445,590.8633,392.5664,591.2422L392.5664,591.2422L392.5664,591.2422z"/>
	</g>
	<g>
		<path fill="#FFFFFF" d="M420.9185,611.3125c-0.022,0-0.0391,0-0.0616,0c-6.3159-0.0332-11.4087-5.1816-11.3755-11.5039
			c0.0674-12.7324,10.6778-29.6973,24.6719-39.459c11.8164-8.2422,24.6665-10.4648,36.187-6.2988
			c5.9361,2.1553,9.0074,8.7109,6.8521,14.6533c-2.1387,5.9307-8.6778,8.9912-14.6475,6.8574
			c-5.54-2.0322-11.3867,0.8155-15.3071,3.5518c-9.5942,6.6904-14.8657,17.2676-14.8823,20.8301
			C432.3218,606.2314,427.2065,611.3125,420.9185,611.3125L420.9185,611.3125z"/>
	</g>
</g>
</svg>
