<?xml version="1.0" encoding="utf-8"?>
<!-- Generator: Adobe Illustrator 17.1.0, SVG Export Plug-In . SVG Version: 6.00 Build 0)  -->
<!DOCTYPE svg PUBLIC "-//W3C//DTD SVG 1.1//EN" "http://www.w3.org/Graphics/SVG/1.1/DTD/svg11.dtd">
<svg version="1.1" id="coffee-cup-heart" xmlns="http://www.w3.org/2000/svg" xmlns:xlink="http://www.w3.org/1999/xlink" x="0px"
	 y="0px" viewBox="0 0 1023.9942 1023.9942" enable-background="new 0 0 1023.9942 1023.9942" xml:space="preserve">
<rect x="0" y="0" fill="#FF5551" width="1023.9942" height="1023.9942"/>
<g id="coffee-cup-heart-coffee-cup-heart">
	<g>
		<path fill="#FFFFFF" d="M601.9922,482.8272H306.0806c-50.4214,0-91.439-41.001-91.439-91.3946
			c0-6.3159,5.1211-11.437,11.437-11.437c6.316,0,11.4371,5.1211,11.4371,11.437c0,37.7842,30.7587,68.5206,68.5649,68.5206
			h295.9116c37.8067,0,68.5547-30.7364,68.5547-68.5206c0-6.3159,5.1152-11.437,11.4365-11.437s11.4366,5.1211,11.4366,11.437
			C693.42,441.8262,652.4082,482.8272,601.9922,482.8272L601.9922,482.8272z"/>
	</g>
	<g>
		<path fill="#FFFFFF" d="M601.4121,776.6055H306.6612c-50.2373,0-91.1036-40.8555-91.1036-91.0703V390.7847
			c0-50.2368,40.8663-91.104,91.1036-91.104h53.6215c6.316,0,11.4371,5.1211,11.4371,11.437c0,6.3159-5.1211,11.437-11.4371,11.437
			h-53.6215c-37.6221,0-68.23,30.6079-68.23,68.23v294.7505c0,37.6055,30.6079,68.1963,68.23,68.1963h294.7509
			c37.6163,0,68.2188-30.5908,68.2188-68.1963V390.7847c0-37.6221-30.6025-68.23-68.2188-68.23h-62.0546
			c-6.3213,0-11.4366-5.1211-11.4366-11.437c0-6.3159,5.1153-11.437,11.4366-11.437h62.0546
			c50.2256,0,91.0918,40.8672,91.0918,91.104v294.7505C692.5039,735.75,651.6377,776.6055,601.4121,776.6055L601.4121,776.6055z"/>
	</g>
	<g>
		<path fill="#FFFFFF" d="M688.752,673.7627c-6.3223,0-11.4375-5.1152-11.4375-11.4365s5.1152-11.4365,11.4375-11.4365
			c53.8887,0,97.7265-43.838,97.7265-97.7276c0-53.8945-43.8378-97.7431-97.7265-97.7431c-6.3223,0-11.4375-5.1211-11.4375-11.4375
			c0-6.3155,5.1152-11.4365,11.4375-11.4365c66.498,0,120.6006,54.1074,120.6006,120.6171
			C809.3526,619.6612,755.25,673.7627,688.752,673.7627L688.752,673.7627z"/>
	</g>
	<g>
		<path fill="#FFFFFF" d="M411.1177,401.6968c-1.6753,0-3.3784-0.3686-4.9868-1.145c-5.6797-2.7588-8.0527-9.5996-5.2998-15.2842
			c0.1675-0.352,17.7246-37.6279,1.0444-60.5801c-25.521-35.0864-1.1899-70.9048-0.1396-72.4126
			c3.5962-5.1767,10.7387-6.4668,15.9155-2.8589c5.1709,3.5909,6.4609,10.6885,2.8984,15.8653
			c-0.7148,1.0552-15.9995,24.1972-0.1787,45.9541c24.7779,34.0869,2.0215,81.9897,1.044,84.0166
			C419.4385,399.3233,415.3618,401.6968,411.1177,401.6968L411.1177,401.6968z"/>
	</g>
	<g>
		<path fill="#FFFFFF" d="M495.107,401.6968c-1.6753,0-3.3785-0.3686-4.9869-1.145c-5.6796-2.7588-8.0527-9.5996-5.2998-15.2842
			c0.168-0.352,17.7251-37.6279,1.0445-60.5801c-25.5376-35.0864-1.1895-70.9101-0.1397-72.4179
			c3.6021-5.1714,10.7281-6.4615,15.9214-2.8536c5.1651,3.5957,6.4551,10.6885,2.8867,15.8707
			c-0.7256,1.0776-15.9936,24.2026-0.1728,45.9487c24.7783,34.0869,2.0215,81.9897,1.0439,84.0166
			C503.4278,399.3233,499.3511,401.6968,495.107,401.6968L495.107,401.6968z"/>
	</g>
	<g>
		<path fill="#FFFFFF" d="M455.7315,710.3076c-2.9263,0-5.8526-1.1171-8.0865-3.3505l-72.0834-72.0616
			c-0.2676-0.2685-0.5196-0.5468-0.754-0.8261c-10.4873-10.376-16.2451-24.0244-16.2451-38.6221
			c0-29.9316,24.3482-54.2803,54.2808-54.2803c17.4121,0,32.937,8.2315,42.8882,20.9971
			c9.9458-12.7656,25.4702-20.9971,42.8769-20.9971c29.9385,0,54.2862,24.3487,54.2862,54.2803
			c0,14.5977-5.7188,28.2129-16.1387,38.5098c-0.2578,0.3359-0.5371,0.6484-0.838,0.9384l-72.1006,72.0616
			C461.584,709.1905,458.6573,710.3076,455.7315,710.3076L455.7315,710.3076z M392.7393,619.7285l62.9922,62.9698l62.9756-62.9366
			c0.3789-0.4911,0.7978-0.9492,1.2558-1.3846c6.4834-6.0537,10.0576-14.1953,10.0576-22.9297
			c0-17.3223-14.0888-31.4062-31.4121-31.4062c-17.334,0-31.4404,14.084-31.4404,31.4062c0,6.3223-5.1206,11.4375-11.4365,11.4375
			c-6.3164,0-11.437-5.1152-11.437-11.4375c0-17.3223-14.106-31.4062-31.4512-31.4062c-17.3174,0-31.4067,14.084-31.4067,31.4062
			c0,8.7227,3.6015,16.8877,10.1411,23.0078C392.002,618.8575,392.3877,619.2813,392.7393,619.7285L392.7393,619.7285z"/>
	</g>
</g>
</svg>
