<?xml version="1.0" encoding="utf-8"?>
<!-- Generator: Adobe Illustrator 17.1.0, SVG Export Plug-In . SVG Version: 6.00 Build 0)  -->
<!DOCTYPE svg PUBLIC "-//W3C//DTD SVG 1.1//EN" "http://www.w3.org/Graphics/SVG/1.1/DTD/svg11.dtd">
<svg version="1.1" id="cupcake-heart" xmlns="http://www.w3.org/2000/svg" xmlns:xlink="http://www.w3.org/1999/xlink" x="0px"
	 y="0px" viewBox="0 0 1024 1024" enable-background="new 0 0 1024 1024" xml:space="preserve">
<rect fill="#FF5551" width="1024" height="1024"/>
<g id="cupcake-heart-cupcake-heart">
	<g>
		<path fill="#FFFFFF" d="M632.5898,780.7656H391.4551c-14.3574,0-27.9497-10.9785-30.9434-24.9951l-35.3935-114.3799
			c-1.8653-6.0312,1.5185-12.4306,7.5498-14.2959c6.0371-1.8546,12.4365,1.4961,14.3076,7.5498l35.6504,115.3622
			c1,4.4678,5.2441,7.8858,8.8291,7.8858h241.1347c3.585,0,7.8184-3.3955,8.544-6.8574c0.123-0.626,0.3125-1.2286,0.5469-1.8213
			l45.1777-115.3623c2.3008-5.8858,8.9463-8.834,14.8096-6.4776c5.8867,2.3008,8.79,8.9346,6.4785,14.8096l-44.8652,114.5918
			C659.8975,770.3125,646.6289,780.7656,632.5898,780.7656L632.5898,780.7656z"/>
	</g>
	<g>
		<path fill="#FFFFFF" d="M655.4072,656.0771c-30.0107,0-60.7695-14.039-80.2704-36.6337
			c-15.9375-18.3721-38.9337-28.9268-63.0918-28.9268c-24.2529,0-47.2607,10.5439-63.126,28.9268
			c-19.5737,22.6064-50.3271,36.6337-80.2705,36.6337c-58.6025,0-106.2822-47.6347-106.2822-106.1923
			c0-8.6895,2.647-23.7901,2.9482-25.4873c15.8604-87.3067,78.3994-160.0323,163.2159-189.8252
			c5.958-2.1104,12.4922,1.0444,14.5805,6.9975c2.0943,5.9585-1.0385,12.4868-6.9975,14.5806
			c-77.0752,27.0732-133.8965,93.0976-148.2881,172.3008c-1.251,7.0146-2.585,16.9433-2.585,21.4336
			c0,45.9375,37.4151,83.3193,83.4082,83.3193c23.4991,0,47.6241-11.001,62.9698-28.7158
			c20.1987-23.4092,49.5224-36.8457,80.4267-36.8457c30.792,0,60.0995,13.4258,80.3926,36.8349
			c15.3018,17.7256,39.4258,28.7266,62.9697,28.7266c45.96,0,83.3526-37.3818,83.3526-83.3193
			c0-3.8985-1.541-15.3457-2.6582-22.1143c-15.1221-78.8462-71.9161-144.6919-148.1758-171.5527
			c-5.9649-2.0996-9.0918-8.6338-6.9922-14.5869c2.0889-5.9639,8.6562-9.0855,14.5869-6.9913
			c83.8994,29.5582,146.4004,102.0215,163.0977,189.1104c0.0781,0.4795,3.0156,18.3828,3.0156,26.1348
			C761.6338,608.4424,713.9766,656.0771,655.4072,656.0771L655.4072,656.0771z"/>
	</g>
	<g>
		<path fill="none" d="M591.7227,345.4287"/>
	</g>
	<g>
		<path fill="#FFFFFF" d="M346.9141,555.168c-5.8413,0-10.8223-4.4453-11.3755-10.377
			c-4.4448-47.539,22.3598-95.7607,61.021-109.7832c5.9189-2.167,12.4975,0.916,14.6474,6.8521
			c2.1558,5.936-0.9101,12.498-6.8515,14.6479c-25.1636,9.1309-49.919,44.6641-46.044,86.1621
			c0.5869,6.287-4.0317,11.8613-10.3198,12.4531C347.6289,555.1562,347.2656,555.168,346.9141,555.168L346.9141,555.168z"/>
	</g>
	<g>
		<path fill="#FFFFFF" d="M512,428.6138c-2.9263,0-5.8525-1.1167-8.0859-3.3506l-80.0581-80.0581
			c-0.3238-0.3238-0.6314-0.6646-0.9107-1.0215c-11.375-11.2642-17.6182-26.0742-17.6182-41.9004
			c0-32.5625,26.4922-59.0488,59.0606-59.0488c19.5171,0,36.8564,9.5156,47.6123,24.1577
			c10.7559-14.6421,28.0898-24.1577,47.6123-24.1577c32.5684,0,59.0606,26.4863,59.0606,59.0488
			c0,15.8599-6.2315,30.6699-17.5909,41.9004c-0.2793,0.3569-0.58,0.6977-0.9043,1.0215l-80.0918,80.0581
			C517.8525,427.4971,514.9258,428.6138,512,428.6138L512,428.6138z M441.1953,330.2002L512,401.0044l70.877-70.8433
			c0.3906-0.5195,0.826-1.0107,1.3183-1.4687c7.4824-6.9863,11.6045-16.3682,11.6045-26.4092
			c0-19.9473-16.2285-36.1758-36.1875-36.1758c-19.9473,0-36.1758,16.2285-36.1758,36.1758c0,6.3164-5.1201,11.437-11.4365,11.437
			c-6.3159,0-11.4365-5.1206-11.4365-11.437c0-19.9473-16.2285-36.1758-36.1758-36.1758c-19.9531,0-36.1875,16.2285-36.1875,36.1758
			c0,10.0186,4.144,19.4116,11.6719,26.4482C440.3574,329.1836,440.8047,329.6748,441.1953,330.2002L441.1953,330.2002z"/>
	</g>
</g>
</svg>
