<?xml version="1.0" encoding="utf-8"?>
<!-- Generator: Adobe Illustrator 17.1.0, SVG Export Plug-In . SVG Version: 6.00 Build 0)  -->
<!DOCTYPE svg PUBLIC "-//W3C//DTD SVG 1.1//EN" "http://www.w3.org/Graphics/SVG/1.1/DTD/svg11.dtd">
<svg version="1.1" id="female-sign" xmlns="http://www.w3.org/2000/svg" xmlns:xlink="http://www.w3.org/1999/xlink" x="0px"
	 y="0px" viewBox="0 0 1024 1023.9942" enable-background="new 0 0 1024 1023.9942" xml:space="preserve">
<rect y="0" fill="#FF5551" width="1024" height="1023.9942"/>
<g id="female-sign-female-sign">
	<g>
		<path fill="#FFFFFF" d="M511.9722,584.2901c-49.3662,0-95.7725-19.2217-130.6695-54.1358
			c-72.0664-72.0551-72.0664-189.3164,0-261.3774c34.9024-34.9082,81.3086-54.1353,130.6748-54.1353
			c49.3663,0,95.7842,19.2271,130.6973,54.1353c34.9141,34.9077,54.1465,81.3257,54.1465,130.6919
			c0,49.3657-19.2324,95.7832-54.1465,130.6972C607.7617,565.0684,561.3438,584.2901,511.9722,584.2901L511.9722,584.2901z
			 M511.9775,237.5157c-43.2568,0-83.917,16.8476-114.5024,47.4335c-30.5855,30.586-47.4282,71.2569-47.4282,114.5196
			c0,43.2622,16.8427,83.9336,47.4282,114.5195c30.5806,30.585,71.2456,47.4277,114.4971,47.4277
			c43.2622,0,83.9389-16.8427,114.5298-47.4277c30.5918-30.5918,47.4453-71.2627,47.4453-114.5195
			c0-43.2569-16.8535-83.9282-47.4453-114.5196C595.9111,254.3633,555.2344,237.5157,511.9775,237.5157L511.9775,237.5157z"/>
	</g>
	<g>
		<path fill="#FFFFFF" d="M512,809.3526c-6.3159,0-11.4365-5.1162-11.4365-11.4375V572.8194
			c0-6.3213,5.1206-11.4366,11.4365-11.4366c6.3164,0,11.4365,5.1153,11.4365,11.4366v225.0957
			C523.4365,804.2364,518.3164,809.3526,512,809.3526L512,809.3526z"/>
	</g>
	<g>
		<path fill="#FFFFFF" d="M439.3247,740.3965c-6.3159,0-11.437-5.1152-11.437-11.4375c0-6.3105,5.1211-11.4365,11.437-11.4365
			L586.3848,717.5c6.3095,0,11.4365,5.1153,11.4365,11.4366c0,6.3105-5.1152,11.4375-11.4365,11.4375L439.3247,740.3965
			L439.3247,740.3965z"/>
	</g>
	<g>
		<path fill="#FFFFFF" d="M414.1387,393.5996c-6.3155,0-11.4366-5.1211-11.4366-11.4375c0-43.5185,37.9239-94.1079,86.8155-94.1079
			c6.3154,0,11.4365,5.1206,11.4365,11.437c0,6.3155-5.1211,11.4366-11.4365,11.4366c-34.4336,0-63.9414,39.1689-63.9414,71.2343
			C425.5762,388.4785,420.4551,393.5996,414.1387,393.5996L414.1387,393.5996z"/>
	</g>
</g>
</svg>
