<?xml version="1.0" encoding="utf-8"?>
<!-- Generator: Adobe Illustrator 17.1.0, SVG Export Plug-In . SVG Version: 6.00 Build 0)  -->
<!DOCTYPE svg PUBLIC "-//W3C//DTD SVG 1.1//EN" "http://www.w3.org/Graphics/SVG/1.1/DTD/svg11.dtd">
<svg version="1.1" id="girl-heart" xmlns="http://www.w3.org/2000/svg" xmlns:xlink="http://www.w3.org/1999/xlink" x="0px" y="0px"
	 viewBox="0 0 1024 1024" enable-background="new 0 0 1024 1024" xml:space="preserve">
<rect fill="#FF5551" width="1024" height="1024"/>
<g id="girl-heart-girl-heart">
	<g>
		<path fill="#FFFFFF" d="M489.6401,763.8115c-98.2963,0-183.0957-118.5234-193.2485-224.4931
			c-0.6025-6.2872,4.0098-11.8721,10.2979-12.4747c6.2324-0.7822,11.8671,4.0098,12.4755,10.2862
			c9.209,96.208,84.0733,203.8076,170.4751,203.8076c90.6792,0,171.3628-124.1289,171.3628-221.9688
			c0-6.3154,5.1153-11.4365,11.4366-11.4365c6.3222,0,11.4375,5.1211,11.4375,11.4365
			C683.877,629.1836,594.2471,763.8115,489.6401,763.8115L489.6401,763.8115z"/>
	</g>
	<g>
		<path fill="#FFFFFF" d="M501.8027,655.0605h-24.3476c-6.3164,0-11.437-5.1152-11.437-11.4365
			c0-6.3214,5.1206-11.4365,11.437-11.4365h24.3476c6.3164,0,11.4375,5.1152,11.4375,11.4365
			C513.2402,649.9453,508.1191,655.0605,501.8027,655.0605L501.8027,655.0605z"/>
	</g>
	<g>
		<path fill="#FFFFFF" d="M347.4668,555.7148c-19.9976,0-32.5791-1.9658-34.3662-2.2675
			c-6.2266-1.0391-10.4209-6.9248-9.3931-13.1455c1.0332-6.2207,6.9693-10.4317,13.1402-9.4151
			c1.5302,0.2451,154.1962,23.4649,277.1425-112.0122c4.2549-4.685,11.4922-5.0093,16.1504-0.7876
			c4.6797,4.2442,5.0255,11.4815,0.7813,16.1563C514.3008,540.7148,402.6689,555.7148,347.4668,555.7148L347.4668,555.7148z"/>
	</g>
	<g>
		<path fill="#FFFFFF" d="M416.9312,780.1182c-0.815,0-1.6421-0.0889-2.4683-0.2686
			C348.249,765.2754,291.126,749.3477,262.707,701.959c-27.7939-46.3506-26.0175-117.4961,5.7686-230.6914
			c22.7226-80.9292,64.3437-136.3487,123.7056-164.7066c101.9096-48.6679,218.0376,0.1509,222.9292,2.2452
			c0.9384,0.3403,140.9619,55.5366,122.8115,264.477c-0.1114,1.5635-14.2735,170.335-151.6944,205.3945
			c-6.1201,1.586-12.3408-2.1338-13.9052-8.2538c-1.5635-6.1211,2.1339-12.3418,8.2539-13.9053
			C701.959,725.5469,715.0039,572.959,715.127,571.4297c16.664-191.9863-107.299-240.9395-108.5606-241.4082
			c-1.5859-0.6651-112.2187-47.0322-204.6572-2.7534c-53.0801,25.4087-90.5625,75.937-111.4087,150.187
			c-29.5415,105.1875-32.1382,172.7812-8.1753,212.7431c23.7725,39.6377,73.937,53.42,137.0518,67.3145
			c6.1709,1.3623,10.0688,7.46,8.7119,13.626C426.916,776.4766,422.1807,780.1182,416.9312,780.1182L416.9312,780.1182z"/>
	</g>
	<g>
		<path fill="#FFFFFF" d="M572.9482,787.2549c-6.3212,0-11.4365-5.1153-11.4365-11.4365v-52.1807
			c0-6.3213,5.1153-11.4365,11.4365-11.4365c6.3213,0,11.4366,5.1152,11.4366,11.4365v52.1807
			C584.3848,782.1396,579.2695,787.2549,572.9482,787.2549L572.9482,787.2549z"/>
	</g>
	<g>
		<path fill="#FFFFFF" d="M427.1729,787.2549c-6.316,0-11.4366-5.1153-11.4366-11.4365v-35.919
			c0-6.3213,5.1206-11.4365,11.4366-11.4365c6.3164,0,11.437,5.1152,11.437,11.4365v35.919
			C438.6099,782.1396,433.4893,787.2549,427.1729,787.2549L427.1729,787.2549z"/>
	</g>
	<g>
		<path fill="#FFFFFF" d="M288.0547,536.5713c-5.1939,0-9.8955-3.5625-11.124-8.8457c-1.4356-6.1426,2.3896-12.291,8.5381-13.7315
			c1.1337-0.2627,114.229-27.1909,179.5439-88.1894c4.624-4.3057,11.8613-4.0654,16.167,0.5527
			c4.3115,4.6187,4.0596,11.856-0.5527,16.167c-69.8443,65.2202-185.0948,92.6172-189.9703,93.7451
			C289.7856,536.4824,288.9146,536.5713,288.0547,536.5713L288.0547,536.5713z"/>
	</g>
	<g>
		<path fill="#FFFFFF" d="M665.7832,531.8467c-1.3848,0-2.8037-0.2451-4.166-0.7812
			c-58.8369-23.0244-70.0391-99.6928-70.4863-102.9433c-0.8712-6.2539,3.4961-12.0117,9.75-12.8828
			c6.2441-0.8936,12.0175,3.4902,12.9004,9.7392c0.1005,0.6641,9.9062,66.6777,56.1679,84.7822
			c5.8858,2.3008,8.7901,8.9346,6.4893,14.8155C674.6621,529.0879,670.3516,531.8467,665.7832,531.8467L665.7832,531.8467z"/>
	</g>
	<g>
		<path fill="#FFFFFF" d="M717.2939,352.6885c-2.6582,0-5.3164-0.9219-7.4609-2.77l-37.2031-32.0323
			c-9.1358-8.0693-15.3574-18.1269-18.0938-29.1841c-1.7978-7.3935-1.4404-12.4252-1.1279-14.5693
			c2.1895-21.3437,18.7744-37.3877,38.7334-37.3877c9.3262,0,18.127,3.3506,25.0068,9.1304
			c6.7129-5.8247,15.3125-9.1304,24.5938-9.1304c20.126,0,36.8125,16.2451,38.8223,37.7842
			c0.1122,0.3848,0.8378,5.6904-1.1613,14.0723c-2.7256,11.1464-8.957,21.2207-18.0146,29.2011l-36.5567,32.0489
			C722.6768,351.7393,719.9854,352.6885,717.2939,352.6885L717.2939,352.6885z M675.9912,277.7681
			c0.0225,0-0.0781,2.0327,0.7598,5.4892c1.6084,6.4722,5.3838,12.5034,10.9121,17.3902l29.5635,25.4531l29.0615-25.4815
			c5.5166-4.8584,9.292-10.8779,10.8779-17.3837c0.916-3.8086,0.7041-5.9478,0.6924-5.9698
			c-0.8594-9.0805-6.623-17.6469-16.1162-17.6469c-6.1211,0-11.3477,3.5854-13.9727,9.5883
			c-1.8086,4.1719-5.7734,7.3047-10.4756,6.8633c-4.5351,0-8.6337-2.6748-10.4658-6.8183
			c-2.5801-5.8526-8.3427-9.6333-14.6865-9.6333c-9.46,0-15.2002,8.5717-15.9941,17.038c-0.0439,0.3794-0.0889,0.7539-0.167,1.1226
			C675.9805,277.7734,675.9805,277.7681,675.9912,277.7681L675.9912,277.7681z"/>
	</g>
</g>
</svg>
