<?xml version="1.0" encoding="utf-8"?>
<!-- Generator: Adobe Illustrator 17.1.0, SVG Export Plug-In . SVG Version: 6.00 Build 0)  -->
<!DOCTYPE svg PUBLIC "-//W3C//DTD SVG 1.1//EN" "http://www.w3.org/Graphics/SVG/1.1/DTD/svg11.dtd">
<svg version="1.1" id="heart-wings" xmlns="http://www.w3.org/2000/svg" xmlns:xlink="http://www.w3.org/1999/xlink" x="0px"
	 y="0px" viewBox="0 0 1024 1024" enable-background="new 0 0 1024 1024" xml:space="preserve">
<rect fill="#FF5551" width="1024" height="1024"/>
<g id="heart-wings-heart-wings">
	<g>
		<path fill="#FFFFFF" d="M348.4438,650.2822L348.4438,650.2822c-30.9829,0-49.2622-20.8242-58.038-38.9619
			c-27.0176,13.4824-45.8697,19.8184-58.7403,19.8184c-14.0049,0-19.8178-7.5059-22.0332-11.9883
			c-3.9707-8.0166-2.2964-18.1973,1.7549-28.2559c-15.4038,4.4317-27.4155,6.6104-36.3413,6.6104
			c-15.9766,0-22.3057-7.1572-24.8022-13.169c-6.4844-15.623,9.3867-34.8553,19.4252-44.9384
			c0.3238-0.3223,0.6661-0.6348,1.0201-0.9209c0,0,43.6797-35.2637,68.1089-54.8633c9.1367-7.3194,19.0073-11.0283,29.3325-11.0283
			c18.977,0,31.7793,12.6342,33.1797,14.0717c3.1992,2.7076,97.4663,84.521,122.0878,116.437
			c2.1099,2.7256,3.0186,6.211,2.5147,9.6338c-0.498,3.4113-2.3716,6.4854-5.1787,8.502
			C393.8716,640.5117,369.5493,650.2822,348.4438,650.2822L348.4438,650.2822z M297.3892,580.6377
			c1.8056,0,3.6098,0.3857,5.2973,1.1455c3.6035,1.6553,6.2359,4.8789,7.125,8.7383c0.3247,1.3447,8.5962,34.2676,38.6323,34.2676
			c12.9083,0,28.2999-5.5508,45.8829-16.5176c-32.2652-35.2022-109.647-102.3579-110.5118-103.105
			c-0.7719-0.728-7.3252-7.0884-15.6845-7.0884c-4.4502,0-8.8252,1.774-13.3867,5.4214
			c-22.7671,18.2671-62.2701,50.1636-67.4673,54.3579c-4.3443,4.458-8.6265,10.0215-11.0606,14.1416
			c8.2222-0.2734,25.0581-3.3857,59.1953-15.9707c5.3164-1.9287,11.2847-0.1611,14.6519,4.3819
			c3.3672,4.5556,3.3232,10.7919-0.0996,15.2988c-7.8052,10.2685-14.9068,23.165-16.7363,29.874
			c6.7905-0.5351,22.6738-4.6191,58.187-23.4629C293.2813,581.1357,295.3354,580.6377,297.3892,580.6377L297.3892,580.6377z"/>
	</g>
	<g>
		<path fill="#FFFFFF" d="M675.5527,650.2822c-21.0996,0-45.4218-9.7705-72.2841-29.0527c-2.8135-2.0166-4.6797-5.0908-5.1788-8.502
			c-0.498-3.4228,0.4122-6.9082,2.5147-9.6338c24.6221-31.916,118.8769-113.7294,122.8711-117.1958
			c0.5986-0.6787,13.3955-13.3129,32.3779-13.3129c10.3194,0,20.1895,3.7089,29.3145,11.0224
			c24.4598,19.6055,68.1133,54.8692,68.1133,54.8692c0.3613,0.2998,0.6962,0.5986,1.0214,0.9209
			c10.0459,10.083,25.917,29.3271,19.4317,44.9384c-2.4903,6.0118-8.8135,13.169-24.7969,13.169
			c-8.9121,0-20.9258-2.1786-36.335-6.6104c4.0586,10.0586,5.7266,20.2393,1.7549,28.2559
			c-2.2158,4.4824-8.0283,11.9883-22.0459,11.9883c-12.8691,0-31.7158-6.3361-58.7402-19.8184
			C724.8086,629.458,706.5352,650.2822,675.5527,650.2822L675.5527,650.2822z M629.6826,608.2715
			c17.5762,10.9668,32.9619,16.5176,45.8701,16.5176c30.0235,0,38.2891-32.9229,38.625-34.3174
			c0.9219-3.834,3.5733-7.0576,7.17-8.6768c3.5859-1.6172,7.7303-1.4931,11.2158,0.3252
			c35.539,18.8565,51.4092,22.9404,58.1933,23.4629c-1.8173-6.709-8.913-19.6055-16.7177-29.874
			c-3.4219-4.5069-3.4727-10.7432-0.0987-15.2988c3.3731-4.543,9.3223-6.3106,14.6504-4.3819
			c34.1193,12.5713,50.9483,15.6973,59.1641,15.9707c-2.4268-4.1201-6.709-9.6836-11.0537-14.1416
			c-5.1905-4.1943-44.6875-36.0849-67.4785-54.3579c-4.545-3.6474-8.9258-5.4214-13.3692-5.4214
			c-8.2285,0-14.8135,6.2608-14.876,6.3291C739.3965,505.8394,661.9346,573.0693,629.6826,608.2715L629.6826,608.2715z"/>
	</g>
	<g>
		<path fill="#FFFFFF" d="M344.4297,466.9893c-7.0396,0-12.7466-5.7071-12.7466-12.7461c0-40.2061,35.1148-86.9473,80.3872-86.9473
			c7.0396,0,12.7461,5.707,12.7461,12.7456c0,7.0396-5.7065,12.7466-12.7461,12.7466c-29.563,0-54.894,33.7895-54.894,61.4551
			C357.1763,461.2822,351.4688,466.9893,344.4297,466.9893L344.4297,466.9893z"/>
	</g>
	<g>
		<path fill="#FFFFFF" d="M512.001,721.9941c-3.2613,0-6.5225-1.2441-9.0117-3.7343L308.5547,523.8877
			c-0.5288-0.5283-1.0073-1.0938-1.4312-1.6992c-25.2256-24.4654-39.0864-56.9727-39.0864-91.8452
			c0-70.772,57.5903-128.3487,128.374-128.3487c50.8057,0,94.8081,29.6748,115.5899,72.6075
			c20.7881-42.9327,64.8037-72.6075,115.6152-72.6075c70.7783,0,128.3486,57.5767,128.3486,128.3487
			c0,34.8344-13.9033,67.3671-39.2236,91.9213c-0.4101,0.5723-0.8584,1.1192-1.3682,1.6231L521.0127,718.2598
			C518.5244,720.75,515.2627,721.9941,512.001,721.9941L512.001,721.9941z M328.416,507.6997l183.585,183.5239l183.5429-183.5547
			c0.5225-0.7905,1.1329-1.5253,1.8536-2.1914c21.3242-19.8784,33.0742-46.5605,33.0742-75.1342
			c0-56.712-46.1426-102.856-102.8555-102.856c-56.7246,0-102.8691,46.144-102.8691,102.856c0,7.039-5.7061,12.7465-12.7461,12.7465
			c-7.0386,0-12.7461-5.7075-12.7461-12.7465c0-56.712-46.1382-102.856-102.8438-102.856
			c-56.7309,0-102.8803,46.144-102.8803,102.856c0,28.6171,11.7006,55.2802,32.9487,75.0659
			C327.2207,506.1001,327.8677,506.8721,328.416,507.6997L328.416,507.6997z"/>
	</g>
</g>
</svg>
