<?xml version="1.0" encoding="utf-8"?>
<!-- Generator: Adobe Illustrator 17.1.0, SVG Export Plug-In . SVG Version: 6.00 Build 0)  -->
<!DOCTYPE svg PUBLIC "-//W3C//DTD SVG 1.1//EN" "http://www.w3.org/Graphics/SVG/1.1/DTD/svg11.dtd">
<svg version="1.1" id="heart-arrow" xmlns="http://www.w3.org/2000/svg" xmlns:xlink="http://www.w3.org/1999/xlink" x="0px"
	 y="0px" viewBox="0 0 1024 1024" enable-background="new 0 0 1024 1024" xml:space="preserve">
<rect fill="#FF5551" width="1024" height="1024"/>
<g id="heart-arrow-heart-arrow">
	<g>
		<path fill="#FFFFFF" d="M328.999,373.25c-2.9258,0-5.8579-1.1172-8.0918-3.3506l-39.582-39.6045
			c-4.4619-4.4678-4.4619-11.7109,0.0059-16.1777c4.4672-4.457,11.7099-4.4624,16.1777,0.0049l39.582,39.605
			c4.4619,4.4672,4.4619,11.7104-0.0054,16.1782C334.8516,372.1328,331.9258,373.25,328.999,373.25L328.999,373.25z"/>
	</g>
	<g>
		<path fill="#FFFFFF" d="M724.4863,769.1729H644.708c-6.3213,0-11.4375-5.1152-11.4375-11.4365
			c0-6.3222,5.1162-11.4375,11.4375-11.4375h68.3418V677.499c0-6.3214,5.1152-11.4365,11.4365-11.4365
			c6.3214,0,11.4375,5.1152,11.4375,11.4365v80.2373C735.9238,764.0576,730.8076,769.1729,724.4863,769.1729L724.4863,769.1729z"/>
	</g>
	<g>
		<path fill="#FFFFFF" d="M716.9248,761.1758c-2.9258,0-5.8525-1.1172-8.0859-3.3506L534.1699,583.168
			c-4.4669-4.4678-4.4669-11.7051,0-16.1729c4.4678-4.4678,11.7051-4.4678,16.1729,0l174.6689,174.6572
			c4.4668,4.4678,4.4668,11.7051,0,16.1729C722.7773,760.0586,719.8516,761.1758,716.9248,761.1758L716.9248,761.1758z"/>
	</g>
	<g>
		<path fill="#FFFFFF" d="M289.417,333.6455h-63.3379c-6.3164,0-11.4375-5.1211-11.4375-11.4365
			c0-6.3164,5.1211-11.4375,11.4375-11.4375h51.9014v-51.8897c0-6.3164,5.1206-11.4375,11.4365-11.4375
			c6.3159,0,11.437,5.1211,11.437,11.4375v63.3272C300.854,328.5244,295.7329,333.6455,289.417,333.6455L289.417,333.6455z"/>
	</g>
	<g>
		<path fill="#FFFFFF" d="M328.999,373.25h-63.3379c-6.3164,0-11.437-5.1211-11.437-11.4365c0-6.3164,5.1206-11.4375,11.437-11.4375
			h51.9014v-51.9234c0-6.3159,5.1211-11.437,11.4365-11.437c6.3164,0,11.437,5.1211,11.437,11.437v63.3609
			C340.436,368.1289,335.3154,373.25,328.999,373.25L328.999,373.25z"/>
	</g>
	<g>
		<g>
			<path fill="#FFFFFF" d="M352.4648,475.9805c-6.3159,0-11.4365-5.1211-11.4365-11.4366c0-43.2236,37.6665-93.4716,86.2344-93.4716
				c6.3154,0,11.4365,5.1211,11.4365,11.4365c0,6.3164-5.1211,11.437-11.4365,11.437c-34.1211,0-63.3608,38.8169-63.3608,70.5981
				C363.9019,470.8594,358.7808,475.9805,352.4648,475.9805L352.4648,475.9805z"/>
		</g>
		<g>
			<path fill="#FFFFFF" d="M542.2676,776.5664c-2.9258,0-5.8526-1.1172-8.086-3.3506L319.2715,558.3057
				c-0.5088-0.5137-0.9663-1.0606-1.3628-1.6416c-27.5869-26.6934-42.7427-62.0704-42.7427-99.9161
				c0-76.7744,62.4727-139.2304,139.2637-139.2304c57.1728,0,106.4043,34.6123,127.8379,83.9785
				c21.4219-49.3662,70.6533-83.9785,127.8154-83.9785c76.7969,0,139.2754,62.456,139.2754,139.2304
				c0,37.9068-15.1006,73.2559-42.5986,99.8379c-0.4014,0.6143-0.8711,1.1953-1.4062,1.7198l-215,214.9101
				C548.1201,775.4492,545.1934,776.5664,542.2676,776.5664L542.2676,776.5664z M337.292,543.9766L542.2676,748.957
				l205.0703-204.9803c0.5137-0.8155,1.1387-1.586,1.8877-2.2793c24.0234-22.3985,37.2588-52.5713,37.2588-84.9493
				c0-64.1591-52.2139-116.3564-116.4014-116.3564c-64.1758,0-116.3789,52.1973-116.3789,116.3564
				c0,6.316-5.1152,11.4366-11.4365,11.4366c-6.3223,0-11.4375-5.1206-11.4375-11.4366
				c0-64.1591-52.2193-116.3564-116.4004-116.3564c-64.1763,0-116.3906,52.1973-116.3906,116.3564
				c0,32.3223,13.2968,62.5284,37.4326,85.0508C336.1753,542.457,336.7842,543.1943,337.292,543.9766L337.292,543.9766z"/>
		</g>
	</g>
</g>
</svg>
