<?xml version="1.0" encoding="utf-8"?>
<!-- Generator: Adobe Illustrator 17.1.0, SVG Export Plug-In . SVG Version: 6.00 Build 0)  -->
<!DOCTYPE svg PUBLIC "-//W3C//DTD SVG 1.1//EN" "http://www.w3.org/Graphics/SVG/1.1/DTD/svg11.dtd">
<svg version="1.1" id="heart-music-note" xmlns="http://www.w3.org/2000/svg" xmlns:xlink="http://www.w3.org/1999/xlink" x="0px"
	 y="0px" viewBox="0 0 1024 1023.9942" enable-background="new 0 0 1024 1023.9942" xml:space="preserve">
<rect y="0" fill="#FF5551" width="1024" height="1023.9942"/>
<g id="heart-music-note-heart-music-note">
	<g>
		<path fill="#FFFFFF" d="M598.9941,612.5137c-6.3222,0-11.4375-5.1152-11.4375-11.4375V237.9844
			c-0.0449-12.7939,10.9122-23.2812,24.4151-23.3428c0.0117,0,0.0117,0,0.0117,0c13.5137,0,165.6328,80.5938,166.1582,196.3194
			c0.0332,6.3164-5.0713,11.4594-11.3818,11.4873c-0.0215,0-0.044,0-0.0557,0c-6.2881,0-11.4033-5.0874-11.4365-11.3867
			c-0.4238-94.5494-126.4307-166.2139-144.211-173.3619c-0.3916,0.1563-0.6152,0.3628-0.6709,0.4634l0.045,362.9131
			C610.4307,607.3985,605.3154,612.5137,598.9941,612.5137L598.9941,612.5137z"/>
	</g>
	<g>
		<path fill="#FFFFFF" d="M714.7139,437.1016c-5.2051,0-9.9073-3.5684-11.1358-8.8565
			c-16.6972-72.0615-86.7695-116.0664-102.7635-121.7846c-0.5918,0.1001-1.0499,0.268-1.8204,0.145
			c-6.2998,0-11.415-5.0928-11.4375-11.3975c-0.0214-5.8193,5.0596-11.3144,10.8457-11.9843
			c0.2676-0.0332,0.5694-0.0503,0.8926-0.0503c18.1612,0,106.0479,51.3706,126.5762,139.9116
			c1.4189,6.1484-2.4121,12.2969-8.5664,13.7207C716.4336,437.0069,715.5742,437.1016,714.7139,437.1016L714.7139,437.1016z"/>
	</g>
	<g>
		<path fill="#FFFFFF" d="M429.9316,809.3526c-2.6582,0-5.3164-0.9268-7.4609-2.7705L300.5635,701.6407
			c-25.7608-22.7286-43.3409-51.1084-50.9575-82.1807c-5.1939-21.4883-3.669-34.8125-3.1333-38.1631
			c5.5849-57.8105,48.0488-99.7207,101.1225-99.7207c32.9424,0,63.3775,16.0439,82.208,42.168
			c18.4453-26.4258,47.7241-42.168,80.2984-42.168c53.1855,0,95.6386,41.9102,101.1113,99.7314
			c0.5469,3.3731,2.0654,16.6973-3.1162,38.1084c-7.6514,31.2276-25.2647,59.6299-50.9522,82.1573L437.4707,806.5157
			C435.3149,808.4024,432.623,809.3526,429.9316,809.3526L429.9316,809.3526z M269.0449,585.0049c0,0-1.7031,10.4541,2.7871,29.0498
			c6.4888,26.4697,21.6226,50.8067,43.7588,70.3408l114.2739,98.375l112.2017-98.3974
			c22.1367-19.4219,37.2813-43.7481,43.8037-70.3633c4.4903-18.5625,2.7704-29.0166,2.748-29.1172
			c-4.334-47.0537-37.293-80.4429-78.5166-80.4429c-30.3623,0-57.0674,18.0093-69.6827,47.0035
			c-1.8144,4.166-5.9189,6.8574-10.4648,6.8691c-0.0059,0-0.0166,0-0.0225,0c-4.5341,0-8.6386-2.6807-10.4648-6.8242
			c-12.582-28.5811-40.7944-47.0484-71.8716-47.0484c-46.602,0-74.708,39.9566-78.3882,79.4156
			C269.1738,584.2451,269.1177,584.6358,269.0449,585.0049L269.0449,585.0049L269.0449,585.0049z"/>
	</g>
	<g>
		<path fill="#FFFFFF" d="M309.6211,608.4258c-0.0166,0-0.0391,0-0.061,0c-6.316-0.0332-11.4087-5.1826-11.3755-11.4932
			c0.084-15.625,13.3134-36.5995,30.77-48.7744c14.4917-10.1074,30.167-12.8886,44.145-7.8291
			c5.9414,2.1553,9.0127,8.7119,6.8628,14.6534c-2.1499,5.9316-8.7173,9.0136-14.6479,6.8583
			c-8.7002-3.1494-17.4571,1.0274-23.2754,5.0811c-12.7549,8.9023-20.9473,23.79-20.9805,30.1231
			C321.0244,603.3438,315.9092,608.4258,309.6211,608.4258L309.6211,608.4258z"/>
	</g>
</g>
</svg>
