<?xml version="1.0" encoding="utf-8"?>
<!-- Generator: Adobe Illustrator 17.1.0, SVG Export Plug-In . SVG Version: 6.00 Build 0)  -->
<!DOCTYPE svg PUBLIC "-//W3C//DTD SVG 1.1//EN" "http://www.w3.org/Graphics/SVG/1.1/DTD/svg11.dtd">
<svg version="1.1" id="heart-flower" xmlns="http://www.w3.org/2000/svg" xmlns:xlink="http://www.w3.org/1999/xlink" x="0px"
	 y="0px" viewBox="0 0 1024 1023.9942" enable-background="new 0 0 1024 1023.9942" xml:space="preserve">
<rect y="0" fill="#FF5551" width="1024" height="1023.9942"/>
<g id="heart-flower-heart-flower">
	<g>
		<path fill="#FFFFFF" d="M512,809.3526c-6.3159,0-11.4365-5.1162-11.4365-11.4375V588.9473
			c0-6.3213,5.1206-11.4375,11.4365-11.4375c6.3164,0,11.4365,5.1162,11.4365,11.4375v208.9678
			C523.4365,804.2364,518.3164,809.3526,512,809.3526L512,809.3526z"/>
	</g>
	<g>
		<path fill="#FFFFFF" d="M512,603.1983c-2.9263,0-5.8525-1.1162-8.0859-3.3506L323.7275,419.6841
			c-0.4687-0.4692-0.8935-0.9717-1.2675-1.5024c-23.3877-22.6895-36.2481-52.7666-36.2705-84.9776
			c0.0224-65.3823,53.2412-118.5625,118.6235-118.5625c47.2329,0,88.105,27.7432,107.1645,67.7779
			c19.0655-40.0347,59.9541-67.7779,107.1983-67.7891c65.416,0.0112,118.624,53.2026,118.624,118.5679
			c0,32.1831-12.7881,62.2217-36.0752,84.872c-0.4023,0.5694-0.8496,1.1114-1.3408,1.6084l-180.2979,180.169
			C517.8525,602.0821,514.9258,603.1983,512,603.1983L512,603.1983z M341.6089,405.2149L512,575.5899l170.4922-170.3692
			c0.4912-0.7597,1.083-1.4687,1.7637-2.1054c19.7802-18.4678,30.6699-43.2959,30.6699-69.917
			c0-52.7559-42.9551-95.6826-95.75-95.6944c-52.8067,0.0118-95.7617,42.9331-95.7617,95.6836
			c0,6.3155-5.1202,11.4366-11.4366,11.4366c-6.3159,0-11.4365-5.1211-11.4365-11.4366c0-52.7558-42.9443-95.6718-95.728-95.6718
			c-52.7778,0-95.728,42.9267-95.75,95.6884c0.0166,26.6094,10.9624,51.4717,30.8203,69.9781
			C340.542,403.7964,341.1172,404.4834,341.6089,405.2149L341.6089,405.2149z"/>
	</g>
	<g>
		<path fill="#FFFFFF" d="M622.1465,688.6172c-31.418,0-56.9824-25.5762-56.9824-57.0049c0-77.333,130.0938-90.5341,135.622-91.0595
			c3.2725-0.3018,6.3994,0.748,8.7784,2.9257c2.3788,2.167,3.7421,5.2383,3.7421,8.4551
			C713.3066,557.5176,712.2676,688.6172,622.1465,688.6172L622.1465,688.6172z M689.7285,565.2578
			c-30.2226,5.2051-101.6914,22.1817-101.6914,66.3545c0,18.8194,15.3008,34.1319,34.1094,34.1319
			C675.5225,665.7442,687.1826,595.3135,689.7285,565.2578L689.7285,565.2578z"/>
	</g>
	<g>
		<path fill="#FFFFFF" d="M589.9473,675.2598c-3.0157,0-6.0204-1.1836-8.2657-3.5293c-4.3662-4.5684-4.1992-11.8057,0.3575-16.1729
			l45.3906-43.4012c4.5791-4.3672,11.8164-4.1992,16.1719,0.3574c4.3672,4.5674,4.2003,11.8047-0.3575,16.1719l-45.3896,43.4023
			C595.6318,674.21,592.7949,675.2598,589.9473,675.2598L589.9473,675.2598z"/>
	</g>
	<g>
		<path fill="#FFFFFF" d="M518.1211,749.041c-2.877,0-5.7524-1.0721-7.9751-3.2392c-4.5288-4.4111-4.6294-11.6494-0.2231-16.1729
			l69.8828-71.8145c4.4121-4.5127,11.6378-4.6357,16.1729-0.2237c4.5235,4.4112,4.623,11.6495,0.2227,16.1719l-69.8828,71.8155
			C524.0732,747.8789,521.0967,749.041,518.1211,749.041L518.1211,749.041z"/>
	</g>
	<g>
		<path fill="#FFFFFF" d="M401.8418,688.6172c-90.1094,0-91.1484-131.0762-91.1484-136.6611c0-3.2168,1.3574-6.2881,3.7417-8.4551
			c2.3735-2.1777,5.5122-3.2607,8.7729-2.9258c5.5342,0.5137,135.6284,13.7041,135.6284,91.0811
			C458.8364,663.0635,433.2715,688.6172,401.8418,688.6172L401.8418,688.6172z M334.293,565.2803
			c2.5859,30.0557,14.3354,100.4639,67.5488,100.4639c18.8145,0,34.1211-15.291,34.1211-34.0879
			C435.9629,587.4619,364.5273,570.4854,334.293,565.2803L334.293,565.2803z"/>
	</g>
	<g>
		<path fill="#FFFFFF" d="M434.0527,675.2823c-2.8423,0-5.6904-1.0498-7.9072-3.1719l-45.3789-43.4247
			c-4.5625-4.3672-4.7246-11.6046-0.3574-16.1719c4.3725-4.5684,11.6045-4.7246,16.1723-0.3574l45.3789,43.4238
			c4.5625,4.3672,4.7242,11.6045,0.3575,16.1729C440.0674,674.0977,437.063,675.2823,434.0527,675.2823L434.0527,675.2823z"/>
	</g>
	<g>
		<path fill="#FFFFFF" d="M505.8682,749.086c-2.9766,0-5.9585-1.1621-8.1978-3.4629l-69.8721-71.838
			c-4.4057-4.5235-4.3051-11.7715,0.2232-16.1719c4.5234-4.4004,11.7666-4.3008,16.1728,0.2227l69.8721,71.8379
			c4.4063,4.5234,4.3057,11.7714-0.2236,16.1728C511.6201,748.0137,508.7441,749.086,505.8682,749.086L505.8682,749.086z"/>
	</g>
	<g>
		<path fill="#FFFFFF" d="M355.4136,362.3545c-6.3159,0-11.437-5.1211-11.437-11.4365c0-36.3545,31.747-78.6118,72.6757-78.6118
			c6.3155,0,11.4366,5.1206,11.4366,11.437c0,6.3159-5.1211,11.4365-11.4366,11.4365c-26.8222,0-49.8017,30.6475-49.8017,55.7383
			C366.8506,357.2334,361.7295,362.3545,355.4136,362.3545L355.4136,362.3545z"/>
	</g>
</g>
</svg>
