<?xml version="1.0" encoding="utf-8"?>
<!-- Generator: Adobe Illustrator 17.1.0, SVG Export Plug-In . SVG Version: 6.00 Build 0)  -->
<!DOCTYPE svg PUBLIC "-//W3C//DTD SVG 1.1//EN" "http://www.w3.org/Graphics/SVG/1.1/DTD/svg11.dtd">
<svg version="1.1" id="heart-magnifier" xmlns="http://www.w3.org/2000/svg" xmlns:xlink="http://www.w3.org/1999/xlink" x="0px"
	 y="0px" viewBox="0 0 1023.9942 1024" enable-background="new 0 0 1023.9942 1024" xml:space="preserve">
<rect x="0" fill="#FF5551" width="1023.9942" height="1024"/>
<g id="heart-magnifier-heart-magnifier">
	<g>
		<g>
			<path fill="#FFFFFF" d="M601.2442,694.2412c-81.1026,0-147.0879-65.9853-147.0879-147.082s65.9853-147.0703,147.0879-147.0703
				c81.0859,0,147.0595,65.9736,147.0595,147.0703S682.3301,694.2412,601.2442,694.2412L601.2442,694.2412z M601.2442,422.9624
				c-68.4873,0-124.2139,55.7153-124.2139,124.1968c0,68.4873,55.7266,124.208,124.2139,124.208
				c68.4756,0,124.1855-55.7207,124.1855-124.208C725.4297,478.6777,669.7198,422.9624,601.2442,422.9624L601.2442,422.9624z"/>
		</g>
		<g>
			<path fill="#FFFFFF" d="M797.9151,768.6035c-3.0039,0-5.9971-1.1729-8.2422-3.5078L684.25,655.4746
				c-4.3779-4.5566-4.2324-11.7949,0.3135-16.1728c4.5674-4.378,11.794-4.2325,16.1719,0.3134l105.4228,109.6212
				c4.378,4.5566,4.2325,11.7949-0.3125,16.1729C803.6231,767.542,800.7637,768.6035,797.9151,768.6035L797.9151,768.6035z"/>
		</g>
	</g>
	<g>
		<g>
			<path fill="#FFFFFF" d="M523.9219,568.7266c-6.3154,0-11.4365-5.1153-11.4365-11.4375c0-45.3506,39.5039-98.0728,90.4228-98.0728
				c6.3213,0,11.4366,5.1206,11.4366,11.437c0,6.3154-5.1153,11.4365-11.4366,11.4365c-36.3769,0-67.5488,41.3467-67.5488,75.1993
				C535.3594,563.6113,530.2442,568.7266,523.9219,568.7266L523.9219,568.7266z"/>
		</g>
		<g>
			<path fill="#FFFFFF" d="M496.1177,738.9834c-2.9541,0-5.8804-1.1397-8.0918-3.3506L260.9366,508.6382
				c-0.5586-0.5581-1.0557-1.1675-1.48-1.8208c-28.9214-27.9385-44.815-65.1138-44.815-104.9976
				c0-80.7392,65.6949-146.4228,146.4512-146.4228c60.6519,0,112.8106,37.0468,135.0195,89.6967
				c22.2149-52.6499,74.3731-89.6967,135.0303-89.6967c80.751,0,146.4453,65.6836,146.4453,146.4228
				c0,35.2652-12.9892,69.4585-36.5781,96.2808c-4.1426,4.685-11.9727,6.0141-16.7411,1.9375
				c-6.3779-5.4444-4.6016-11.001-0.7822-16.4854l-0.0782-0.0781c0.2676-0.3125,0.5469-0.625,0.8155-0.938
				c1.1953-1.6137,2.5351-3.2163,3.8642-4.8081c0.2012-0.2402,0.4131-0.4687,0.625-0.6865
				c16.9326-21.9302,26.002-48.2158,26.002-75.2222c0-68.124-55.4317-123.5493-123.5723-123.5493
				c-68.1514,0-123.5937,55.4253-123.5937,123.5493c0,6.3159-5.1211,11.437-11.4366,11.437c-6.3164,0-11.437-5.1211-11.437-11.437
				c0-68.124-55.436-123.5493-123.5825-123.5493c-68.1411,0-123.5771,55.4253-123.5771,123.5493
				c0,34.3941,14.0498,66.4263,39.5708,90.1939c0.7539,0.709,1.4072,1.5019,1.9379,2.3623L496.397,711.6641
				c8.5327-9.1133,22.7954-23.3643,46.1772-46.7296c4.4678-4.4678,11.7051-4.4678,16.1729,0c4.4678,4.4677,4.4678,11.7158,0,16.1718
				c0,0-51.5835,51.544-54.376,54.3477c-0.5581,0.5918-1.1894,1.1279-1.8872,1.5859
				C500.5406,738.3467,498.3233,738.9834,496.1177,738.9834L496.1177,738.9834z"/>
		</g>
	</g>
</g>
</svg>
