<?xml version="1.0" encoding="utf-8"?>
<!-- Generator: Adobe Illustrator 17.1.0, SVG Export Plug-In . SVG Version: 6.00 Build 0)  -->
<!DOCTYPE svg PUBLIC "-//W3C//DTD SVG 1.1//EN" "http://www.w3.org/Graphics/SVG/1.1/DTD/svg11.dtd">
<svg version="1.1" id="heart" xmlns="http://www.w3.org/2000/svg" xmlns:xlink="http://www.w3.org/1999/xlink" x="0px" y="0px"
	 viewBox="0 0 1024 1023.9942" enable-background="new 0 0 1024 1023.9942" xml:space="preserve">
<rect id="heart-label" y="0" fill="#FF5551" width="1024" height="1023.9942"/>
<g id="heart-heart">
	<path fill="#FFFFFF" d="M654.9609,256.67c-71.4697,0-121.6504,25.163-142.9609,69.4418
		C490.6953,281.833,440.5195,256.67,369.0615,256.67c-85.145,0-154.4199,69.2412-154.4199,154.3525
		c0,42.0508,16.7759,81.2646,47.3115,110.7441c0.4355,0.6709,0.9434,1.3018,1.5186,1.877l240.4424,240.3408
		c2.2334,2.2344,5.1596,3.3506,8.0859,3.3506c2.9258,0,5.8525-1.1162,8.0859-3.3506l240.3526-240.3408
		c0.5478-0.5479,1.0283-1.1455,1.4404-1.7822c30.6367-29.5967,47.4795-68.8438,47.4795-110.8389
		C809.3584,325.9112,740.1006,256.67,654.9609,256.67z M744.1885,507.1192c-0.749,0.6924-1.3633,1.4629-1.877,2.3008L512,739.7256
		L281.6045,509.4307c-0.5361-0.8877-1.2007-1.6973-1.9717-2.418c-27.1562-25.3193-42.1172-59.4067-42.1172-95.9902
		c0-72.4966,59.0103-131.479,131.5459-131.479c39.5381,0,131.502,9.7729,131.502,100.2847c0,6.3159,5.1206,11.437,11.4365,11.437
		c6.3164,0,11.4365-5.1211,11.4365-11.437c0-90.5118,91.9756-100.2847,131.5244-100.2847
		c72.5186,0,131.5235,58.9824,131.5235,131.479C786.4844,447.5503,771.4629,481.6768,744.1885,507.1192z"/>
	<path fill="#FFFFFF" d="M371.9766,316.5513c-53.5489,0-95.0801,55.4756-95.0801,103.1938c0,6.3165,5.1211,11.4375,11.4375,11.4375
		c6.3154,0,11.4365-5.121,11.4365-11.4375c0-36.1533,33.3164-80.3203,72.2061-80.3203c6.3164,0,11.437-5.1206,11.437-11.4365
		C383.4136,321.6724,378.293,316.5513,371.9766,316.5513z"/>
</g>
</svg>
