<?xml version="1.0" encoding="utf-8"?>
<!-- Generator: Adobe Illustrator 17.1.0, SVG Export Plug-In . SVG Version: 6.00 Build 0)  -->
<!DOCTYPE svg PUBLIC "-//W3C//DTD SVG 1.1//EN" "http://www.w3.org/Graphics/SVG/1.1/DTD/svg11.dtd">
<svg version="1.1" id="hearts" xmlns="http://www.w3.org/2000/svg" xmlns:xlink="http://www.w3.org/1999/xlink" x="0px" y="0px"
	 viewBox="0 0 1024 1024" enable-background="new 0 0 1024 1024" xml:space="preserve">
<rect fill="#FF5551" width="1024" height="1024"/>
<g id="hearts-hearts">
	<g>
		<path fill="#FFFFFF" d="M638.7432,585.8926c-2.6573,0-5.3155-0.9268-7.46-2.7696l-42.1406-36.3095
			c-4.791-4.1221-5.3272-11.3477-1.2061-16.128c4.1436-4.8027,11.3585-5.3164,16.1281-1.206l34.6123,29.8203l104.3271-91.439
			c20.4395-17.8979,34.4785-40.4589,40.5986-65.2426c4.1221-17.1104,2.5918-26.8164,2.5694-26.9112
			c-3.4961-37.4433-29.419-74.3618-72.4746-74.3618c-28.4473,0-52.5489,16.2451-64.4776,43.4527
			c-1.831,4.1542-5.9413,6.8408-10.4765,6.8408c-0.0108,0-0.0108,0-0.0225,0c-4.5449-0.0059-8.6553-2.709-10.4648-6.875
			c-11.4707-26.375-37.4707-43.4185-66.2305-43.4185c-43.1006,0-69.0625,36.9185-72.4356,73.3902
			c-0.0332,0.3964-0.0893,0.7822-0.1674,1.1669l0,0c0.0053,0-1.5523,9.6504,2.6748,26.7051
			c1.519,6.1314-2.2227,12.336-8.3487,13.8545c-6.1762,1.5025-12.3413-2.2226-13.8549-8.3486
			c-4.9644-20.0479-3.5572-32.6519-3.0381-35.9243c5.2216-54.3306,45.1777-93.7173,95.1699-93.7173
			c30.6914,0,58.9932,14.7373,76.6514,38.8056c17.456-24.3418,44.7529-38.8056,75.0204-38.8056
			c50.0918,0,90.0879,39.6045,95.125,94.164c0.1113,0.3072,2.334,13.3135-3.0049,35.4053
			c-7.2598,29.4131-23.7559,56.0283-47.7354,77.0254l-111.7998,97.9893C644.127,584.9434,641.4355,585.8926,638.7432,585.8926
			L638.7432,585.8926z"/>
	</g>
	<g>
		<path fill="#FFFFFF" d="M528.6865,390.6396c-0.0224,0-0.0449,0-0.0674,0c-6.3105-0.0332-11.4033-5.1821-11.3701-11.498
			c0.079-14.0728,11.8954-32.8755,27.4872-43.7427c13.0557-9.0971,27.2072-11.5649,39.8496-6.9751
			c5.9307,2.1558,9.002,8.7178,6.8467,14.6538c-2.1671,5.9361-8.6787,9.002-14.665,6.8462
			c-6.9473-2.5293-14.1621,0.8994-18.9531,4.2442c-10.7559,7.4941-17.6582,19.8691-17.6915,25.0966
			C540.0898,385.5581,534.9746,390.6396,528.6865,390.6396L528.6865,390.6396z"/>
	</g>
	<g>
		<g>
			<path fill="#FFFFFF" d="M406.8457,745.5283c-2.6582,0-5.3164-0.9267-7.4609-2.7695L271.7256,632.8691
				c-26.8833-23.7226-45.2334-53.3535-53.169-85.788c-5.4336-22.4493-3.831-36.3208-3.2783-39.7496
				c5.8028-60.267,50.042-103.9594,105.3443-103.9594c34.5727,0,66.5044,16.9765,86.0947,44.5805
				c19.188-27.9223,49.897-44.5805,84.0845-44.5805c55.4082,0,99.6474,43.6924,105.333,103.9648
				c0.5587,3.4624,2.1552,17.3174-3.2618,39.7217c-7.9746,32.6016-26.3584,62.2441-53.1738,85.7432L414.3848,742.6914
				C412.2295,744.5791,409.5371,745.5283,406.8457,745.5283L406.8457,745.5283z M237.8506,511.0449
				c0,0-1.8145,11.0235,2.9316,30.6309c6.8135,27.8438,22.7119,53.4199,45.9707,73.9482l120.0259,103.3223l117.8423-103.3447
				c23.2637-20.3829,39.1797-45.959,46.0264-73.9483c4.7469-19.5908,2.915-30.6137,2.8925-30.7256
				c-4.5459-49.5112-39.292-84.6816-82.7382-84.6816c-32.0157,0-60.1665,18.9922-73.4688,49.5615
				c-1.8144,4.1768-5.439,6.6343-10.4873,6.874c-4.5342,0-8.6387-2.6748-10.4648-6.8242
				c-13.2745-30.1387-43.0113-49.6113-75.7583-49.6113c-43.3628,0-78.1031,35.1816-82.6099,83.6543
				C237.9795,510.2803,237.9233,510.665,237.8506,511.0449L237.8506,511.0449L237.8506,511.0449z"/>
		</g>
		<g>
			<path fill="#FFFFFF" d="M273.9595,524.7656c-0.0171,0-0.0391,0-0.0562,0c-6.3213-0.0332-11.414-5.1767-11.3808-11.4922
				c0.084-16.206,13.838-37.9741,31.9991-50.6338c15.0386-10.4765,31.2666-13.3632,45.7305-8.1084
				c5.936,2.1553,9.0019,8.7168,6.8466,14.6534c-2.1562,5.936-8.684,9.0298-14.6538,6.8466
				c-9.3091-3.373-18.646,1.0552-24.8393,5.3721c-13.71,9.5547-22.1758,25.0684-22.209,31.9815
				C285.3628,519.6836,280.2476,524.7656,273.9595,524.7656L273.9595,524.7656z"/>
		</g>
	</g>
</g>
</svg>
