<?xml version="1.0" encoding="utf-8"?>
<!-- Generator: Adobe Illustrator 17.1.0, SVG Export Plug-In . SVG Version: 6.00 Build 0)  -->
<!DOCTYPE svg PUBLIC "-//W3C//DTD SVG 1.1//EN" "http://www.w3.org/Graphics/SVG/1.1/DTD/svg11.dtd">
<svg version="1.1" id="heart-bag" xmlns="http://www.w3.org/2000/svg" xmlns:xlink="http://www.w3.org/1999/xlink" x="0px" y="0px"
	 viewBox="0 0 1023.9942 1023.9942" enable-background="new 0 0 1023.9942 1023.9942" xml:space="preserve">
<rect x="0" y="0" fill="#FF5551" width="1023.9942" height="1023.9942"/>
<g id="heart-bag-heart-bag">
	<g>
		<path fill="#FFFFFF" d="M698.5469,809.3526H325.4414c-23.8564,0-43.2617-19.4112-43.2617-43.2686V383.0557
			c0-23.8565,19.4053-43.2676,43.2617-43.2676h373.1055c23.8565,0,43.2559,19.4111,43.2559,43.2676V766.084
			C741.8028,789.9414,722.4034,809.3526,698.5469,809.3526L698.5469,809.3526z M325.4414,362.6617
			c-11.2412,0-20.3886,9.1474-20.3886,20.394V766.084c0,11.2471,9.1474,20.3945,20.3886,20.3945h373.1055
			c11.2354,0,20.3828-9.1474,20.3828-20.3945V383.0557c0-11.2466-9.1474-20.394-20.3828-20.394H325.4414L325.4414,362.6617z"/>
	</g>
	<g>
		<path fill="#FFFFFF" d="M611.2627,411.2237c-6.3213,0-11.4365-5.1211-11.4365-11.4366v-98.1904
			c0-35.333-39.4043-64.081-87.8433-64.081c-48.4223,0-87.8149,28.748-87.8149,64.081v98.1904
			c0,6.3155-5.1206,11.4366-11.4365,11.4366c-6.3159,0-11.4365-5.1211-11.4365-11.4366v-98.1904
			c0-47.9482,49.6562-86.9551,110.6879-86.9551c61.0484,0,110.7163,39.0069,110.7163,86.9551v98.1904
			C622.6992,406.1026,617.584,411.2237,611.2627,411.2237L611.2627,411.2237z"/>
	</g>
	<g>
		<path fill="#FFFFFF" d="M434.5996,411.2237h-45.8808c-6.3164,0-11.437-5.1211-11.437-11.4366
			c0-6.3164,5.1206-11.4375,11.437-11.4375h45.8808c6.3164,0,11.4375,5.1211,11.4375,11.4375
			C446.0371,406.1026,440.916,411.2237,434.5996,411.2237L434.5996,411.2237z"/>
	</g>
	<g>
		<path fill="#FFFFFF" d="M635.253,411.2237h-45.8594c-6.3214,0-11.4365-5.1211-11.4365-11.4366
			c0-6.3164,5.1152-11.4375,11.4365-11.4375h45.8594c6.3212,0,11.4365,5.1211,11.4365,11.4375
			C646.6895,406.1026,641.5742,411.2237,635.253,411.2237L635.253,411.2237z"/>
	</g>
	<g>
		<g>
			<path fill="#FFFFFF" d="M512.8936,747.8565c-2.6582,0-5.3164-0.9268-7.461-2.7697l-100.871-86.8486
				c-21.6456-19.0879-36.4048-42.9219-42.7823-69.0342c-4.3222-17.8925-3.1103-29.1953-2.6357-32.2441
				c4.7412-48.8584,40.688-84.2686,85.6255-84.2686c26.9614,0,51.9463,12.6988,67.9902,33.545
				c15.686-21.0752,39.7661-33.545,66.4712-33.545c45.0322,0,80.9736,35.4102,85.6084,84.2686
				c0.4805,3.0938,1.6865,14.3965-2.624,32.2217c-6.4219,26.247-21.21,50.0918-42.7657,68.9902l-99.0175,86.8477
				C518.2764,746.9073,515.585,747.8565,512.8936,747.8565L512.8936,747.8565z M381.7159,560.6348
				c0.0053,0-1.2901,8.3428,2.2895,23.1748c5.2549,21.5107,17.563,41.3018,35.5781,57.1846l93.2427,80.2695l91.5449-80.292
				c18.0156-15.7822,30.335-35.5615,35.6172-57.1963c3.5967-14.8535,2.2676-23.1972,2.2559-23.2861
				c-3.0371-32.7803-25.5537-64.9243-63.0137-64.9243c-24.3262,0-45.7256,14.4526-55.8495,37.7173
				c-1.8096,4.165-5.9199,6.8681-10.46,6.8798c-4.6289-0.0449-8.6552-2.6699-10.4931-6.8242
				c-10.1016-22.9463-32.7354-37.7729-57.6587-37.7729c-37.3765,0-59.9263,32.1655-62.8911,63.9301
				C381.8443,559.875,381.7881,560.2539,381.7159,560.6348L381.7159,560.6348L381.7159,560.6348z"/>
		</g>
		<g>
			<path fill="#FFFFFF" d="M413.357,581.6201c-0.0171,0-0.0337,0-0.0562,0c-6.3154-0.0331-11.4087-5.1709-11.3808-11.4921
				c0.0615-13.503,11.3588-31.5411,26.2802-41.962c12.543-8.7441,26.1573-11.1406,38.3428-6.7343
				c5.936,2.1562,9.0127,8.7119,6.8633,14.6425c-2.1558,5.9307-8.7285,9.0245-14.6485,6.8692
				c-6.3828-2.3233-13.0283,0.8926-17.4619,3.9863c-9.8901,6.8916-16.4795,18.5967-16.5019,23.3096
				C424.7657,576.5391,419.6504,581.6201,413.357,581.6201L413.357,581.6201z"/>
		</g>
	</g>
</g>
</svg>
