<?xml version="1.0" encoding="utf-8"?>
<!-- Generator: Adobe Illustrator 17.1.0, SVG Export Plug-In . SVG Version: 6.00 Build 0)  -->
<!DOCTYPE svg PUBLIC "-//W3C//DTD SVG 1.1//EN" "http://www.w3.org/Graphics/SVG/1.1/DTD/svg11.dtd">
<svg version="1.1" id="lab-tube-hearts" xmlns="http://www.w3.org/2000/svg" xmlns:xlink="http://www.w3.org/1999/xlink" x="0px"
	 y="0px" viewBox="0 0 1024 1023.9942" enable-background="new 0 0 1024 1023.9942" xml:space="preserve">
<rect y="0" fill="#FF5551" width="1024" height="1023.9942"/>
<g id="lab-tube-hearts-lab-tube-hearts">
	<g>
		<path fill="#FFFFFF" d="M512,803.6338c-114.0947,0-206.9131-92.8242-206.9131-206.9131
			c0-95.6328,67.9732-183.2353,158.8428-205.7402v-96.0801c-17.9649-2.7637-31.7642-18.3276-31.7642-37.0522
			c0-20.6734,16.8145-37.4878,37.4824-37.4878h84.7037c20.6738,0,37.4824,16.8144,37.4824,37.4878
			c0,18.7246-13.8037,34.2885-31.7637,37.0522v96.0801c90.8692,22.5107,158.8428,110.1133,158.8428,205.7402
			C718.9131,710.8096,626.0898,803.6338,512,803.6338L512,803.6338z M469.6479,231.7969c-14.3627,0-26.0454,11.6885-26.0454,26.0513
			c0,14.3628,11.6827,26.0512,26.0454,26.0512h5.7183v116.1944l-4.4785,1c-87.999,19.5566-154.3643,103.6572-154.3643,195.6269
			c0,107.7901,87.6924,195.4766,195.4766,195.4766c107.79,0,195.4766-87.6865,195.4766-195.4766
			c0-91.9638-66.3653-176.0703-154.3643-195.6269l-4.4785-1V283.8994h5.7178c14.3632,0,26.046-11.6884,26.046-26.0512
			c0-14.3628-11.6827-26.0513-26.046-26.0513H469.6479L469.6479,231.7969z"/>
	</g>
	<g>
		<path fill="#FFFFFF" d="M512,803.6338c-114.0947,0-206.9131-92.8242-206.9131-206.9131h11.4365
			c0,107.7901,87.6924,195.4766,195.4766,195.4766c107.79,0,195.4766-87.6865,195.4766-195.4766h11.4365
			C718.9131,710.8096,626.0898,803.6338,512,803.6338L512,803.6338z"/>
	</g>
	<g>
		<polygon fill="#FFFFFF" points="554.3516,301.0547 469.6479,301.0547 469.6479,278.1807 554.3516,278.1807 554.3516,301.0547 		
			"/>
	</g>
	<g>
		<path fill="#FFFFFF" d="M512,809.3526c-117.2441,0-212.6318-95.3819-212.6318-212.6319
			c0-96.6772,67.6665-185.3632,158.8427-210.1631v-87.0385c-18.289-5.0259-31.7636-21.8072-31.7636-41.6709
			c0-23.8228,19.3779-43.2066,43.2006-43.2066h84.7037c23.8232,0,43.2011,19.3838,43.2011,43.2066
			c0,19.8637-13.4687,36.645-31.7636,41.6709v87.0385c91.171,24.7999,158.8427,113.4913,158.8427,210.1631
			C724.6318,713.9707,629.25,809.3526,512,809.3526L512,809.3526z M469.6479,237.5157c-11.208,0-20.3271,9.1191-20.3271,20.3325
			c0,11.2134,9.1191,20.3325,20.3271,20.3325c6.316,0,11.4371,5.1211,11.4371,11.437v105.8916
			c0,5.3608-3.7251,10.0015-8.9576,11.1631c-85.4467,18.9927-149.8852,100.6977-149.8852,190.0483
			c0,104.6289,85.123,189.7578,189.7578,189.7578c104.6289,0,189.7578-85.1288,189.7578-189.7578
			c0-89.3506-64.4326-171.0556-149.8848-190.0483c-5.2382-1.1616-8.958-5.8023-8.958-11.1631V289.6177
			c0-6.3159,5.1153-11.437,11.4366-11.437c11.2138,0,20.3281-9.1191,20.3281-20.3325c0-11.2134-9.1143-20.3325-20.3281-20.3325
			H469.6479L469.6479,237.5157z"/>
	</g>
	<g>
		<path fill="#FFFFFF" d="M378.5664,593.3477c-6.3159,0-11.4365-5.1152-11.4365-11.4365
			c0-71.7149,58.334-130.0557,130.0381-130.0557c6.3159,0,11.4365,5.1211,11.4365,11.437c0,6.3159-5.1206,11.437-11.4365,11.437
			c-59.0889,0-107.1651,48.0811-107.1651,107.1817C390.0029,588.2325,384.8823,593.3477,378.5664,593.3477L378.5664,593.3477z"/>
	</g>
	<g>
		<path fill="#FFFFFF" d="M472.6299,720.9844c-2.6582,0-5.3164-0.9268-7.461-2.7695l-47.8022-41.168
			c-11.2412-9.8955-18.8862-22.2598-22.2036-35.8408c-2.5293-10.4766-1.4854-17.0107-1.251-18.2158
			c2.251-24.8516,22.2822-44.4522,46.4287-44.4522c12.1797,0,23.6167,4.7578,32.1441,12.8545
			c8.3208-8.1641,19.4448-12.8545,31.5742-12.8545c24.0688,0,44.0268,19.4229,46.5737,45.2334
			c0.3125,2.2559,0.8047,8.3652-1.3848,17.4004c-3.3281,13.6709-11.0019,26.0352-22.1699,35.8184l-46.9033,41.1572
			C478.0137,720.0352,475.3218,720.9844,472.6299,720.9844L472.6299,720.9844z M440.3408,601.4121
			c-14.123,0-22.6723,12.4864-23.8174,24.8282c-0.1059,0.8144-0.4912,3.9423,0.8711,9.5713
			c2.1949,8.9794,7.377,17.2783,14.9888,23.9794l40.1743,34.6006l39.4483-34.6123c7.6219-6.6679,12.8163-14.9658,15.0156-24.0019
			c1.3515-5.5948,0.9726-8.7227,0.9726-8.7559c-1.2402-13.123-9.7841-25.6094-23.935-25.6094
			c-9.2368,0-17.0606,5.3271-20.9419,14.251c-1.8091,4.166-5.9136,6.8682-10.459,6.8799c-0.0117,0-0.0171,0-0.0283,0
			c-4.5342,0-8.6445-2.6807-10.4707-6.8359C458.3398,607.0293,449.7729,601.4121,440.3408,601.4121L440.3408,601.4121z"/>
	</g>
	<g>
		<path fill="#FFFFFF" d="M559.4785,661.1875c-2.6582,0-5.3164-0.9277-7.4609-2.7705l-15.793-13.6035
			c-4.791-4.1211-5.3271-11.3477-1.206-16.1279c4.1435-4.8028,11.3476-5.3164,16.1279-1.2061l8.2656,7.1143l34.3887-30.1447
			c6.5449-5.7402,11.0342-12.9111,12.9775-20.7519c1.128-4.6797,0.8271-7.3379,0.8271-7.3594
			c-1.0616-11.1465-8.2325-21.7012-20.0596-21.7012c-7.7402,0-14.3184,4.4786-17.5908,11.9727
			c-1.8096,4.166-5.9307,6.8574-10.4766,6.8574l0,0c-4.5566,0-8.6671-2.7021-10.4873-6.8681
			c-3.1611-7.2715-10.331-11.962-18.2607-11.962c-11.8555,0-19.0323,10.5547-19.9981,20.9747
			c-0.0337,0.3798-0.0893,0.7597-0.1562,1.1289c0-0.0118,0-0.0118,0-0.0118c0.0278,0-0.168,2.5577,0.9267,6.9473
			c1.5303,6.1309-2.2002,12.3418-8.332,13.8711c-6.126,1.4746-12.3359-2.2109-13.8604-8.332
			c-2.0605-8.2539-1.6528-13.8262-1.3125-16.1162c2.3682-23.5996,20.6739-41.336,42.7325-41.336
			c10.789,0,20.9297,4.043,28.6367,10.9903c7.5498-6.9913,17.4453-10.9903,28.1787-10.9903c22.1699,0,40.542,17.9483,42.7432,41.749
			c0.1445,0.4688,0.9492,6.3106-1.2852,15.6036c-3.0937,12.4863-10.0518,23.6992-20.126,32.5341l-41.8603,36.7002
			C564.8613,660.2373,562.1699,661.1875,559.4785,661.1875L559.4785,661.1875z"/>
	</g>
</g>
</svg>
