<?xml version="1.0" encoding="utf-8"?>
<!-- Generator: Adobe Illustrator 17.1.0, SVG Export Plug-In . SVG Version: 6.00 Build 0)  -->
<!DOCTYPE svg PUBLIC "-//W3C//DTD SVG 1.1//EN" "http://www.w3.org/Graphics/SVG/1.1/DTD/svg11.dtd">
<svg version="1.1" id="letter-heart-ribbon" xmlns="http://www.w3.org/2000/svg" xmlns:xlink="http://www.w3.org/1999/xlink"
	 x="0px" y="0px" viewBox="0 0 1024 1024" enable-background="new 0 0 1024 1024" xml:space="preserve">
<rect fill="#FF5551" width="1024" height="1024"/>
<g id="letter-heart-ribbon-letter-heart-ribbon">
	<g>
		<path fill="#FFFFFF" d="M715.1045,809.3584h-406.209c-23.3037,0-42.2627-19.1211-42.2627-42.6318V257.2734
			c0-23.5048,18.959-42.6318,42.2627-42.6318h406.209c23.3096,0,42.2627,19.127,42.2627,42.6318v509.4532
			C757.3672,790.2373,738.4141,809.3584,715.1045,809.3584L715.1045,809.3584z M308.8955,237.5156
			c-10.6885,0-19.3892,8.8623-19.3892,19.7578v509.4532c0,10.8896,8.7007,19.7578,19.3892,19.7578h406.209
			c10.6885,0,19.3896-8.8682,19.3896-19.7578V257.2734c0-10.8955-8.701-19.7578-19.3896-19.7578H308.8955L308.8955,237.5156z"/>
	</g>
	<g>
		<path fill="#FFFFFF" d="M661.0361,701.0762H362.9639c-6.3164,0-11.4375-5.1153-11.4375-11.4366
			c0-6.3212,5.1211-11.4365,11.4375-11.4365h298.0722c6.3213,0,11.4375,5.1153,11.4375,11.4365
			C672.4736,695.9609,667.3574,701.0762,661.0361,701.0762L661.0361,701.0762z"/>
	</g>
	<g>
		<path fill="#FFFFFF" d="M614.5293,749.3037H419.2207c-6.3159,0-11.4365-5.1152-11.4365-11.4365
			c0-6.3223,5.1206-11.4375,11.4365-11.4375h195.3086c6.3223,0,11.4375,5.1152,11.4375,11.4375
			C625.9668,744.1885,620.8516,749.3037,614.5293,749.3037L614.5293,749.3037z"/>
	</g>
	<g>
		<path fill="#FFFFFF" d="M493.1133,632.3994c-3.0156,0-5.9527-1.1943-8.1309-3.3955l-43.7646-44.25l-66.3926,22.3711
			c-4.5234,1.5635-9.5332,0.0889-12.543-3.6416c-3.0097-3.7188-3.3838-8.9131-0.9433-13.0225l73.1552-123.3427
			c3.2222-5.4278,10.2364-7.2315,15.67-3.9981c5.4336,3.2217,7.2207,10.2359,3.998,15.6695l-57.4184,96.8168l43.9321-14.8095
			c4.1269-1.4081,8.7119-0.3242,11.7832,2.7921l34.4394,34.8242l19.4615-78.8682c1.5073-6.1318,7.729-9.8735,13.8432-8.3603
			c6.127,1.5136,9.8789,7.706,8.3604,13.8379l-24.3482,98.6767c-0.9887,4.0205-4.0708,7.1924-8.0639,8.2871
			C495.1519,632.2656,494.1299,632.3994,493.1133,632.3994L493.1133,632.3994z"/>
	</g>
	<g>
		<path fill="#FFFFFF" d="M541.8428,632.3994c-1.0166,0-2.0323-0.1338-3.0381-0.4131c-3.9863-1.0947-7.0693-4.2666-8.0635-8.2763
			l-24.3813-98.6758c-1.5191-6.1377,2.228-12.336,8.3598-13.8496c6.1035-1.5576,12.3253,2.2168,13.8438,8.3603l19.4892,78.8682
			l34.4219-34.8242c3.0606-3.1162,7.6738-4.1768,11.7832-2.7921l43.916,14.8095l-57.4072-96.8168
			c-3.2168-5.4336-1.4297-12.4532,4.0088-15.6753c5.4287-3.2276,12.4316-1.4356,15.6699,4.0039l73.1338,123.3427
			c2.4346,4.1094,2.0547,9.3037-0.9492,13.0225c-3.0049,3.7197-8.0195,5.2051-12.543,3.6416l-66.3642-22.3711l-43.7491,44.25
			C547.7959,631.2051,544.8584,632.3994,541.8428,632.3994L541.8428,632.3994z"/>
	</g>
	<g>
		<path fill="#FFFFFF" d="M516.9707,538.6934c-2.6816,0-5.356-0.9385-7.5117-2.8145l-89.1719-77.6396
			c-19.333-17.2725-32.5117-38.795-38.2139-62.3501c-4.311-18.0542-2.4628-28.7935-2.2392-29.9605
			c3.9482-43.3965,36.3545-75.7075,76.9028-75.7075c23.6665,0,45.6358,10.979,60.0933,29.0893
			c14.123-18.3056,35.3222-29.0893,58.7763-29.0893c40.5088,0,72.8428,32.1216,77.0088,76.439
			c0.4473,2.9209,1.4961,13.1904-2.3339,29.2011c-5.7188,23.6553-18.92,45.1944-38.1758,62.2998l-87.5518,77.6504
			C522.3926,537.7324,519.6836,538.6934,516.9707,538.6934L516.9707,538.6934z M456.7368,313.0947
			c-32.2446,0-51.7173,28.2012-54.2856,56.0567c-0.1397,1.0215-1.2569,8.3369,1.8593,21.3877
			c4.6016,18.9873,15.357,36.4775,31.105,50.5449l81.4878,70.9492l80.0244-70.9775c15.7364-13.9888,26.5039-31.4678,31.1162-50.544
			c3.1163-13.0117,1.9766-20.3164,1.9659-20.3887c-2.6357-28.8378-22.0811-57.0283-54.4034-57.0283
			c-21.2656,0-39.2587,12.3194-48.1259,32.9536c-1.8096,4.1885-5.9258,6.9078-10.4825,6.9195c-0.0117,0-0.0224,0-0.0273,0
			c-4.5518,0-8.6728-2.6973-10.4883-6.875C497.7598,326.0508,478.2314,313.0947,456.7368,313.0947L456.7368,313.0947z"/>
	</g>
	<g>
		<path fill="#FFFFFF" d="M428.96,390.0366c-0.0225,0-0.045,0-0.0669,0c-6.316-0.0337-11.4034-5.1821-11.3697-11.498
			c0.0723-12.5762,10.4317-29.2178,24.1075-38.7115c11.3754-7.9013,23.7617-10.0014,34.8579-5.9306
			c5.9306,2.1782,8.9741,8.7451,6.8017,14.6758c-2.1665,5.9306-8.728,8.9799-14.6758,6.8017
			c-4.9926-1.8203-10.3422,0.7539-13.9384,3.2451c-8.8238,6.1202-14.2574,16.4571-14.2798,20.0479
			C440.3633,384.9604,435.248,390.0366,428.96,390.0366L428.96,390.0366z"/>
	</g>
</g>
</svg>
