<?xml version="1.0" encoding="utf-8"?>
<!-- Generator: Adobe Illustrator 17.1.0, SVG Export Plug-In . SVG Version: 6.00 Build 0)  -->
<!DOCTYPE svg PUBLIC "-//W3C//DTD SVG 1.1//EN" "http://www.w3.org/Graphics/SVG/1.1/DTD/svg11.dtd">
<svg version="1.1" id="lips" xmlns="http://www.w3.org/2000/svg" xmlns:xlink="http://www.w3.org/1999/xlink" x="0px" y="0px"
	 viewBox="0 0 1024 1024" enable-background="new 0 0 1024 1024" xml:space="preserve">
<rect fill="#FF5551" width="1024" height="1024"/>
<g id="lips-lips">
	<g>
		<path fill="#FFFFFF" d="M499.5801,510.8496c-12.6094,0-39.3755-2.8818-76.9248-22.1982c-0.3907-0.2007-0.7705-0.4239-1.1338-0.67
			c0,0.0059,0,0.0059,0,0.0059c-0.0391,0-6.9248-3.7305-22.6392-3.7305c-16.3901,0-36.0752,3.8921-58.5073,11.5708
			c-1.8433,0.5752-38.248,11.7661-72.6646,11.7661c-20.9975,0-37.3091-4.2441-48.4839-12.6035
			c-3.3169-2.4853-5.0313-6.562-4.4844-10.6665c0.5478-4.1045,3.2671-7.5947,7.1147-9.125
			c0.4693-0.1841,50.1148-20.601,131.334-92.9131c1.0498-1.0278,34.3833-32.7524,80.0855-32.7524
			c26.2749,0,51.0083,10.3867,73.519,30.8701c0.8657,0.7881,1.6079,1.7036,2.1948,2.7144l0,0c0.0616,0,1.5298,1.5805,5.0479,1.5805
			c3.0771,0,9.9131-1.2456,21.1377-9.5888c0.5351-0.4971,27.5859-23.1358,67.8281-23.1358c24.169,0,47.8467,8.1084,70.3633,24.0909
			c0.4238,0.3017,0.8144,0.6254,1.1943,0.9829c24.1143,22.5942,93.7061,82.7661,125.794,89.769
			c4.3564,0.9492,7.7627,4.3394,8.7236,8.6841c0.9717,4.3442-0.6709,8.8569-4.2002,11.5708
			c-1.6973,1.3008-17.6465,12.7158-53.9219,12.7158c-19.5234,0-41.582-3.3008-65.5615-9.8232
			c-0.3682-0.1006-0.748-0.2237-1.1055-0.3628c-0.2343-0.0894-22.9404-8.6895-48.8408-8.6895
			c-16.5635,0-30.6816,3.4737-41.9395,10.3257c-1.4405,0.8545-33.1934,19.3833-78.3487,19.3833c-0.0058,0-0.0058,0-0.0117,0
			c-2.5854,0-5.2046-0.061-7.8681-0.1899C505.7344,510.6206,503.1431,510.8496,499.5801,510.8496L499.5801,510.8496z
			 M433.5112,468.5146c33.0484,16.9258,55.565,19.461,66.0689,19.461c3.0322,0,4.8086-0.2178,5.2329-0.2901
			c0.8149-0.123,1.7983-0.1953,2.5913-0.1508c43.0605,2.3735,74.0322-15.7368,74.334-15.9043
			c14.7763-8.9966,32.8916-13.5923,53.7109-13.5923c28.123,0,52.2578,8.438,56.4688,9.9961
			c21.8124,5.8916,41.6708,8.8789,59.0389,8.8789c5.2041,0,9.8506-0.2735,13.9611-0.7202
			c-43.0674-24.4263-96.0635-73.1783-105.4121-81.9121c-18.3829-12.8941-37.3926-19.4336-56.502-19.4336
			c-31.5527,0-53.4101,17.9926-53.6221,18.1772c-13.1455,9.8008-24.8505,14.5474-35.3437,14.5474
			c-13.3745,0-20.69-7.3604-23.5156-11.0406c-17.9204-16.0102-37.17-24.1245-57.2461-24.1245
			c-36.2647,0-64.2705,26.3975-64.5498,26.6656C317.2158,444.937,278.1084,470.6587,254.7939,484
			c3.9648,0.4746,8.2759,0.7202,12.9165,0.7202c30.8765,0,65.2314-10.5322,65.5717-10.6382
			c24.5103-8.3935,46.6856-12.6992,65.6001-12.6992C419.6563,461.3828,430.3057,466.5986,433.5112,468.5146L433.5112,468.5146z"/>
	</g>
	<g>
		<path fill="#FFFFFF" d="M515.3838,674.6289c-41.313,0-99.9043-7.9863-161.478-42.1514
			c-3.7417-2.412-75.1773-49.8457-117.2056-127.6142c-2.999-5.5625-0.9326-12.4981,4.624-15.5025
			c5.5567-2.9985,12.4922-0.9326,15.502,4.6236c39.3032,72.7422,108.209,118.4785,108.9013,118.9365
			c104.8584,58.1338,202.708,33.5293,203.6914,33.2725c147.0928-28.168,191.1319-161.5235,191.5557-162.8692
			c1.9209-6.0146,8.3096-9.3262,14.375-7.4326c6.0078,1.915,9.3369,8.3486,7.4268,14.3682
			c-1.9209,6.0146-48.7295,147.7021-208.3203,178.2373C572.8145,668.9326,550.2422,674.6289,515.3838,674.6289L515.3838,674.6289z"
			/>
	</g>
	<g>
		<path fill="#FFFFFF" d="M517.7578,614.9434c-26.3418,0-57.4971-4.1446-90.769-17.0108
			c-5.8916-2.2783-8.8179-8.9014-6.5396-14.7871c2.2783-5.8975,8.9185-8.8125,14.793-6.5449
			c82.6494,31.9424,152.5605,3.9424,153.2529,3.6631c5.8633-2.4014,12.5204,0.3691,14.9326,6.1992
			c2.4121,5.8301-0.3349,12.4971-6.1543,14.9209C595.252,602.2324,563.8906,614.9434,517.7578,614.9434L517.7578,614.9434z"/>
	</g>
</g>
</svg>
