<?xml version="1.0" encoding="utf-8"?>
<!-- Generator: Adobe Illustrator 17.1.0, SVG Export Plug-In . SVG Version: 6.00 Build 0)  -->
<!DOCTYPE svg PUBLIC "-//W3C//DTD SVG 1.1//EN" "http://www.w3.org/Graphics/SVG/1.1/DTD/svg11.dtd">
<svg version="1.1" id="love-food" xmlns="http://www.w3.org/2000/svg" xmlns:xlink="http://www.w3.org/1999/xlink" x="0px" y="0px"
	 viewBox="0 0 1024 1024" enable-background="new 0 0 1024 1024" xml:space="preserve">
<rect fill="#FF5551" width="1024" height="1024"/>
<g id="love-food-love-food">
	<g>
		<path fill="#FFFFFF" d="M507.8789,790.3936c-146.0825,0-264.6445-154.4649-264.6445-255.2627
			c0-6.3223,5.1206-11.4375,11.4365-11.4375h506.415c6.3223,0,11.4375,5.1152,11.4375,11.4375
			C772.5234,635.9287,653.9668,790.3936,507.8789,790.3936L507.8789,790.3936z M266.6719,546.5674
			c8.667,89.831,115.5302,220.9521,241.207,220.9521c125.6709,0,232.5342-131.1212,241.2012-220.9521H266.6719L266.6719,546.5674z"
			/>
	</g>
	<g>
		<path fill="#FFFFFF" d="M592.2705,799.7754H404.7129c-6.3164,0-11.4375-5.1152-11.4375-11.4375
			c0-6.3213,5.1211-11.4365,11.4375-11.4365h187.5576c6.3213,0,11.4365,5.1152,11.4365,11.4365
			C603.707,794.6602,598.5918,799.7754,592.2705,799.7754L592.2705,799.7754z"/>
	</g>
	<g>
		<path fill="#FFFFFF" d="M515.3838,499.4238c-2.937,0-5.8745-1.1279-8.1138-3.373c-4.4507-4.4844-4.4282-11.7271,0.0503-16.1778
			l253.9453-252.3256c4.4785-4.4507,11.7158-4.4341,16.1719,0.0503c4.457,4.4843,4.4336,11.7275-0.0449,16.1777L523.4482,496.1016
			C521.2148,498.3184,518.2988,499.4238,515.3838,499.4238L515.3838,499.4238z"/>
	</g>
	<g>
		<path fill="#FFFFFF" d="M443.7813,436.5322c-2.0889,0-4.2051-0.5693-6.0987-1.77c-5.3384-3.373-6.9297-10.437-3.5571-15.7759
			l107.5952-170.1787c3.3838-5.3335,10.4424-6.9306,15.7813-3.5576c5.3378,3.373,6.9355,10.4375,3.5625,15.7759L453.459,431.2051
			C451.2808,434.6504,447.5728,436.5322,443.7813,436.5322L443.7813,436.5322z"/>
	</g>
	<g>
		<path fill="#FFFFFF" d="M528.8652,482.0449c-2.6582,0-5.3164-0.9209-7.4609-2.7695l-35.5728-30.6358
			c-8.8403-7.7626-14.8432-17.4902-17.4565-28.207c-1.7314-7.0752-1.4023-11.956-1.0947-14.0615
			c2.1054-20.6733,18.1826-36.2149,37.5381-36.2149c8.8847,0,17.2841,3.1441,23.9013,8.5777
			c6.4776-5.478,14.6866-8.5777,23.5547-8.5777c19.4229,0,35.4951,15.5528,37.5498,36.2427
			c0.2901,2.0943,0.6143,6.9414-1.0722,13.9947c-2.6465,10.7607-8.6563,20.478-17.4005,28.1621l-34.9473,30.6528
			C534.248,481.0957,531.5566,482.0449,528.8652,482.0449L528.8652,482.0449z M489.8633,409.9844
			c0.0337,0-0.0391,1.8652,0.7314,5.0146c1.4971,6.1485,5.0371,11.8057,10.2476,16.3789l27.9556,24.0801l27.4638-24.0854
			c5.1934-4.5738,8.7451-10.2417,10.2646-16.3794c0.8261-3.4844,0.6357-5.4278,0.6357-5.4444
			c-0.793-8.561-6.1084-16.5185-14.8877-16.5185c-5.6738,0-10.498,3.3169-12.9326,8.8676
			c-1.8096,4.1607-5.9199,6.8462-10.4551,6.858c-0.0107,0-0.0107,0-0.0215,0c-4.5234,0-8.6279-2.67-10.4599-6.8135
			c-2.3955-5.4165-7.7285-8.9121-13.5869-8.9121c-8.7452,0-14.0669,7.9741-14.8042,15.8481
			c-0.0337,0.3745-0.0894,0.7486-0.1617,1.1167C489.8579,409.9897,489.8579,409.9844,489.8633,409.9844L489.8633,409.9844z"/>
	</g>
</g>
</svg>
