<?xml version="1.0" encoding="utf-8"?>
<!-- Generator: Adobe Illustrator 17.1.0, SVG Export Plug-In . SVG Version: 6.00 Build 0)  -->
<!DOCTYPE svg PUBLIC "-//W3C//DTD SVG 1.1//EN" "http://www.w3.org/Graphics/SVG/1.1/DTD/svg11.dtd">
<svg version="1.1" id="love-bear" xmlns="http://www.w3.org/2000/svg" xmlns:xlink="http://www.w3.org/1999/xlink" x="0px" y="0px"
	 viewBox="0 0 1024 1024" enable-background="new 0 0 1024 1024" xml:space="preserve">
<rect fill="#FF5551" width="1024" height="1024"/>
<g id="love-bear-love-bear">
	<path fill="#FFFFFF" d="M471.1558,317.9756c0,5.6406-4.5679,10.2197-10.2193,10.2197c-5.6181,0-10.1972-4.5791-10.1972-10.2197
		c0-5.6289,4.5791-10.208,10.1972-10.208C466.5879,307.7676,471.1558,312.3467,471.1558,317.9756"/>
	<path fill="#FFFFFF" d="M573.2607,317.9756c0,5.6406-4.5566,10.2197-10.1972,10.2197c-5.6289,0-10.2197-4.5791-10.2197-10.2197
		c0-5.6289,4.5908-10.208,10.2197-10.208C568.7041,307.7676,573.2607,312.3467,573.2607,317.9756"/>
	<g>
		<path fill="#FFFFFF" d="M429.8867,543.876c-11.7046,0-21.2314-9.5381-21.2314-21.2656v-61.272
			c0-11.7105,9.5268-21.2378,21.2314-21.2378c2.2788,0,4.5401,0.3691,6.7237,1.0947l2.3681,1.1055l53.8223,33.0713v33.2046
			l-56.1904,34.1928C434.4268,543.5068,432.1655,543.876,429.8867,543.876L429.8867,543.876z M431.5288,464.5718v54.8276
			l38.3984-23.6108v-7.6284L431.5288,464.5718L431.5288,464.5718z"/>
	</g>
	<g>
		<path fill="#FFFFFF" d="M594.1133,543.876L594.1133,543.876c-2.2793,0-4.5459-0.3691-6.7237-1.1064l-2.3681-1.1054
			l-53.8223-33.0874v-33.2046l56.1904-34.1768c2.1778-0.7256,4.4444-1.0947,6.7237-1.0947c11.7051,0,21.2207,9.5273,21.2207,21.2378
			v61.272c0,5.7744-2.2676,11.1689-6.3887,15.1894C604.9473,541.7207,599.6748,543.876,594.1133,543.876L594.1133,543.876z
			 M554.0723,495.7886l38.3878,23.605v-54.8165l-38.3878,23.5831V495.7886L554.0723,495.7886z"/>
	</g>
	<g>
		<path fill="#FFFFFF" d="M512,534.0469c-23.1973,0-42.0728-18.875-42.0728-42.0723c0-23.1977,18.8755-42.0732,42.0728-42.0732
			c23.1973,0,42.0723,18.8755,42.0723,42.0732C554.0723,515.1719,535.1973,534.0469,512,534.0469L512,534.0469z M512,472.7754
			c-10.5879,0-19.1992,8.6108-19.1992,19.1992c0,10.5879,8.6113,19.1992,19.1992,19.1992c10.5879,0,19.1992-8.6113,19.1992-19.1992
			C531.1992,481.3862,522.5879,472.7754,512,472.7754L512,472.7754z"/>
	</g>
	<g>
		<path fill="#FFFFFF" d="M583.4805,809.3584c-35.6289,0-62.501-29.0615-62.501-67.5938v-44.7314h-17.959v44.7314
			c0,38.5323-26.8721,67.5938-62.501,67.5938c-35.6284,0-62.5005-29.0615-62.5005-67.5938V574.4893h-60.0434
			c-28.8267,0-52.2812-23.4541-52.2812-52.2813c0-28.8262,23.4546-52.2808,52.2812-52.2808h102.1162v22.8736H317.9756
			c-16.2168,0-29.4072,13.1904-29.4072,29.4072c0,16.2178,13.1904,29.4072,29.4072,29.4072h82.917v190.1494
			c0,22.2256,13.6094,44.7198,39.6269,44.7198c26.0176,0,39.627-22.4941,39.627-44.7198v-67.6044h63.707v67.6044
			c0,22.2256,13.6153,44.7198,39.627,44.7198c26.0117,0,39.6269-22.4941,39.6269-44.7198V551.6152h82.9171
			c16.2168,0,29.4072-13.1895,29.4072-29.4072c0-16.2168-13.1904-29.4072-29.4072-29.4072H603.8965v-22.8736h102.1279
			c28.8271,0,52.2812,23.4546,52.2812,52.2808c0,28.8272-23.4541,52.2813-52.2812,52.2813h-60.0439v167.2753
			C645.9805,780.2969,619.1094,809.3584,583.4805,809.3584L583.4805,809.3584z"/>
	</g>
	<g>
		<path fill="#FFFFFF" d="M610.0625,464.4375l-15.5469-16.7642c24.6485-22.8735,38.7891-55.2573,38.7891-88.8422
			c0-66.8956-54.4151-121.3155-121.3047-121.3155s-121.3042,54.4199-121.3042,121.3155c0,33.5849,14.1396,65.9687,38.7944,88.8422
			l-15.5576,16.7642c-29.3017-27.1846-46.1103-65.6777-46.1103-105.6064c0-79.5049,64.6782-144.1895,144.1777-144.1895
			c79.5,0,144.1777,64.6846,144.1777,144.1895C656.1777,398.7598,639.3691,437.2529,610.0625,464.4375L610.0625,464.4375z"/>
	</g>
	<g>
		<path fill="#FFFFFF" d="M392.2314,334.3828l-25.956-19.5566c-11.1524-8.3994-18.3672-20.6514-20.3106-34.4893
			c-1.9379-13.833,1.625-27.5981,10.0352-38.75c9.9736-13.2241,25.1963-20.8022,41.7764-20.8022
			c11.4257,0,22.2988,3.6411,31.4345,10.5376l25.7442,19.3945l-12.8106,9.0415c-20.9804,14.8154-36.4716,35.4663-44.7978,59.7192
			L392.2314,334.3828L392.2314,334.3828z M397.7764,243.6582c-9.3369,0-17.9034,4.2666-23.5157,11.6992
			c-4.7299,6.2774-6.7343,14.0171-5.6401,21.8018c1.0889,7.7846,5.1431,14.6704,11.4204,19.3945l1.4795,1.1113
			c8.4043-17.9926,20.3608-33.9248,35.3047-47.0371l-1.3794-1.039C410.2969,245.708,404.1875,243.6582,397.7764,243.6582
			L397.7764,243.6582z"/>
	</g>
	<g>
		<path fill="#FFFFFF" d="M631.7627,334.377l-5.1152-14.8995c-8.3096-24.2363-23.8008-44.8872-44.7862-59.7246l-12.789-9.041
			l25.7109-19.3779c9.1475-6.897,20.0147-10.544,31.4512-10.544c16.5742,0,31.7978,7.584,41.7715,20.8077
			c17.3564,23.0244,12.7432,55.872-10.2754,73.2226L631.7627,334.377L631.7627,334.377z M607.1807,250.6279
			c14.9434,13.1231,26.9052,29.0557,35.3047,47.043l1.4853-1.1172c12.9443-9.7558,15.5352-28.2344,5.7627-41.1846
			c-9.4707-12.5595-28.5586-15.2793-41.1904-5.7744L607.1807,250.6279L607.1807,250.6279z"/>
	</g>
	<g>
		<path fill="#FFFFFF" d="M583.4805,809.3584c-34.4785,0-60.7079-26.9063-62.3672-63.9756l-0.2344-5.1933l3.7637-3.5958
			c14.5762-13.9169,33.6631-21.5898,53.7334-21.5898c25.6435,0,49.6338,12.6543,64.1758,33.8525l2.748,3.9991l-0.9717,4.7578
			C637.9951,788.5615,613.5469,809.3584,583.4805,809.3584L583.4805,809.3584z M544.4453,749.6611
			c3.0274,21.9356,18.4961,36.8233,39.0352,36.8233c21.0078,0,32.6914-14.0508,37.2148-28.6699
			c-10.3984-12.5654-25.8789-19.9365-42.3193-19.9365C565.9902,737.8779,554.1172,742.0322,544.4453,749.6611L544.4453,749.6611z"/>
	</g>
	<g>
		<path fill="#FFFFFF" d="M706.0244,574.4893h-16.9658l-3.3731-3.5186c-14.0166-14.5859-21.7343-33.7178-21.7343-53.8662
			c0-14.8496,4.2558-29.3408,12.3193-41.9111l3.3731-5.2662h26.3808c28.8271,0,52.2812,23.4546,52.2812,52.2808
			C758.3057,551.0352,734.8516,574.4893,706.0244,574.4893L706.0244,574.4893z M699.0771,551.6152h6.9473
			c16.2168,0,29.4072-13.1895,29.4072-29.4072c0-16.2168-13.1904-29.4072-29.4072-29.4072h-13.4805
			c-3.7529,7.5556-5.7187,15.8545-5.7187,24.3037C686.8252,529.7578,691.1475,541.8428,699.0771,551.6152L699.0771,551.6152z"/>
	</g>
	<g>
		<path fill="#FFFFFF" d="M440.5195,809.3584c-30.0605,0-54.5146-20.7969-60.8476-51.7451l-0.9771-4.7578l2.7476-3.9991
			c14.542-21.1982,38.5381-33.8525,64.1816-33.8525c20.0703,0,39.1577,7.6729,53.7329,21.5898l3.7642,3.5958l-0.2349,5.1933
			C501.2275,782.4521,474.998,809.3584,440.5195,809.3584L440.5195,809.3584z M403.3052,757.8145
			c4.5234,14.6191,16.2114,28.6699,37.2143,28.6699c20.5396,0,36.0083-14.8877,39.0352-36.8233
			c-9.6777-7.6288-21.5391-11.7831-33.9307-11.7831C429.189,737.8779,413.709,745.249,403.3052,757.8145L403.3052,757.8145z"/>
	</g>
	<g>
		<path fill="#FFFFFF" d="M334.9414,574.4893h-16.9658c-28.8267,0-52.2812-23.4541-52.2812-52.2813
			c0-28.8262,23.4546-52.2808,52.2812-52.2808h26.3696l3.3731,5.2496c8.0693,12.5366,12.3305,27.0336,12.3305,41.9277
			c0,20.1484-7.7177,39.2803-21.7295,53.8662L334.9414,574.4893L334.9414,574.4893z M317.9756,492.8008
			c-16.2168,0-29.4072,13.1904-29.4072,29.4072c0,16.2178,13.1904,29.4072,29.4072,29.4072h6.9526
			c7.9302-9.7724,12.2466-21.8574,12.2466-34.5107c0-8.4775-1.96-16.7705-5.707-24.3037H317.9756L317.9756,492.8008z"/>
	</g>
	<g>
		<path fill="#FFFFFF" d="M512.2793,648.4043c-2.6582,0-5.3164-0.9268-7.4609-2.7695l-32.7246-28.1787
			c-8.2759-7.2823-13.8995-16.3956-16.3565-26.4258c-1.625-6.6123-1.3184-11.2246-1.022-13.2794
			c1.9878-19.4893,17.1665-34.1319,35.4497-34.1319c8.1421,0,15.8428,2.7813,21.9913,7.6281
			c6.0253-4.8809,13.5585-7.6281,21.6787-7.6281c18.3954,0,33.663,14.8322,35.5165,34.5c0.0898,0.2129,0.8047,5.2051-1.0938,12.9113
			c-2.458,10.0634-8.0869,19.1766-16.2734,26.3584l-32.166,28.1786C517.6572,647.4551,514.9707,648.4043,512.2793,648.4043
			L512.2793,648.4043z M477.2988,581.3691c0.0391,0,0.0054,1.5752,0.6533,4.211c1.3399,5.4727,4.5064,10.5322,9.1583,14.6201
			l25.1015,21.6221l24.6944-21.6339c4.6347-4.0655,7.7958-9.1133,9.1367-14.6084c0.748-3.0489,0.6133-4.7021,0.6025-4.7245
			c-0.7148-7.4385-5.2939-14.3633-12.8105-14.3633c-4.8467,0-8.9912,2.8594-11.0791,7.6396
			c-1.8204,4.1553-5.9366,6.8467-10.4766,6.8467c-4.5459,0-8.6563-2.6914-10.4766-6.8467
			c-2.0322-4.6454-6.6006-7.6396-11.6377-7.6396c-7.5053,0-12.0791,6.9248-12.7158,13.7598
			c-0.0332,0.3808-0.0893,0.7597-0.1621,1.1289C477.293,581.3691,477.293,581.3691,477.2988,581.3691L477.2988,581.3691z"/>
	</g>
	<g>
		<path fill="#FFFFFF" d="M513.7031,412.0166c-0.0058,0-0.0058,0-0.0058,0c-33.1768-0.0054-55.3521-40.2686-57.7759-44.8594
			c-2.3511-4.4673-1.4966-9.9511,2.1055-13.4917c10.0795-9.9067,39.1245-11.3862,55.5424-11.3862
			c45.5967,0,51.9738,10.124,54.0625,13.4468c2.1778,3.4565,2.3457,7.8183,0.4463,11.4311
			C552.3867,396.9277,534.0918,412.0166,513.7031,412.0166L513.7031,412.0166z M483.2852,367.4702
			c7.455,9.979,18.9531,21.6734,30.4121,21.6734h0.0058c10.6945,0,20.4005-10.3707,27.8828-21.9136
			c-6.042-1.106-15.3339-2.0777-28.0166-2.0777C500.6914,365.1523,490.3047,366.1914,483.2852,367.4702L483.2852,367.4702z"/>
	</g>
	<g>
		<path fill="#FFFFFF" d="M513.6973,448.5332h-0.0049c-32.2002-0.0054-55.4424-27.2686-56.4141-28.4302
			c-4.0595-4.8359-3.4287-12.0512,1.4131-16.1108c4.8193-4.0542,12.0342-3.4346,16.0889,1.3906
			c0.3794,0.4356,17.6299,20.2769,38.917,20.2769c0.039,0,0.0732,0,0.1123,0c12.2296-0.0391,24.1465-6.8579,35.3935-20.2603
			c4.0547-4.8193,11.2578-5.4726,16.1055-1.4072c4.8359,4.0596,5.4727,11.2749,1.4072,16.1162
			C550.8896,438.9673,533.0527,448.5332,513.6973,448.5332L513.6973,448.5332z"/>
	</g>
</g>
</svg>
