<?xml version="1.0" encoding="utf-8"?>
<!-- Generator: Adobe Illustrator 17.1.0, SVG Export Plug-In . SVG Version: 6.00 Build 0)  -->
<!DOCTYPE svg PUBLIC "-//W3C//DTD SVG 1.1//EN" "http://www.w3.org/Graphics/SVG/1.1/DTD/svg11.dtd">
<svg version="1.1" id="pointer-heart" xmlns="http://www.w3.org/2000/svg" xmlns:xlink="http://www.w3.org/1999/xlink" x="0px"
	 y="0px" viewBox="0 0 1023.9942 1024" enable-background="new 0 0 1023.9942 1024" xml:space="preserve">
<rect x="0" fill="#FF5551" width="1023.9942" height="1024"/>
<g id="pointer-heart-pointer-heart">
	<g>
		<path fill="#FFFFFF" d="M512.0108,809.3584c-2.3565,0-4.7129-0.7266-6.7178-2.1787
			c-9.2314-6.7012-226.1514-166.4141-226.1514-367.7769c0-128.1342,100.1114-224.7612,232.8692-224.7612
			c132.747,0,232.8525,96.627,232.8525,224.7612c0,201.3628-216.8974,361.0757-226.1348,367.7769
			C516.7246,808.6318,514.3672,809.3584,512.0108,809.3584L512.0108,809.3584z M512.0108,237.5156
			c-121.6783,0-209.9956,84.9053-209.9956,201.8872c0,170.4693,173.3901,315.4292,209.9956,344.1216
			c36.6064-28.6924,209.9795-173.6523,209.9795-344.1216C721.9903,322.4209,633.6778,237.5156,512.0108,237.5156L512.0108,237.5156z
			"/>
	</g>
	<g>
		<g>
			<path fill="#FFFFFF" d="M512.8545,592.1133c-2.6582,0-5.3164-0.9268-7.4609-2.7696l-96.0518-82.6713
				c-20.6958-18.2779-34.8076-41.0733-40.917-66.024c-4.1211-17.0717-2.9819-27.9223-2.5185-30.9155
				c4.5293-46.7974,38.9902-80.7222,82.0796-80.7222c25.5991,0,49.3383,11.9449,64.7343,31.585
				c15.0445-19.8525,37.94-31.585,63.2935-31.585c43.1563,0,77.6123,33.9195,82.0684,80.7276
				c0.4687,3.0049,1.6084,13.855-2.5127,30.8764c-6.1319,25.085-20.2715,47.8916-40.9004,65.9849l-94.2764,82.6777
				C518.2373,591.1641,515.5459,592.1133,512.8545,592.1133L512.8545,592.1133z M388.4785,413.4019
				c0,0-1.2006,7.8686,2.1719,21.8403c4.9873,20.3613,16.6475,39.1133,33.7246,54.1914l88.4063,76.0986l86.8096-76.1269
				c17.0771-14.9824,28.749-33.7237,33.7519-54.1963c3.3955-14.0112,2.1563-21.8853,2.1338-21.9634
				c-2.8711-30.999-24.125-61.3618-59.4629-61.3618c-22.9404,0-43.123,13.6377-52.6719,35.5898
				c-1.8154,4.166-5.9199,6.8633-10.4653,6.8741c-0.0054,0-0.0171,0-0.022,0c-4.5351,0-8.6396-2.6748-10.4658-6.8296
				c-9.5322-21.6451-30.8867-35.6343-54.4028-35.6343c-35.2823,0-56.5591,30.374-59.3452,60.373
				C388.607,412.6426,388.5508,413.0225,388.4785,413.4019L388.4785,413.4019L388.4785,413.4019z"/>
		</g>
		<g>
			<path fill="#FFFFFF" d="M418.0703,433.8184c-0.0166,0-0.039,0-0.0556,0c-6.3164-0.0332-11.4151-5.1768-11.3814-11.4927
				c0.0616-13.0337,10.9287-30.4014,25.2749-40.4087c12.085-8.4326,25.2364-10.7275,37.002-6.4502
				c5.9424,2.1504,9.0078,8.7119,6.8525,14.6484c-2.1504,5.9473-8.7226,9.0244-14.6479,6.8516
				c-5.8745-2.1221-12.0122,0.8379-16.1226,3.7139c-9.9844,6.9638-15.4687,18.0263-15.4853,21.7568
				C429.4737,428.7363,424.3638,433.8184,418.0703,433.8184L418.0703,433.8184z"/>
		</g>
	</g>
</g>
</svg>
