<?xml version="1.0" encoding="utf-8"?>
<!-- Generator: Adobe Illustrator 17.1.0, SVG Export Plug-In . SVG Version: 6.00 Build 0)  -->
<!DOCTYPE svg PUBLIC "-//W3C//DTD SVG 1.1//EN" "http://www.w3.org/Graphics/SVG/1.1/DTD/svg11.dtd">
<svg version="1.1" id="postcard" xmlns="http://www.w3.org/2000/svg" xmlns:xlink="http://www.w3.org/1999/xlink" x="0px" y="0px"
	 viewBox="0 0 1023.9942 1024" enable-background="new 0 0 1023.9942 1024" xml:space="preserve">
<rect x="0" fill="#FF5551" width="1023.9942" height="1024"/>
<g id="postcard-postcard">
	<g>
		<g>
			<path fill="#FFFFFF" d="M768.3291,720.6221H255.648c-22.6167,0-41.0171-18.3954-41.0171-41.0117V344.3896
				c0-22.6113,18.4004-41.0117,41.0171-41.0117h512.6812c22.6172,0,41.0235,18.4004,41.0235,41.0117v335.2208
				C809.3526,702.2266,790.9463,720.6221,768.3291,720.6221L768.3291,720.6221z M255.648,326.252
				c-10.0073,0-18.1441,8.1362-18.1441,18.1376v335.2208c0,9.996,8.1368,18.1376,18.1441,18.1376h512.6812
				c10.0069,0,18.1494-8.1416,18.1494-18.1376V344.3896c0-10.0014-8.1425-18.1376-18.1494-18.1376H255.648L255.648,326.252z"/>
		</g>
		<g>
			<polygon fill="#FFFFFF" points="523.4258,650.0352 500.5518,650.0352 500.5518,373.9648 523.4258,373.9648 523.4258,650.0352 			
				"/>
		</g>
		<g>
			<polygon fill="#FFFFFF" points="748.6162,562.874 630.294,562.874 630.294,540 748.6162,540 748.6162,562.874 			"/>
		</g>
		<g>
			<polygon fill="#FFFFFF" points="748.6162,602.3105 610.5811,602.3105 610.5811,579.4375 748.6162,579.4375 748.6162,602.3105 			
				"/>
		</g>
		<g>
			<path fill="#FFFFFF" d="M750.1914,474.1377H648.4317V372.3901h101.7597V474.1377L750.1914,474.1377z M671.3057,451.2642h56.0117
				v-56.0005h-56.0117V451.2642L671.3057,451.2642z"/>
		</g>
	</g>
	<g>
		<g>
			<path fill="#FFFFFF" d="M343.792,520.5605c-2.3955,0-4.7861-0.832-6.7178-2.4902l-32.998-28.4248
				c-8.126-7.1367-13.665-16.0996-16.0889-25.9897c-1.8203-7.5332-1.1616-12.2964-0.916-13.5757
				c1.6699-18.211,16.5298-32.6743,34.4224-32.6743c8.2651,0,16.0659,2.9546,22.1811,8.0581
				c5.9756-5.1426,13.6036-8.0581,21.8462-8.0581c17.9092,0,32.7691,14.4633,34.562,33.646
				c0.106,0.2851,0.7813,5.0708-1.0556,12.5986c-2.4346,9.9233-7.9746,18.8916-16.0274,25.9394l-32.4228,28.419
				C348.6338,519.7119,346.2159,520.5605,343.792,520.5605L343.792,520.5605z M321.4937,437.9902
				c-8.3042,0-13.3638,7.5386-14.0669,14.9883c-0.0733,0.5752-0.2568,2.4292,0.5635,5.8076
				c1.4072,5.7412,4.7246,11.0518,9.5942,15.3238l26.146,22.5219l25.7051-22.5273c4.8584-4.2559,8.1758-9.5606,9.5937-15.3516
				c0.8155-3.3398,0.6367-5.1767,0.6314-5.1933c-0.771-8.0308-5.8247-15.5694-14.1397-15.5694
				c-5.3891,0-9.9907,3.1553-12.2968,8.4375c-1.6363,3.7471-5.3331,6.1656-9.4209,6.1709c-0.0054,0-0.0054,0-0.0113,0
				c-4.082,0-7.7793-2.4121-9.4209-6.1484C332.1094,441.3125,327.0557,437.9902,321.4937,437.9902L321.4937,437.9902z"/>
		</g>
		<g>
			<path fill="#FFFFFF" d="M403.7744,479.2695c-2.3906,0-4.7861-0.8261-6.7128-2.4902l-10.8897-9.3706
				c-4.311-3.7085-4.7969-10.2085-1.0889-14.5142c3.708-4.3222,10.208-4.7968,14.5137-1.0888l4.1162,3.5405l22.1807-19.4507
				c4.166-3.6299,6.9975-8.1475,8.2095-13.0952c0.6645-2.7363,0.5361-4.2495,0.5307-4.2661
				c-0.626-6.6348-4.7304-12.8223-11.4873-12.8223c-4.3613,0-8.0752,2.5469-9.9404,6.8135c-1.6416,3.7471-5.3443,6.165-9.4317,6.165
				c-0.0058,0-0.0117,0-0.0117,0c-4.0932-0.0058-7.7959-2.435-9.4316-6.1933c-1.7871-4.1211-5.8692-6.7852-10.3985-6.7852
				c-6.7626,0-10.8613,6.1821-11.4199,12.2915c-0.0781,0.5972-0.2124,2.0777,0.458,4.7857
				c1.357,5.5234-2.0161,11.0966-7.5332,12.4589c-5.5459,1.357-11.102-2.0214-12.459-7.5332
				c-1.7089-6.9414-1.0556-11.4423-0.8154-12.6543c1.4629-16.6084,15.1895-29.9326,31.7695-29.9326
				c7.3213,0,14.2295,2.4854,19.7413,6.813c5.4111-4.3559,12.1792-6.813,19.4726-6.813c16.5742,0,30.3008,13.3242,31.9204,30.9932
				c0.0948,0.2183,0.709,4.6689-0.9663,11.5601c-2.2334,9.1137-7.2988,17.3061-14.6645,23.7172l-28.877,25.3194
				C408.6211,478.4209,406.1978,479.2695,403.7744,479.2695L403.7744,479.2695z"/>
		</g>
	</g>
	<g>
		<g>
			<g>
				<path fill="#FFFFFF" d="M311.8379,644.1934c-2.9258,0-5.8525-1.1163-8.0859-3.3497c-4.4678-4.4677-4.4678-11.705,0-16.1728
					l44.3623-44.3516c4.4678-4.4677,11.7051-4.4677,16.1728,0c4.4673,4.4678,4.4673,11.7051,0,16.1729l-44.3628,44.3515
					C317.6905,643.0771,314.7647,644.1934,311.8379,644.1934L311.8379,644.1934z"/>
			</g>
			<g>
				<path fill="#FFFFFF" d="M356.2007,644.1934c-2.9263,0-5.8525-1.1163-8.0864-3.3497l-44.3623-44.3515
					c-4.4678-4.4678-4.4678-11.7051,0-16.1729c4.4678-4.4677,11.7051-4.4677,16.1723,0l44.3628,44.3516
					c4.4673,4.4678,4.4673,11.7051,0,16.1728C362.0528,643.0771,359.127,644.1934,356.2007,644.1934L356.2007,644.1934z"/>
			</g>
		</g>
		<g>
			<g>
				<path fill="#FFFFFF" d="M385.7813,644.1934c-2.9263,0-5.8584-1.1163-8.0864-3.3497c-4.4673-4.4677-4.4673-11.705,0-16.1728
					l44.3681-44.3516c4.4673-4.4677,11.7046-4.4677,16.1724,0c4.4678,4.4678,4.4678,11.7051,0,16.1729l-44.3682,44.3515
					C391.6338,643.0771,388.7071,644.1934,385.7813,644.1934L385.7813,644.1934z"/>
			</g>
			<g>
				<path fill="#FFFFFF" d="M430.1494,644.1934c-2.9267,0-5.8525-1.1163-8.0864-3.3497l-44.3681-44.3515
					c-4.4673-4.4678-4.4673-11.7051,0-16.1729c4.4565-4.4677,11.705-4.4677,16.1723,0l44.3682,44.3516
					c4.4678,4.4678,4.4678,11.7051,0,16.1728C436.0074,643.0771,433.0752,644.1934,430.1494,644.1934L430.1494,644.1934z"/>
			</g>
		</g>
	</g>
</g>
</svg>
