<?xml version="1.0" encoding="utf-8"?>
<!-- Generator: Adobe Illustrator 17.1.0, SVG Export Plug-In . SVG Version: 6.00 Build 0)  -->
<!DOCTYPE svg PUBLIC "-//W3C//DTD SVG 1.1//EN" "http://www.w3.org/Graphics/SVG/1.1/DTD/svg11.dtd">
<svg version="1.1" id="shirt-heart" xmlns="http://www.w3.org/2000/svg" xmlns:xlink="http://www.w3.org/1999/xlink" x="0px"
	 y="0px" viewBox="0 0 1024 1024" enable-background="new 0 0 1024 1024" xml:space="preserve">
<rect fill="#FF5551" width="1024" height="1024"/>
<g id="shirt-heart-shirt-heart">
	<g>
		<path fill="#FFFFFF" d="M671.3672,764.459H352.6323c-6.3159,0-11.437-5.1152-11.437-11.4365V483.9102L295.4595,495.71
			c-4.8589,1.268-9.9907-0.8096-12.6153-5.1094l-66.5214-108.8399c-1.6197-2.6474-2.0943-5.83-1.3121-8.8349
			c0.7759-2.9986,2.7364-5.5562,5.4336-7.0806l185.2232-104.8193c2.9487-1.6753,6.4721-1.9322,9.6333-0.7652
			c3.166,1.1841,5.6455,3.7027,6.7793,6.8858c10.7441,30.2392,47.7241,51.354,89.9199,51.354
			c42.1846,0,79.1533-21.1201,89.9092-51.354c1.1387-3.1831,3.6181-5.7017,6.7793-6.8858c3.1611-1.1782,6.7011-0.9043,9.6269,0.7652
			l185.2354,104.8193c2.7021,1.5244,4.668,4.082,5.4385,7.0806c0.7822,3.0049,0.3018,6.1933-1.3067,8.8349l-66.5439,108.8399
			c-2.6241,4.2998-7.7617,6.3774-12.6201,5.1094l-45.7139-11.7998v269.1122C682.8047,759.3438,677.6895,764.459,671.3672,764.459
			L671.3672,764.459z M364.0693,741.5859h295.8614V469.1455c0-3.5351,1.6416-6.8745,4.4345-9.041
			c2.792-2.1611,6.4434-2.915,9.8614-2.0332l51.8125,13.375l55.955-91.523l-164.125-92.8686
			C599.5742,319.584,558.1162,341.374,512,341.374c-46.127,0-87.5913-21.79-105.8857-54.3193l-164.1089,92.8686l55.9389,91.523
			l51.8291-13.375c3.4121-0.8936,7.0528-0.1338,9.8619,2.0332c2.7978,2.1665,4.434,5.5059,4.434,9.041V741.5859L364.0693,741.5859z"
			/>
	</g>
	<g>
		<path fill="#FFFFFF" d="M512,382.5986c-68.1074,0-122.4824-41.5429-139.0684-80.6279
			c-2.4682-5.8135,0.2461-12.5254,6.0591-14.9941c5.8023-2.4795,12.5259,0.2514,14.9942,6.059
			c13.9106,32.7808,61.8584,66.689,118.0151,66.689c56.1348,0,104.082-33.9082,118.0205-66.6943
			c2.457-5.8194,9.2139-8.5049,14.9893-6.0537c5.8183,2.4736,8.5322,9.1865,6.0527,15
			C634.4551,341.0615,580.0742,382.5986,512,382.5986L512,382.5986z"/>
	</g>
	<g>
		<path fill="#FFFFFF" d="M512.5474,610.833c-2.6582,0-5.3164-0.9268-7.461-2.7705l-60.9594-52.4482
			c-13.8492-12.2413-23.2476-27.4532-27.2852-44.1001c-2.7305-11.2417-2.0772-18.5904-1.6973-21.1148
			c3.1382-31.8252,26.7266-54.8833,56.2237-54.8833c15.7871,0,30.541,6.6231,41.0283,17.7525
			c10.2246-11.2354,24.5215-17.7525,40.2129-17.7525c29.0615,0,53.1748,23.5659,56.2461,54.8892
			c0.3799,2.5293,1.0273,9.8789-1.6973,21.1089c-4.0879,16.7358-13.5029,31.9594-27.2402,44.0219l-59.8322,52.46
			C517.9307,609.8828,515.2393,610.833,512.5474,610.833L512.5474,610.833z M437.7163,494.0518
			c0.0112,0-0.519,4.3671,1.3516,12.0678c2.9316,12.0738,9.8784,23.2261,20.0923,32.2613l53.3144,45.8701l52.3535-45.9033
			c10.1865-8.9473,17.1447-20.1045,20.1035-32.2452c1.9102-7.874,1.3077-12.2685,1.3077-12.3076
			c-1.6983-18.0376-13.7159-35.4053-33.6299-35.4053c-13.0674,0-24.1133,7.5059-29.5694,20.0762
			c-1.8095,4.1714-5.9189,6.874-10.4648,6.8858c-0.0059,0-0.0166,0-0.0278,0c-4.5347,0-8.6392-2.6807-10.4654-6.8301
			c-5.3833-12.2295-17.4399-20.1319-30.7138-20.1319c-19.8809,0-31.8926,17.3731-33.4903,34.5342
			C437.8447,493.3037,437.7891,493.6777,437.7163,494.0518L437.7163,494.0518L437.7163,494.0518z"/>
	</g>
</g>
</svg>
