<?xml version="1.0" encoding="utf-8"?>
<!-- Generator: Adobe Illustrator 17.1.0, SVG Export Plug-In . SVG Version: 6.00 Build 0)  -->
<!DOCTYPE svg PUBLIC "-//W3C//DTD SVG 1.1//EN" "http://www.w3.org/Graphics/SVG/1.1/DTD/svg11.dtd">
<svg version="1.1" id="candle-heart" xmlns="http://www.w3.org/2000/svg" xmlns:xlink="http://www.w3.org/1999/xlink" x="0px"
	 y="0px" viewBox="0 0 1023.9942 1024" enable-background="new 0 0 1023.9942 1024" xml:space="preserve">
<rect x="0" fill="#FF5551" width="1023.9942" height="1024"/>
<g id="candle-heart-candle-heart">
	<g>
		<path fill="#FFFFFF" d="M649.7725,731.6006c-6.3213,0-11.4365-5.1152-11.4365-11.4365V425.0063
			c0-10.8896-8.8575-19.7465-19.7471-19.7465H411.5586c-10.9004,0-19.7685,8.8569-19.7685,19.7465v295.1578
			c0,6.3213-5.1211,11.4365-11.437,11.4365c-6.316,0-11.4371-5.1152-11.4371-11.4365V425.0063
			c0-23.4995,19.1324-42.6206,42.6426-42.6206h207.0303c23.499,0,42.6201,19.1211,42.6201,42.6206v295.1578
			C661.209,726.4854,656.0938,731.6006,649.7725,731.6006L649.7725,731.6006z"/>
	</g>
	<g>
		<path fill="#FFFFFF" d="M515.0606,394.0239c-6.3164,0-11.4375-5.1206-11.4375-11.437v-67.3476
			c0-6.316,5.1211-11.4366,11.4375-11.4366c6.3154,0,11.4306,5.1206,11.4306,11.4366v67.3476
			C526.4912,388.9033,521.376,394.0239,515.0606,394.0239L515.0606,394.0239z"/>
	</g>
	<g>
		<path fill="#FFFFFF" d="M708.4307,809.3584H315.563c-4.6186,0-8.7788-2.7813-10.5547-7.0361l-28.0669-67.3594
			c-1.4746-3.5293-1.0835-7.5615,1.0386-10.7442c2.1221-3.1835,5.6904-5.0937,9.5161-5.0937h449.0137
			c3.8193,0,7.3936,1.9102,9.5156,5.0937c2.1221,3.1827,2.5127,7.2149,1.0381,10.7442l-28.0781,67.3594
			C717.21,806.5879,713.044,809.3584,708.4307,809.3584L708.4307,809.3584z M323.1856,786.4844h377.6172l18.5507-44.4854H304.6514
			L323.1856,786.4844L323.1856,786.4844z"/>
	</g>
	<g>
		<path fill="#FFFFFF" d="M380.3584,696.1621c-3.1826,0-6.3545-1.3174-8.6108-3.9092c-4.1607-4.7462-3.6802-11.9727,1.0776-16.1386
			l265.041-231.836c4.7354-4.1606,11.9512-3.6914,16.1397,1.0772c4.1543,4.7529,3.6738,11.9785-1.084,16.1338l-265.041,231.8476
			C385.7139,695.2354,383.0284,696.1621,380.3584,696.1621L380.3584,696.1621z"/>
	</g>
	<g>
		<path fill="#FFFFFF" d="M380.3584,583.8711c-3.1718,0-6.3271-1.3066-8.5888-3.875c-4.1768-4.7471-3.7134-11.9736,1.0278-16.1504
			l196.5259-172.9883c4.7353-4.1714,11.9619-3.7187,16.1504,1.0279c4.166,4.7407,3.708,11.9672-1.0274,16.1391l-196.5376,172.999
			C385.7364,582.9336,383.0391,583.8711,380.3584,583.8711L380.3584,583.8711z"/>
	</g>
	<g>
		<path fill="#FFFFFF" d="M478.6162,741.999c-2.9482,0-5.8974-1.1396-8.1367-3.3955c-4.4394-4.501-4.3945-11.7383,0.0952-16.1719
			L637.3526,557.625c4.5009-4.457,11.7383-4.3789,16.1728,0.0889c4.4453,4.5009,4.4004,11.7382-0.0898,16.1728L486.6577,738.6934
			C484.4239,740.9043,481.52,741.999,478.6162,741.999L478.6162,741.999z"/>
	</g>
	<g>
		<path fill="#FFFFFF" d="M511.9883,371.5859c-2.9258,0-5.8574-1.1172-8.0918-3.3505l-66.0293-66.0635
			c-0.2627-0.2681-0.5141-0.542-0.749-0.8267c-9.7666-9.6606-15.1279-22.3823-15.1279-35.9966
			c0-27.9614,22.7509-50.707,50.7177-50.707c15.8204,0,29.9771,7.2822,39.2803,18.6689
			c9.3145-11.3867,23.4717-18.6689,39.2979-18.6689c27.9668,0,50.7285,22.7456,50.7285,50.707
			c0,13.5645-5.3057,26.2408-14.9883,35.8741c-0.2686,0.3291-0.5479,0.6474-0.8486,0.955l-66.1036,66.063
			C517.8409,370.4687,514.9151,371.5859,511.9883,371.5859L511.9883,371.5859z M455.0332,286.9824l56.961,56.9942l56.9492-56.9219
			c0.3799-0.4854,0.793-0.9434,1.2519-1.3682c5.7627-5.3945,8.9454-12.6206,8.9454-20.3379c0-15.3462-12.4981-27.833-27.8545-27.833
			c-15.3575,0-27.8604,12.4868-27.8604,27.833c0,6.3155-5.1211,11.4366-11.4375,11.4366c-6.3154,0-11.4365-5.1211-11.4365-11.4366
			c0-15.3462-12.4922-27.833-27.8438-27.833c-15.3515,0-27.8437,12.4868-27.8437,27.833c0,7.7173,3.1943,14.9434,8.9853,20.3545
			C454.2793,286.1055,454.6758,286.5298,455.0332,286.9824L455.0332,286.9824z"/>
	</g>
</g>
</svg>
