<?xml version="1.0" encoding="utf-8"?>
<!-- Generator: Adobe Illustrator 17.1.0, SVG Export Plug-In . SVG Version: 6.00 Build 0)  -->
<!DOCTYPE svg PUBLIC "-//W3C//DTD SVG 1.1//EN" "http://www.w3.org/Graphics/SVG/1.1/DTD/svg11.dtd">
<svg version="1.1" id="diamond-heart" xmlns="http://www.w3.org/2000/svg" xmlns:xlink="http://www.w3.org/1999/xlink" x="0px"
	 y="0px" viewBox="0 0 1023.9942 1024" enable-background="new 0 0 1023.9942 1024" xml:space="preserve">
<rect x="0" fill="#FF5551" width="1023.9942" height="1024"/>
<g id="diamond-heart-diamond-heart">
	<g>
		<path fill="#FFFFFF" d="M504.5616,772.4902c-3.4122,0-6.6456-1.5195-8.8179-4.1552L246.981,467.3691
			c-0.8042-0.7421-1.5078-1.6025-2.0659-2.5683c-2.0498-3.5186-2.2119-7.8633-0.1958-11.4033l74.4956-131.0547
			c2.0332-3.5742,5.8247-5.7857,9.9404-5.7857h279.0693c6.3213,0,11.4366,5.1211,11.4366,11.437
			c0,6.316-5.1153,11.4366-11.4366,11.4366H335.812l-67.1967,118.2109l235.9463,285.4629l236.0361-285.5469l-39.1026-68.4258
			c-3.1386-5.4834-1.2285-12.4697,4.2549-15.6025c5.4727-3.1494,12.4649-1.2285,15.6035,4.2554l42.6866,74.6855
			c0.3691,0.5806,0.7041,1.2007,0.9716,1.854c1.1846,2.8535,1.1505,5.9981,0.0225,8.7398
			c-0.6142,1.5581-1.5517,2.9653-2.7246,4.1215L513.3789,768.335C511.2012,770.9707,507.9737,772.4902,504.5616,772.4902
			L504.5616,772.4902z"/>
	</g>
	<g>
		<path fill="#FFFFFF" d="M740.8877,464.0522h-472.625c-6.3154,0-11.4365-5.1206-11.4365-11.437
			c0-6.3154,5.1211-11.4365,11.4365-11.4365h472.625c6.3213,0,11.4365,5.1211,11.4365,11.4365
			C752.3242,458.9316,747.209,464.0522,740.8877,464.0522L740.8877,464.0522z"/>
	</g>
	<g>
		<path fill="#FFFFFF" d="M493.6773,747.8623c-4.9312,0-9.482-3.2051-10.9566-8.1748l-81.499-274.2891
			c-1.7978-6.0537,1.6475-12.4199,7.707-14.2177c6.0313-1.8096,12.4195,1.6469,14.2178,7.706l81.4985,274.2774
			c1.7984,6.0536-1.6474,12.4316-7.7065,14.2295C495.8555,747.7061,494.7549,747.8623,493.6773,747.8623L493.6773,747.8623z"/>
	</g>
	<g>
		<path fill="#FFFFFF" d="M409.2471,450.7891c-1.3071,0-2.6362-0.2286-3.9316-0.7032c-5.9366-2.1728-8.9795-8.7397-6.8077-14.6704
			l39.1133-106.7739c2.1778-5.9307,8.7393-8.9683,14.6699-6.8071c5.9366,2.1723,8.98,8.7397,6.8077,14.6704l-39.1133,106.7734
			C418.2881,447.9131,413.9097,450.7891,409.2471,450.7891L409.2471,450.7891z"/>
	</g>
	<g>
		<path fill="#FFFFFF" d="M515.4453,747.8623c-1.0781,0-2.1777-0.1562-3.2666-0.4687c-6.0537-1.8096-9.499-8.1758-7.7011-14.2295
			l81.5205-274.2832c1.8095-6.042,8.1094-9.5157,14.2295-7.7002c6.0537,1.7978,9.5049,8.164,7.706,14.2177l-81.5312,274.2891
			C524.9278,744.6572,520.376,747.8623,515.4453,747.8623L515.4453,747.8623z"/>
	</g>
	<g>
		<path fill="#FFFFFF" d="M599.8926,450.7891c-4.6572,0-9.0469-2.876-10.7441-7.5108l-39.0909-106.7734
			c-2.1669-5.9307,0.8819-12.4981,6.8125-14.6704c5.92-2.1665,12.5088,0.8764,14.6758,6.8071l39.0908,106.7739
			c2.167,5.9307-0.8818,12.4976-6.8125,14.6704C602.5284,450.5605,601.1992,450.7891,599.8926,450.7891L599.8926,450.7891z"/>
	</g>
	<g>
		<path fill="#FFFFFF" d="M686.0264,415.4067c-2.7256,0-5.3495-1.0835-7.2822-3.0156l-70.0283-70.0508
			c-0.2452-0.2456-0.4805-0.5083-0.6924-0.7758c-10.0625-9.8907-15.5918-22.9581-15.5918-36.9581
			c0-28.6367,23.2988-51.9292,51.9355-51.9292c17.0322,0,32.1768,8.2369,41.6592,20.9361
			c9.4824-12.6992,24.627-20.9361,41.6592-20.9361c28.6367,0,51.9355,23.2925,51.9355,51.9292
			c0,13.9893-5.54,27.0674-15.6035,36.9854c-0.2119,0.2568-0.4463,0.5088-0.6807,0.7485l-70.0283,70.0508
			C691.376,414.3232,688.752,415.4067,686.0264,415.4067L686.0264,415.4067z M624.2403,328.748l61.7861,61.8082l61.8975-61.92
			c0.3242-0.4018,0.6699-0.7817,1.039-1.1333c6.4883-6.0874,10.0625-14.2182,10.0625-22.8965
			c0-17.2832-14.0615-31.3447-31.3398-31.3447c-17.2998,0-31.3614,14.0615-31.3614,31.3447c0,5.6851-4.6132,10.292-10.2979,10.292
			c-5.6846,0-10.2979-4.6069-10.2979-10.292c0-17.2832-14.0615-31.3447-31.3613-31.3447c-17.2783,0-31.3398,14.0615-31.3398,31.3447
			c0,8.712,3.5849,16.8536,10.0967,22.9239C623.5371,327.9102,623.9053,328.3179,624.2403,328.748L624.2403,328.748z"/>
	</g>
</g>
</svg>
