<?xml version="1.0" encoding="utf-8"?>
<!-- Generator: Adobe Illustrator 17.1.0, SVG Export Plug-In . SVG Version: 6.00 Build 0)  -->
<!DOCTYPE svg PUBLIC "-//W3C//DTD SVG 1.1//EN" "http://www.w3.org/Graphics/SVG/1.1/DTD/svg11.dtd">
<svg version="1.1" id="envelope-open-hearts" xmlns="http://www.w3.org/2000/svg" xmlns:xlink="http://www.w3.org/1999/xlink"
	 x="0px" y="0px" viewBox="0 0 1024 1023.9942" enable-background="new 0 0 1024 1023.9942" xml:space="preserve">
<rect y="0" fill="#FF5551" width="1024" height="1023.9942"/>
<g id="envelope-open-hearts-envelope-open-hearts">
	<g>
		<path fill="#FFFFFF" d="M598.8154,525.3184c-2.6582,0-5.3163-0.916-7.4609-2.7695l-15.1787-13.0791
			c-4.791-4.1211-5.3272-11.3418-1.2061-16.1275c4.1319-4.8027,11.3584-5.3276,16.1281-1.1948l7.6503,6.5893l32.7696-28.7319
			c6.2324-5.4443,10.4873-12.2632,12.3301-19.7236c1.0605-4.4063,0.7928-6.8633,0.7928-6.8858
			c-1.0049-10.5605-7.7285-20.5117-18.8535-20.5117c-7.248,0-13.4131,4.2051-16.4961,11.2529
			c-1.8203,4.1602-5.9297,6.8516-10.4756,6.8516h-0.0117c-4.5459-0.0054-8.6553-2.7026-10.4756-6.8686
			c-2.9717-6.8238-9.706-11.2359-17.1445-11.2359c-11.124,0-17.8701,9.9512-18.7754,19.7857
			c-0.0439,0.3852-0.0996,0.7705-0.167,1.1504c0-0.0054,0-0.0054,0-0.0054c0.0332,0-0.1338,2.373,0.8818,6.4331
			c1.5196,6.1313-2.2109,12.3359-8.3427,13.8603c-6.1319,1.5523-12.3301-2.2055-13.8604-8.332
			c-1.9765-7.9634-1.5859-13.3633-1.251-15.625c2.3457-23.2866,19.7354-40.1406,41.5147-40.1406
			c10.3418,0,20.0703,3.8305,27.5195,10.4092c7.3047-6.6285,16.7979-10.4092,27.084-10.4092
			c21.4336,0,39.2031,17.2388,41.4922,40.1572c0.3242,2.228,0.7148,7.5952-1.2168,15.5415
			c-2.9707,12.085-9.7061,22.9688-19.4785,31.5068l-40.2305,35.2715C604.1982,524.3809,601.5068,525.3184,598.8154,525.3184
			L598.8154,525.3184z"/>
	</g>
	<g>
		<path fill="#FFFFFF" d="M515.3281,582.793c-2.6581,0-5.3164-0.9268-7.4609-2.7695l-45.959-39.5713
			c-10.8789-9.583-18.2725-21.544-21.4775-34.6905c-2.1221-8.7949-1.6812-14.6196-1.3291-16.9707
			c2.5185-25.0068,21.874-43.8154,45.1884-43.8154c11.6773,0,22.6504,4.5069,30.8936,12.1963
			c8.0469-7.751,18.7295-12.1963,30.3672-12.1963c23.3652,0,42.7099,18.8086,45.1777,43.8213
			c0.3574,2.3789,0.8047,8.1973-1.3174,16.9424c-3.2392,13.2412-10.6552,25.208-21.4443,34.6572l-45.0938,39.5596
			C520.7119,581.8438,518.0195,582.793,515.3281,582.793L515.3281,582.793z M461.6787,492.4375
			c0.0225,0-0.2344,2.8985,0.9834,7.9297c2.083,8.5498,7.0195,16.4522,14.2676,22.835l38.3262,32.998l37.6445-33.0146
			c7.2373-6.3389,12.1738-14.2349,14.2851-22.8516c1.2725-5.2549,0.9151-8.1758,0.9151-8.209
			c-1.1611-12.4814-9.2139-24.2754-22.5498-24.2754c-8.7002,0-16.0713,5.0259-19.7344,13.4414
			c-1.8105,4.1719-5.9141,6.8692-10.46,6.8799c-4.7861-0.3349-8.6562-2.6689-10.4931-6.8296
			c-3.6133-8.1977-11.6826-13.4917-20.5733-13.4917c-13.3076,0-21.3711,11.8106-22.4546,23.4766
			c-0.0336,0.374-0.0893,0.7485-0.1621,1.1172C461.6787,492.4434,461.6787,492.4375,461.6787,492.4375L461.6787,492.4375z"/>
	</g>
	<g>
		<path fill="#FFFFFF" d="M769.3291,780.7598H243.2344V481.3076l3.6406-4.3164l240.8218-224.208
			c13.2573-12.3305,35.3716-12.3305,48.6177,0l244.451,227.6035v299.2344L769.3291,780.7598L769.3291,780.7598z M266.1074,757.8867
			h491.7852V490.3379L520.7227,269.5254c-4.7461-4.4121-12.6817-4.4121-17.44,0L266.1074,490.3379V757.8867L266.1074,757.8867z"/>
	</g>
	<g>
		<path fill="#FFFFFF" d="M260.3506,774.9971c-9.438,0-17.1162-7.6846-17.1162-17.1328v-261.043
			c0-9.4433,7.6836-17.1221,17.1328-17.1221c3.7637,0,7.3486,1.2178,10.3643,3.5352l189.1494,144.1221l-189.1773,144.122
			C267.7104,773.7686,264.1196,774.9971,260.3506,774.9971L260.3506,774.9971z M266.1074,508.4649v237.7617l156.0342-118.8701
			L266.1074,508.4649L266.1074,508.4649z"/>
	</g>
	<g>
		<path fill="#FFFFFF" d="M763.6553,774.9971L763.6553,774.9971c-3.7637,0-7.3487-1.2285-10.376-3.5293l-189.166-144.1113
			L753.291,483.2119c3.0038-2.2949,6.5898-3.5127,10.3535-3.5127c9.4375,0,17.1211,7.6788,17.1211,17.1221v261.043
			c0,4.7471-1.876,9.1475-5.2939,12.3975C772.2666,773.3106,768.0674,774.9971,763.6553,774.9971L763.6553,774.9971z
			 M601.8643,627.3565l156.0283,118.8584v-237.75L601.8643,627.3565L601.8643,627.3565z"/>
	</g>
	<g>
		<path fill="#FFFFFF" d="M582.9883,638.793h-150.834c-6.3159,0-11.4365-5.1152-11.4365-11.4365
			c0-6.3214,5.1206-11.4365,11.4365-11.4365h150.834c6.3222,0,11.4375,5.1152,11.4375,11.4365
			C594.4258,633.6778,589.3105,638.793,582.9883,638.793L582.9883,638.793z"/>
	</g>
</g>
</svg>
