<?xml version="1.0" encoding="utf-8"?>
<!-- Generator: Adobe Illustrator 17.1.0, SVG Export Plug-In . SVG Version: 6.00 Build 0)  -->
<!DOCTYPE svg PUBLIC "-//W3C//DTD SVG 1.1//EN" "http://www.w3.org/Graphics/SVG/1.1/DTD/svg11.dtd">
<svg version="1.1" id="flower" xmlns="http://www.w3.org/2000/svg" xmlns:xlink="http://www.w3.org/1999/xlink" x="0px" y="0px"
	 viewBox="0 0 1024 1024" enable-background="new 0 0 1024 1024" xml:space="preserve">
<rect fill="#FF5551" width="1024" height="1024"/>
<g id="flower-flower">
	<g id="flower-flower_1_">
		<g>
			<g>
				<path fill="#FFFFFF" d="M452.4258,340.0117c-1.9546,0-3.9317-0.4971-5.7412-1.5527c-5.461-3.1773-7.3096-10.1802-4.1319-15.6358
					l59.6631-102.4961c2.0386-3.5019,5.7744-5.663,9.8233-5.6855c0.0165,0,0.0389,0,0.0615,0c4.0264,0,7.7568,2.1167,9.8174,5.5732
					l59.4297,99.5147c3.2382,5.4219,1.4736,12.4414-3.9541,15.6807c-5.4063,3.2334-12.4424,1.4628-15.6807-3.9541l-49.4839-82.8614
					l-49.9077,85.732C460.1992,337.979,456.3623,340.0117,452.4258,340.0117L452.4258,340.0117z"/>
			</g>
			<g>
				<path fill="#FFFFFF" d="M501.937,577.3262c-43.2622,0-184.4082-23.834-184.4082-330.585c0-3.3227,1.4468-6.4834,3.9653-8.6562
					c2.5186-2.1831,5.8858-3.1382,9.147-2.6582c1.9263,0.2851,192.7954,31.9653,192.7954,329.8818
					c0,5.6289-4.0986,10.4209-9.6611,11.3027C513.3066,576.6787,508.9844,577.3262,501.937,577.3262L501.937,577.3262z
					 M340.5146,261.2881c4.0821,268.2695,121.1475,292.584,159.9649,293.1533
					C496.8555,328.6924,380.6606,273.5908,340.5146,261.2881L340.5146,261.2881z"/>
			</g>
			<g>
				<path fill="#FFFFFF" d="M522.0684,577.3262c-0.0059,0-0.0059,0-0.0059,0c-7.0469,0-11.3691-0.6475-11.8384-0.7149
					c-5.562-0.8818-9.6606-5.6738-9.6606-11.3027c0-297.9165,190.874-329.5967,192.7959-329.8818
					c3.2949-0.4913,6.623,0.4751,9.1465,2.6582c2.5136,2.1728,3.9648,5.3335,3.9648,8.6562
					c0,130.0049-25.2519,223.8672-75.0654,278.9854C589.2988,572.3008,540.916,577.3262,522.0684,577.3262L522.0684,577.3262z
					 M683.4863,261.2881c-40.1074,12.2861-156.3418,67.3706-159.9599,293.1533c16.7197-0.2676,56.0117-5.4502,90.9023-44.0605
					C658.5117,461.6123,681.7207,377.8574,683.4863,261.2881L683.4863,261.2881z"/>
			</g>
		</g>
		<g>
			<path fill="#FFFFFF" d="M512,809.3584c-6.3159,0-11.4365-5.1162-11.4365-11.4375V506.1924c0-6.3164,5.1206-11.437,11.4365-11.437
				c6.3164,0,11.4365,5.1206,11.4365,11.437v291.7285C523.4365,804.2422,518.3164,809.3584,512,809.3584L512,809.3584z"/>
		</g>
	</g>
	<g>
		<g>
			<path fill="#FFFFFF" d="M605.5049,706.8848c-27.6319,0-50.1026-22.4717-50.1026-50.0928
				c0-67.2022,111.9219-78.5723,116.6915-79.0186c3.1718-0.2793,6.3885,0.7481,8.7675,2.9258
				c2.3789,2.167,3.7412,5.2383,3.7412,8.4551C684.6025,593.957,683.6982,706.8848,605.5049,706.8848L605.5049,706.8848z
				 M660.9473,602.5449c-26.3692,4.7471-82.6719,19.0215-82.6719,54.2471c0,15.0107,12.2187,27.2187,27.2295,27.2187
				C648.1582,684.0107,658.457,628.7031,660.9473,602.5449L660.9473,602.5449z"/>
		</g>
		<g>
			<path fill="#FFFFFF" d="M578.1748,695.5586c-3.0146,0-6.0195-1.1836-8.2646-3.5293c-4.3672-4.5674-4.1993-11.8047,0.3574-16.1719
				l38.5097-36.8349c4.5909-4.3663,11.8057-4.1993,16.1729,0.3574c4.3672,4.5683,4.1992,11.8056-0.3574,16.1728l-38.5108,36.834
				C583.8604,694.5098,581.0234,695.5586,578.1748,695.5586L578.1748,695.5586z"/>
		</g>
		<g>
			<path fill="#FFFFFF" d="M517.2051,758.1826c-2.877,0-5.7525-1.0723-7.9746-3.2393c-4.5293-4.4003-4.6299-11.6484-0.2237-16.1719
				l59.3057-60.959c4.4014-4.5127,11.6494-4.6357,16.1729-0.2236c4.5234,4.4004,4.624,11.6484,0.2236,16.1718l-59.3067,60.96
				C523.1582,757.0215,520.1816,758.1826,517.2051,758.1826L517.2051,758.1826z"/>
		</g>
	</g>
	<g>
		<g>
			<path fill="#FFFFFF" d="M418.5171,706.8848c-78.1983,0-79.0972-112.917-79.0972-117.7198c0-3.2168,1.357-6.288,3.7412-8.4541
				c2.3789-2.1786,5.5342-3.2285,8.7735-2.9267c4.7632,0.4464,116.6855,11.7939,116.6855,79.0195
				C468.6201,684.4131,446.1431,706.8848,418.5171,706.8848L418.5171,706.8848z M363.1035,602.5566
				c2.5239,26.1573,12.8994,81.4541,55.4136,81.4541c15.0166,0,27.2295-12.208,27.2295-27.207
				C445.7466,621.5771,389.4727,607.3037,363.1035,602.5566L363.1035,602.5566z"/>
		</g>
		<g>
			<path fill="#FFFFFF" d="M445.8584,695.582c-2.8428,0-5.6904-1.0508-7.9072-3.1718l-38.5215-36.8575
				c-4.5625-4.3672-4.7246-11.6045-0.3574-16.1728c4.3725-4.5567,11.6045-4.7237,16.1723-0.3574l38.521,36.8574
				c4.5625,4.3672,4.7246,11.6045,0.3574,16.1728C451.873,694.3975,448.8682,695.582,445.8584,695.582L445.8584,695.582z"/>
		</g>
		<g>
			<path fill="#FFFFFF" d="M506.8174,758.2051c-2.9761,0-5.9527-1.1621-8.1973-3.4629l-59.3066-60.959
				c-4.4063-4.5234-4.3057-11.7715,0.2236-16.1719c4.5234-4.4121,11.7608-4.3008,16.1719,0.2227l59.3065,60.9599
				c4.4063,4.5225,4.3057,11.7715-0.2236,16.1719C512.5693,757.1328,509.6934,758.2051,506.8174,758.2051L506.8174,758.2051z"/>
		</g>
	</g>
</g>
</svg>
