<?xml version="1.0" encoding="utf-8"?>
<!-- Generator: Adobe Illustrator 17.1.0, SVG Export Plug-In . SVG Version: 6.00 Build 0)  -->
<!DOCTYPE svg PUBLIC "-//W3C//DTD SVG 1.1//EN" "http://www.w3.org/Graphics/SVG/1.1/DTD/svg11.dtd">
<svg version="1.1" id="heart-balloon" xmlns="http://www.w3.org/2000/svg" xmlns:xlink="http://www.w3.org/1999/xlink" x="0px"
	 y="0px" viewBox="0 0 1023.9942 1023.9942" enable-background="new 0 0 1023.9942 1023.9942" xml:space="preserve">
<rect x="0" y="0" fill="#FF5551" width="1023.9942" height="1023.9942"/>
<g id="heart-balloon-heart-balloon">
	<g>
		<path fill="#FFFFFF" d="M511.9883,667.1514c-19.9023,0-36.0972-16.1953-36.0972-36.0977
			c0-19.8916,16.1949-36.0753,36.0972-36.0753c19.9082,0,36.1035,16.1837,36.1035,36.0753
			C548.0918,650.9561,531.8965,667.1514,511.9883,667.1514L511.9883,667.1514z M511.9883,617.8516
			c-7.293,0-13.2236,5.9199-13.2236,13.2021c0,7.293,5.9306,13.2237,13.2236,13.2237c7.293,0,13.2295-5.9307,13.2295-13.2237
			C525.2178,623.7715,519.2813,617.8516,511.9883,617.8516L511.9883,617.8516z"/>
	</g>
	<g>
		<path fill="#FFFFFF" d="M513.9883,809.3526c-6.3164,0-11.4375-5.1162-11.4375-11.4375c0-5.0371-4.1826-11.0909-9.0298-18.1153
			c-7.1426-10.3428-16.0385-23.2314-17.5908-41.4033c-1.4243-16.5967,7.606-33.1601,15.5693-47.7578
			c5.981-10.9561,13.4195-24.6045,10.3423-29.876c-3.1831-5.4619-1.3403-12.4648,4.1211-15.6474
			c5.4502-3.1612,12.4649-1.3184,15.6367,4.1211c9.5821,16.4296-0.3857,34.6904-10.0185,52.3476
			c-6.7349,12.3535-13.6987,25.1192-12.8613,34.8584c1.039,12.1289,7.4384,21.3994,13.6259,30.3682
			c6.4278,9.3145,13.0733,18.9414,13.0733,31.1046C525.419,804.2364,520.3037,809.3526,513.9883,809.3526L513.9883,809.3526z"/>
	</g>
	<g>
		<g>
			<path fill="#FFFFFF" d="M351.5938,371.0327c-6.3164,0-11.4375-5.1206-11.4375-11.437c0-38.1299,33.2724-82.459,76.1719-82.459
				c6.3154,0,11.4365,5.1211,11.4365,11.4366c0,6.3164-5.1211,11.437-11.4365,11.437c-28.7041,0-53.2979,32.7637-53.2979,59.5854
				C363.0303,365.9121,357.9092,371.0327,351.5938,371.0327L351.5938,371.0327z"/>
		</g>
		<g>
			<path fill="#FFFFFF" d="M511.9883,615.1045c-2.9258,0-5.8525-1.1172-8.0859-3.3506L317.7969,425.7207
				c-0.4917-0.4912-0.9385-1.0219-1.3291-1.5918c-24.0244-23.2812-37.2256-54.2241-37.2256-87.4121
				c0-67.3144,54.7774-122.0752,122.1084-122.0752c48.897,0,91.1651,28.8936,110.6377,70.503
				c19.4844-41.6094,61.7578-70.503,110.666-70.503c67.3262,0,122.0977,54.7608,122.0977,122.0752
				c0,33.149-13.2462,64.1084-37.3594,87.4571c-0.3799,0.5473-0.8047,1.0664-1.2851,1.5468L520.0742,611.7539
				C517.8409,613.9873,514.9151,615.1045,511.9883,615.1045L511.9883,615.1045z M335.6724,411.2515l176.3159,176.2436
				l176.25-176.2436c0.4795-0.7485,1.0488-1.4409,1.7197-2.0659c20.584-19.166,31.92-44.9043,31.92-72.4688
				c0-54.6992-44.5069-99.2011-99.2237-99.2011c-54.7158,0-99.2285,44.5019-99.2285,99.2011
				c0,6.3155-5.1211,11.4365-11.4375,11.4365c-6.3154,0-11.4365-5.121-11.4365-11.4365c0-54.6992-44.502-99.2011-99.2012-99.2011
				c-54.7158,0-99.2348,44.5019-99.2348,99.2011c0,27.6035,11.2861,53.3252,31.7749,72.418
				C334.5782,409.7715,335.17,410.481,335.6724,411.2515L335.6724,411.2515z"/>
		</g>
	</g>
</g>
</svg>
