<?xml version="1.0" encoding="utf-8"?>
<!-- Generator: Adobe Illustrator 17.1.0, SVG Export Plug-In . SVG Version: 6.00 Build 0)  -->
<!DOCTYPE svg PUBLIC "-//W3C//DTD SVG 1.1//EN" "http://www.w3.org/Graphics/SVG/1.1/DTD/svg11.dtd">
<svg version="1.1" id="heart-bow-arrow" xmlns="http://www.w3.org/2000/svg" xmlns:xlink="http://www.w3.org/1999/xlink" x="0px"
	 y="0px" viewBox="0 0 1024 1024" enable-background="new 0 0 1024 1024" xml:space="preserve">
<rect fill="#FF5551" width="1024" height="1024"/>
<g id="heart-bow-arrow-heart-bow-arrow">
	<g>
		<path fill="#FFFFFF" d="M331.9648,773.4395c-6.104,0-11.1748-4.8253-11.4204-10.9796l-2.2226-54.8389l-60.1328,2.2344
			c-6.5279,0.3007-11.6265-4.7022-11.8555-11.002c-0.2349-6.3096,4.6963-11.6152,11.0068-11.8496l71.5249-2.6582
			c6.5782-0.458,11.5987,4.668,11.8501,10.9678l2.6802,66.2314c0.2573,6.3096-4.6514,11.626-10.9619,11.8828
			C332.2773,773.4395,332.1152,773.4395,331.9648,773.4395L331.9648,773.4395z"/>
	</g>
	<g>
		<path fill="#FFFFFF" d="M374.3389,731.0537c-6.1094,0-11.1743-4.8252-11.42-10.9795l-2.2001-54.8271l-60.1387,2.2119
			c-6.1875,0.625-11.6153-4.7031-11.8496-11.002c-0.2295-6.3105,4.6963-11.6152,11.0122-11.8495l71.5249-2.6367
			c6.1709-0.5801,11.5932,4.6689,11.8447,10.9688l2.6582,66.2197c0.2568,6.3095-4.6577,11.626-10.9678,11.8839
			C374.6465,731.0537,374.4897,731.0537,374.3389,731.0537L374.3389,731.0537z"/>
	</g>
	<g>
		<path fill="#FFFFFF" d="M303.501,732.9971c-2.9263,0-5.8526-1.1172-8.086-3.3506c-4.4677-4.4678-4.4677-11.7051,0-16.1729
			l341.8653-341.8652c4.4677-4.4678,11.7051-4.4678,16.1728,0c4.4668,4.4673,4.4668,11.7051,0,16.1719L311.5869,729.6465
			C309.3535,731.8799,306.4268,732.9971,303.501,732.9971L303.501,732.9971z"/>
	</g>
	<g>
		<path fill="#FFFFFF" d="M586.1494,720.1416c-2.9258,0-5.8525-1.1162-8.0859-3.3506L308.292,447.0088
			c-4.4673-4.4678-4.4673-11.7051,0-16.1724c38.1865-38.2026,88.96-59.2397,142.9668-59.2397
			c54.0063,0,104.7803,21.0371,142.9775,59.2397c38.1973,38.1802,59.2383,88.9595,59.2383,142.9722
			c0,54.0117-21.041,104.7851-59.2383,142.9824C592.002,719.0254,589.0762,720.1416,586.1494,720.1416L586.1494,720.1416z
			 M332.8022,439.1738l253.1021,253.1016c28.9043-32.7578,44.6973-74.3955,44.6973-118.4668
			c0-47.9033-18.6631-92.936-52.5381-126.7998c-33.875-33.8809-78.9072-52.5381-126.8047-52.5381
			C407.1919,394.4707,365.5547,410.2637,332.8022,439.1738L332.8022,439.1738z"/>
	</g>
	<g>
		<path fill="#FFFFFF" d="M283.4023,472.9766c-21.6445-0.0171-39.2304-17.625-39.2304-39.2476
			c0-21.6284,17.5913-39.2251,39.2138-39.2251c6.3164,0,11.4371,5.1211,11.4371,11.4375c0,6.3154-5.1207,11.4365-11.4371,11.4365
			c-9.0078,0-16.3398,7.3321-16.3398,16.3511c0,9.0244,7.332,16.3677,16.3457,16.3735c4.5288-0.0058,8.7783-1.8877,11.9395-5.2939
			c0.4072-0.4356,0.8374-0.832,1.2954-1.1953l12.2187-12.2295c4.4673-4.4678,11.7105-4.4619,16.1782-0.0059
			c4.4673,4.4678,4.4673,11.7051,0.0054,16.1783l-13.2124,13.2236c-0.2793,0.2739-0.5644,0.5361-0.8662,0.7764
			C303.5459,468.9219,293.8286,472.9595,283.4023,472.9766L283.4023,472.9766z"/>
	</g>
	<g>
		<path fill="#FFFFFF" d="M592.0693,780.7656c-21.1425,0-38.3759-17.5791-38.4091-39.2021
			c0.0107-10.3985,3.9423-20.0928,11.1015-27.4864c0.2227-0.2792,0.4571-0.5585,0.7148-0.8154l12.8214-13.2129
			c4.4121-4.5342,11.6494-4.6347,16.1728-0.2462c4.5342,4.4014,4.6465,11.6387,0.2451,16.1729l-11.9053,12.2637
			c-0.3359,0.4462-0.7148,0.8603-1.1289,1.2509c-3.3164,3.1827-5.1367,7.4717-5.1484,12.0733
			c0.0117,8.9912,6.9805,16.3291,15.5361,16.3291c8.544,0,15.4912-7.3271,15.4912-16.3399c0-6.3221,5.1153-11.4375,11.4366-11.4375
			c6.3214,0,11.4365,5.1154,11.4365,11.4375C630.4336,763.1748,613.2227,780.7656,592.0693,780.7656L592.0693,780.7656z"/>
	</g>
	<g>
		<path fill="#FFFFFF" d="M729.1777,395.5205L729.1777,395.5205l-90.166-0.0332c-6.3222,0-11.4375-5.1211-11.4375-11.437
			l-0.0107-90.1323c0-0.4414,0.0224-0.877,0.0781-1.3125c-0.0225-13.2852,5.0371-25.6377,14.3525-34.9356
			c9.3028-9.3095,21.6895-14.4355,34.8682-14.4355c13.1904,0,25.5879,5.1372,34.9033,14.4634
			c10.7549,10.7553,15.502,25.2749,14.2285,39.353c14.4864-1.3291,29.0059,3.8642,39.3809,14.2461
			c9.3262,9.331,14.4639,21.7231,14.4639,34.8965c0,13.1738-5.1377,25.56-14.4639,34.8803
			c-9.2588,9.27-21.6562,14.3799-34.8906,14.3799l0,0h-0.0674C730.0146,395.498,729.5908,395.5205,729.1777,395.5205
			L729.1777,395.5205z M650.4482,372.6191l77.2774,0.0279c0.5918-0.0835,1.1728-0.1343,1.8096-0.0835c0.0214,0,0.0439,0,0.0663,0
			c8.0421,0,14.665-2.7256,19.5898-7.6621c5.0156-5.0039,7.7734-11.6494,7.7734-18.708c0-7.0694-2.7578-13.7207-7.7617-18.7242
			c-9.9853-9.9848-27.4531-9.9848-37.4375,0c-4.4677,4.4673-11.7051,4.4673-16.1728,0c-2.2334-2.2338-3.3506-5.1601-3.3506-8.0864
			c0-2.9258,1.1172-5.8525,3.3506-8.0859c10.3193-10.3203,10.3193-27.107,0-37.4268
			c-10.0069-10.0185-27.4424-10.0073-37.4268-0.0224c-5.1933,5.1826-7.8965,12.1909-7.6396,19.7353
			c0.0224,0.6475,0,1.29-0.0889,1.9155L650.4482,372.6191L650.4482,372.6191z"/>
	</g>
</g>
</svg>
