<?xml version="1.0" encoding="utf-8"?>
<!-- Generator: Adobe Illustrator 17.1.0, SVG Export Plug-In . SVG Version: 6.00 Build 0)  -->
<!DOCTYPE svg PUBLIC "-//W3C//DTD SVG 1.1//EN" "http://www.w3.org/Graphics/SVG/1.1/DTD/svg11.dtd">
<svg version="1.1" id="heart-label" xmlns="http://www.w3.org/2000/svg" xmlns:xlink="http://www.w3.org/1999/xlink" x="0px"
	 y="0px" viewBox="0 0 1024 1023.9942" enable-background="new 0 0 1024 1023.9942" xml:space="preserve">
<rect y="0" fill="#FF5551" width="1024" height="1023.9942"/>
<g id="heart-label-heart-label">
	<g>
		<path fill="#FFFFFF" d="M463.7842,817.8409c-7.3379,0-14.2456-2.8594-19.4561-8.0528l-193.019-193.0303
			c-5.1987-5.1933-8.0694-12.0957-8.0694-19.4453c-0.0053-7.3486,2.8648-14.2627,8.0694-19.4668l289.4956-289.4902
			c5.2266-5.2041,12.1289-8.0635,19.4668-8.0635h192.9746c7.3603,0,14.2734,2.8701,19.4785,8.0806
			c5.1934,5.1987,8.0527,12.1069,8.041,19.4448v192.9912c0,7.2598-2.9482,14.3574-8.0742,19.4727L483.2402,809.7764
			C477.9238,815.0039,471.0381,817.8409,463.7842,817.8409L463.7842,817.8409z M560.2715,303.1656
			c-1.2402,0-2.4121,0.4917-3.3057,1.3794L267.4814,594.0176c-1.1895,1.1953-1.3682,2.5693-1.3682,3.2842
			c0,0.7139,0.1787,2.088,1.3623,3.2724l193.0137,193.0303c2.6972,2.7022,5.0371,1.5078,6.6513-0.0674l289.3887-289.4448
			c0.8711-0.8716,1.3633-2.061,1.3633-3.2837V307.8008c0-1.6641-0.8495-2.7588-1.3516-3.2671
			c-0.5137-0.5083-1.6191-1.3681-3.2949-1.3681H560.2715L560.2715,303.1656z"/>
	</g>
	<g>
		<path fill="#FFFFFF" d="M677.0303,431.8413c-26.5713,0-48.1826-21.6225-48.1826-48.2046
			c-0.0108-12.872,5.0038-24.9843,14.1171-34.0927c9.1036-9.1084,21.1993-14.1231,34.0655-14.1231
			c26.5703,0,48.1933,21.6231,48.1933,48.2046C725.2236,410.2129,703.6006,431.8413,677.0303,431.8413L677.0303,431.8413z
			 M677.0303,358.295c-6.7569,0-13.1122,2.6357-17.8926,7.4213c-4.7803,4.7857-7.416,11.1519-7.416,17.9146
			c0,13.9726,11.3584,25.3369,25.3086,25.3369c13.9609,0,25.3193-11.3701,25.3193-25.3423
			C702.3496,369.6592,690.9912,358.295,677.0303,358.295L677.0303,358.295z"/>
	</g>
	<g>
		<path fill="#FFFFFF" d="M539.2402,644.6465L539.2402,644.6465c-2.4345,0-4.8574-0.0781-7.2929-0.2353l-97.291-6.3662
			c-5.6851-0.379-10.2305-4.8809-10.6553-10.5655l-7.3487-98.2627c-1.3686-21.9863,3.5293-42.7939,14.1563-60.3066
			c7.2822-11.917,13.9717-17.4341,16.2451-19.0986c13.8438-11.3584,30.7529-17.6128,47.6626-17.6128
			c17.1553,0,33.1997,6.6059,45.1831,18.5962c13.8721,13.8544,20.6514,32.8808,19.2666,51.8676
			c18.9531-1.6528,37.6161,4.9981,51.1416,18.5064c24.6494,24.667,25.0293,63.6455,0.9717,92.8408
			c-1.6758,2.3008-7.1816,8.9912-19.043,16.251C576.6445,639.6875,558.3398,644.6465,539.2402,644.6465L539.2402,644.6465z
			 M446.0703,615.8643l87.374,5.7178c16.8536,1.1953,33.3946-2.6914,46.8975-10.8555c8.9912-5.5068,12.4424-10.1748,12.4756-10.2305
			c14.8428-17.8818,19.6572-44.7988,1.3174-63.1484c-11.9278-11.9062-29.5635-15.2012-45.8135-8.8242
			c-4.2002,1.6425-9.0244,0.6709-12.2529-2.5459c-3.2168-3.2061-4.2325-8.0137-2.5801-12.2471
			c6.289-16.1943,2.457-34.5503-9.7608-46.7578c-15.9213-15.9268-43.2236-15.1782-62.4004,0.7207
			c-0.2958,0.2451-0.603,0.4746-0.9267,0.6924c0.0054,0,0.0054,0,0.0054,0c0.0112,0-4.6016,3.4843-10.0577,12.4194
			c-8.1752,13.4751-11.9448,29.687-10.8784,46.8472L446.0703,615.8643L446.0703,615.8643z"/>
	</g>
	<g>
		<path fill="#FFFFFF" d="M681.4307,381.3692c-6.3213,0-11.4366-5.1206-11.4366-11.4366c0-5.6064-4.5234-12.1513-9.7617-19.7353
			c-7.5721-10.9565-16.9883-24.5879-18.618-43.7593c-1.5079-17.479,8.0517-35.0254,16.4961-50.5112
			c6.8017-12.4639,14.4969-26.5928,11.0126-32.585c-3.1718-5.4555-1.33-12.4585,4.1319-15.6357
			c5.4502-3.2002,12.4648-1.335,15.6367,4.1323c9.9736,17.1274-0.5361,36.3989-10.7002,55.0396
			c-7.2256,13.2631-14.709,26.9843-13.793,37.6054c1.1172,13.1231,7.9961,23.0801,14.6534,32.7134
			c6.79,9.8286,13.8154,19.9976,13.8154,32.7358C692.8672,376.2486,687.752,381.3692,681.4307,381.3692L681.4307,381.3692z"/>
	</g>
</g>
</svg>
