<?xml version="1.0" encoding="utf-8"?>
<!-- Generator: Adobe Illustrator 17.1.0, SVG Export Plug-In . SVG Version: 6.00 Build 0)  -->
<!DOCTYPE svg PUBLIC "-//W3C//DTD SVG 1.1//EN" "http://www.w3.org/Graphics/SVG/1.1/DTD/svg11.dtd">
<svg version="1.1" id="heart-leaves" xmlns="http://www.w3.org/2000/svg" xmlns:xlink="http://www.w3.org/1999/xlink" x="0px"
	 y="0px" viewBox="0 0 1023.9942 1024" enable-background="new 0 0 1023.9942 1024" xml:space="preserve">
<rect x="0" fill="#FF5551" width="1023.9942" height="1024"/>
<g id="heart-leaves-heart-leaves">
	<g>
		<path fill="#FFFFFF" d="M511.9492,725.9043l-6.8906-5.2373c-2.0888-1.5869-6.8242-5.6514-13.5478-11.4707
			c-5.6407-4.8809-12.7549-11.0234-20.9248-17.9483l14.7871-17.4453c8.2314,6.9688,15.4077,13.168,21.0981,18.0928
			c2.0493,1.7647,3.8921,3.3623,5.5117,4.7695c5.7017-4.914,14.0728-12.2635,23.231-20.3046l3.7412-3.295l15.1006,17.2002
			l-3.7411,3.2832c-18.2276,16.0049-27.9111,24.4824-31.4512,27.1514L511.9492,725.9043L511.9492,725.9043z"/>
	</g>
	<g>
		<path fill="#FFFFFF" d="M752.2344,487.6465l-20.9072-9.2813c7.0029-15.7705,10.0293-30.9599,10.0967-50.7959
			c0.1005-30.2168-9.4717-55.8437-27.6875-74.1215c-18.7305-18.7974-46.5293-29.5748-76.294-29.5748
			c-20.3613,0-40.1182,4.9419-57.1289,14.2901c-25.0176,13.7768-39.6269,33.8916-47.4785,48.3389
			c-4.1212,7.6445-12.1182,12.414-20.8574,12.414c-8.6953,0-16.6748-4.7578-20.8301-12.4199
			c-7.8574-14.458-22.4771-34.5899-47.4619-48.3384c-16.9873-9.3428-36.751-14.2847-57.1563-14.2847
			c-29.7534,0-57.5527,10.772-76.2656,29.5577c-18.2275,18.3056-27.8052,43.9438-27.7046,74.1386
			c0.0728,17.9204,2.7808,35.2378,8.0527,51.4659l-21.7568,7.0703c-6.0034-18.4844-9.0913-38.1529-9.1694-58.4522
			c-0.123-36.4101,11.7607-67.6553,34.372-90.3613c22.9795-23.0635,56.6817-36.293,92.4717-36.293
			c24.2476,0,47.8252,5.9195,68.1802,17.1221c29.8433,16.4121,47.2163,40.3076,56.5366,57.4629l0.0108-0.0108l1.4799,0.0166
			c9.3091-17.1386,26.6773-41.0175,56.5533-57.4687c20.3828-11.2026,43.9492-17.1221,68.1523-17.1221
			c35.7959,0,69.5147,13.2295,92.4883,36.3042c22.6064,22.6724,34.4893,53.9116,34.3662,90.3443
			C764.2412,443.0664,762.8233,463.8179,752.2344,487.6465L752.2344,487.6465z"/>
	</g>
	<g>
		<path fill="#FFFFFF" d="M337.878,434.2764c-0.0166,0-0.0391,0-0.0557,0c-6.3159-0.0332-11.4146-5.1768-11.3809-11.4927
			c0.084-16.2954,13.9219-38.186,32.1827-50.9185c15.123-10.5547,31.4628-13.4365,46.0097-8.1699
			c5.9424,2.1499,9.0078,8.7114,6.8526,14.6475c-2.1504,5.9424-8.7232,9.0361-14.6485,6.8525
			c-9.4429-3.3955-18.8691,1.0664-25.1294,5.4336c-13.8218,9.6328-22.3598,25.2915-22.3935,32.2666
			C349.2813,429.1943,344.166,434.2764,337.878,434.2764L337.878,434.2764z"/>
	</g>
	<g>
		<path fill="#FFFFFF" d="M617.6846,718.5898c-11.7383,0-23.7002-1.6875-35.5391-5.0156
			c-29.4853-8.332-49.0088-24.124-49.2099-24.292c-1.0947-0.8604-2.2227-2.0107-3.2168-3.2832
			c-1.0049-1.3408-1.7647-2.6582-2.4346-4.1885c-1.7529-4.3789-9.8008-25.9003-9.5713-54.1132
			c0.2227-28.4356,9.1465-68.833,50.4375-99.7813c30.5918-22.9746,77.378-39.5098,139.0518-49.1484
			c45.0439-7.0537,80.8847-7.668,82.3926-7.69l0,0c6.4111,0,12.2294,2.9204,15.8818,7.8179
			c3.7188,4.9258,4.8476,11.4482,3.0039,17.3955c-0.0547,0.1953-10.6875,34.8965-30.3896,76.9473
			c-26.5147,56.5371-55.4756,96.834-86.044,119.7744C669.4405,709.9785,644.4229,718.5898,617.6846,718.5898L617.6846,718.5898z
			 M548.0244,672.0488c3.1612,2.3788,18.4844,13.336,40.3194,19.5117c31.8535,8.9024,63.1484,3.2842,89.9648-16.8418
			c27.5537-20.6738,54.1582-58.0898,79.0752-111.1972c14.8213-31.6192,24.3477-59.0493,27.7881-69.4419
			c-10.9902,0.3911-39.7949,1.8652-74.4404,7.2822c-57.9326,9.0581-101.2901,24.1411-128.8545,44.8482
			c-33.7969,25.3418-41.1123,58.4013-41.291,81.666C540.4073,650.1807,546.3711,667.626,548.0244,672.0488L548.0244,672.0488z"/>
	</g>
	<g>
		<path fill="#FFFFFF" d="M549.3535,691.7842c-3.3388,0-6.6455-1.4522-8.9013-4.2442c-3.9756-4.914-3.2168-12.1064,1.6982-16.083
			L700.501,543.3281c4.9141-3.9756,12.1182-3.2051,16.083,1.6983c3.9766,4.914,3.2168,12.1064-1.6973,16.0829L556.5352,689.2373
			C554.4239,690.9463,551.878,691.7842,549.3535,691.7842L549.3535,691.7842z"/>
	</g>
	<g>
		<path fill="#FFFFFF" d="M480.9229,691.7842c-2.5303,0-5.0713-0.8379-7.1875-2.5469L315.3843,561.1094
			c-4.9145-3.9766-5.6738-11.1689-1.6977-16.0829c3.976-4.9151,11.1689-5.6514,16.083-1.6983L488.1211,671.457
			c4.9141,3.9766,5.6739,11.169,1.6973,16.083C487.5567,690.332,484.2564,691.7842,480.9229,691.7842L480.9229,691.7842z"/>
	</g>
	<g>
		<path fill="#FFFFFF" d="M697.7198,618.5166c-0.335,0-0.6807-0.0107-1.0166-0.0439l-54.168-4.8028
			c-6.2988-0.5586-10.9453-6.1094-10.3867-12.3974c0.5586-6.2881,6.1982-10.9571,12.3965-10.3877l54.1689,4.8027
			c6.2998,0.5586,10.9453,6.1094,10.3877,12.3975C708.5762,614.0381,703.584,618.5166,697.7198,618.5166L697.7198,618.5166z"/>
	</g>
	<g>
		<path fill="#FFFFFF" d="M641.6973,611.2568c-0.7373,0-1.4854-0.0663-2.2334-0.2236c-6.1992-1.2168-10.2197-7.2363-8.9911-13.4355
			l10.5654-53.3418c1.2178-6.21,7.2715-10.3086,13.4365-8.9913c6.1983,1.2178,10.2188,7.2374,8.9903,13.4366l-10.5655,53.3418
			C651.8272,607.4932,647.0469,611.2568,641.6973,611.2568L641.6973,611.2568z"/>
	</g>
	<g>
		<path fill="#FFFFFF" d="M648.0635,669.0781c-0.335,0-0.6699-0.0117-1.0166-0.0449l-69.3799-6.1201
			c-6.2881-0.5586-10.9463-6.1094-10.3877-12.3975c0.5586-6.2881,5.9756-10.9238,12.3975-10.3867l69.3808,6.1201
			c6.2881,0.5586,10.9454,6.1094,10.3868,12.3975C658.92,664.5996,653.9278,669.0781,648.0635,669.0781L648.0635,669.0781z"/>
	</g>
	<g>
		<path fill="#FFFFFF" d="M576.3155,659.7852c-0.7373,0-1.4854-0.0665-2.2334-0.212c-6.1875-1.2285-10.2198-7.249-9.003-13.4472
			l13.5147-68.3194c1.2285-6.1875,7.2705-10.1972,13.4472-9.0019c6.1875,1.2285,10.2188,7.248,9.002,13.4473l-13.5137,68.3193
			C586.4453,656.0107,581.6651,659.7852,576.3155,659.7852L576.3155,659.7852z"/>
	</g>
	<g>
		<path fill="#FFFFFF" d="M406.3262,718.5898c-0.0059,0-0.0059,0-0.0059,0c-26.7431,0-51.7617-8.6113-74.3613-25.5771
			c-30.5972-22.9629-59.5469-63.2598-86.0332-119.7744c-19.708-41.9727-30.3574-76.752-30.4521-77.0811
			c-1.8037-5.7968-0.6758-12.3081,3.0488-17.2783c3.7085-4.9033,9.5161-7.8013,15.5693-7.8013
			c1.8155,0.022,37.667,0.6421,82.7168,7.69c61.6573,9.6386,108.4375,26.1738,139.0401,49.1484
			c41.2685,30.9483,50.2089,71.3457,50.4438,99.7813c0.2456,30.58-9.46,53.7783-9.5552,54.0019
			c-0.5415,1.3623-1.3623,2.836-2.3506,4.1426c-1.184,1.5312-2.3457,2.6924-3.6689,3.6973l0,0
			c0.0166,0-19.0933,15.6142-48.8525,24.0244C430.0152,716.9023,418.0591,718.5898,406.3262,718.5898L406.3262,718.5898z
			 M238.8277,494.0796c3.4736,10.5151,13.0063,37.9243,27.8047,69.4419c24.8842,53.0967,51.4829,90.501,79.0581,111.1972
			c18.5517,13.9268,38.9511,20.9971,60.6298,20.9971h0.0059c9.6445,0,19.5117-1.4072,29.335-4.166
			c21.9189-6.1992,37.1806-17.1445,40.3027-19.5127c1.4072-3.707,7.6392-21.4883,7.4551-44.1611
			c-0.19-23.2646-7.5113-56.3242-41.2969-81.666c-27.5811-20.7071-70.9326-35.7901-128.8486-44.8482
			C278.6504,495.9448,249.8516,494.4707,238.8277,494.0796L238.8277,494.0796z"/>
	</g>
	<g>
		<path fill="#FFFFFF" d="M326.2627,618.5166c-5.8637,0-10.8564-4.4785-11.3808-10.4316
			c-0.5586-6.2881,4.0879-11.8389,10.3808-12.3975l54.169-4.8027c6.4336-0.5586,11.8501,4.0995,12.4033,10.3877
			c0.5581,6.288-4.0879,11.8388-10.3818,12.3974l-54.1685,4.8028C326.9385,618.5059,326.5977,618.5166,326.2627,618.5166
			L326.2627,618.5166z"/>
	</g>
	<g>
		<path fill="#FFFFFF" d="M382.2852,611.2568c-5.3496,0-10.1299-3.7744-11.208-9.2137l-10.543-53.3418
			c-1.2231-6.1992,2.8032-12.2188,9.002-13.4473c6.2265-1.1846,12.2129,2.8252,13.436,9.002l10.5435,53.3418
			c1.2226,6.1992-2.8038,12.2187-9.002,13.4472C383.7652,611.1904,383.0166,611.2568,382.2852,611.2568L382.2852,611.2568z"/>
	</g>
	<g>
		<path fill="#FFFFFF" d="M375.9414,669.0781c-5.8632,0-10.8559-4.4785-11.3808-10.4316
			c-0.5528-6.2881,4.0932-11.8389,10.3867-12.3975l69.3696-6.1201c6.3272-0.5254,11.8443,4.0986,12.397,10.3867
			c0.5532,6.2881-4.0928,11.8389-10.3867,12.3975l-69.3692,6.1201C376.6172,669.0664,376.2764,669.0781,375.9414,669.0781
			L375.9414,669.0781z"/>
	</g>
	<g>
		<path fill="#FFFFFF" d="M447.6895,659.7852c-5.3496,0-10.1299-3.7745-11.2075-9.2139l-13.5142-68.3193
			c-1.2285-6.1993,2.8032-12.2188,9.002-13.4473c6.1875-1.2061,12.2075,2.8144,13.436,9.0019L458.92,646.126
			c1.2285,6.1982-2.8033,12.2188-9.002,13.4472C449.17,659.7187,448.4268,659.7852,447.6895,659.7852L447.6895,659.7852z"/>
	</g>
</g>
</svg>
