<?xml version="1.0" encoding="utf-8"?>
<!-- Generator: Adobe Illustrator 17.1.0, SVG Export Plug-In . SVG Version: 6.00 Build 0)  -->
<!DOCTYPE svg PUBLIC "-//W3C//DTD SVG 1.1//EN" "http://www.w3.org/Graphics/SVG/1.1/DTD/svg11.dtd">
<svg version="1.1" id="love-bird" xmlns="http://www.w3.org/2000/svg" xmlns:xlink="http://www.w3.org/1999/xlink" x="0px" y="0px"
	 viewBox="0 0 1024 1023.9942" enable-background="new 0 0 1024 1023.9942" xml:space="preserve">
<rect y="0" fill="#FF5551" width="1024" height="1023.9942"/>
<g id="love-bird-love-bird">
	<g>
		<path fill="#FFFFFF" d="M512.335,673.9639c-2.3233,0-4.6631-0.7031-6.69-2.167c-48.1489-34.8125-68.1636-91.8291-50.9858-145.25
			c4.9814-15.5132,12.8442-28.106,23.8457-38.1133c-25.1021-16.29-44.5137-40.1518-55.3081-68.1406
			c-17.25,5.6904-45.8364,14.0166-52.8506,16.0493c-5.1157,1.4907-10.5825-0.7651-13.1792-5.4223
			c-2.5913-4.6631-1.6191-10.4932,2.3398-14.0616l41.4366-37.3261l-26.7832-52.2647c-2.502-4.8916-1.1783-10.8726,3.1611-14.2456
			c4.3447-3.3677,10.4648-3.1772,14.5859,0.4526c7.2598,6.4053,17.7251,14.9434,26.3086,21.0249
			c17.1944-67.5151,82.7442-114.1562,153.4365-106.1928c37.6954,4.2275,71.4805,22.8906,95.1358,52.5381
			c23.6445,29.6474,34.333,66.7392,30.0889,104.4394c-3.5743,31.8032-17.4229,60.7358-40.0401,83.6602
			c-4.4336,4.5063-11.6933,4.5507-16.1729,0.1113c-4.5-4.4395-4.545-11.6768-0.1114-16.1724
			c18.9873-19.2383,30.5918-43.4966,33.585-70.1508c3.5625-31.6358-5.3945-62.752-25.2412-87.625
			c-19.836-24.8731-48.1826-40.5206-79.8018-44.0723c-63.9858-7.2261-122.9961,38.957-131.3613,102.9258
			c-0.4526,3.4292-2.4297,6.4785-5.3892,8.2763c-2.9653,1.8096-6.5727,2.167-9.8227,0.9995
			c-1.6812-0.603-3.541-1.4628-5.5122-2.5131l8.3042,16.2006c2.3623,4.6128,1.3291,10.2417-2.5244,13.7154l-9.9795,8.9907
			c6.2158-1.9937,10.9067-3.6021,12.7383-4.4395c3.0268-1.3735,6.5058-1.3852,9.5214,0.0054c3.0215,1.3906,5.2881,4.021,6.2154,7.21
			c9.4712,32.6513,32.5239,59.7861,63.2436,74.4394c3.8306,1.8262,6.3325,5.6241,6.5,9.8623
			c0.1729,4.2383-2.0215,8.2256-5.6904,10.3536c-9.0635,5.249-21.919,14.7426-28.8994,36.4775
			c-14.0947,43.8262,2.6303,90.8242,42.6094,119.7178c5.1152,3.6972,6.2656,10.8564,2.5683,15.9716
			C519.377,672.3223,515.8809,673.9639,512.335,673.9639L512.335,673.9639z"/>
	</g>
	<g>
		<path fill="#FFFFFF" d="M598.9824,702.7793c-20.4385-0.4023-40.6992-4.8359-61.1933-13.1455
			c-2.2901-0.916-7.3272-3.7197-20.3496-11.1357c-4.7637-2.713-8.9131-5.0928-10.1524-5.7178
			c-5.6465-2.8037-7.9692-9.6728-5.1714-15.3232c2.8091-5.6524,9.6109-7.9864,15.2906-5.1827
			c1.3232,0.6475,5.997,3.295,11.3583,6.3438c5.8858,3.3623,15.7481,8.9687,17.7247,9.8623
			c17.8144,7.2256,35.3378,11.0898,51.9911,11.4473l20.8847-1.4063c24.9737-3.999,48.8086-17.5351,69.8057-40.1074
			c4.3223-4.6348,11.5596-4.8701,16.1611-0.5918c4.6241,4.2998,4.8916,11.5371,0.5918,16.1611
			c-24.5713,26.4141-52.8398,42.3184-84.0234,47.2432L598.9824,702.7793L598.9824,702.7793z"/>
	</g>
	<path fill="#FFFFFF" d="M513.0498,340.3799c-1.0049,8.6445-8.8008,14.8604-17.4121,13.8887
		c-8.6782-0.9663-14.8877-8.7622-13.916-17.4068c0.9717-8.645,8.7451-14.8769,17.4121-13.9052
		C507.8008,323.9283,514.0107,331.7354,513.0498,340.3799z"/>
	<g>
		<path fill="#FFFFFF" d="M721.6602,768.8984c-4.3663,0-8.5323-2.502-10.4424-6.7461l-36.9912-82.1348
			c-2.5909-5.7519-0.0225-12.5205,5.7412-15.123c5.7402-2.5909,12.5205-0.0332,15.122,5.7412l36.9913,82.1357
			c2.5908,5.752,0.0224,12.5195-5.7413,15.1221C724.8213,768.5752,723.2246,768.8984,721.6602,768.8984L721.6602,768.8984z"/>
	</g>
	<g>
		<path fill="#FFFFFF" d="M692.4541,792.1075c-3.373,0-6.7119-1.4854-8.9678-4.3223c-3.9316-4.9473-3.1054-12.1406,1.8418-16.0723
			l29.2072-23.208c4.9365-3.9209,12.1512-3.0937,16.0721,1.8428c3.9307,4.9473,3.1046,12.1406-1.8437,16.0723l-29.2061,23.2081
			C697.458,791.292,694.9453,792.1075,692.4541,792.1075L692.4541,792.1075z"/>
	</g>
	<g>
		<path fill="#FFFFFF" d="M632.4893,773.3662c-4.7471,0-9.1807-2.9707-10.8116-7.7061l-23.8232-69.1348
			c-2.0547-5.9756,1.1172-12.4873,7.081-14.542c5.9756-2.0439,12.4864,1.1055,14.542,7.0811l23.8233,69.1348
			c2.0547,5.9746-1.1172,12.4863-7.0811,14.542C634.9795,773.1651,633.7285,773.3662,632.4893,773.3662L632.4893,773.3662z"/>
	</g>
	<g>
		<path fill="#FFFFFF" d="M603.2715,796.5752c-3.3731,0-6.7129-1.4853-8.9688-4.3222c-3.9316-4.9483-3.1045-12.1407,1.8428-16.0723
			l29.2295-23.208c4.9697-3.9317,12.1514-3.0938,16.0713,1.8418c3.9316,4.9482,3.1045,12.1406-1.8428,16.0723l-29.2285,23.209
			C608.2637,795.7598,605.7617,796.5752,603.2715,796.5752L603.2715,796.5752z"/>
	</g>
	<g>
		<path fill="#FFFFFF" d="M698.541,651.5489c-0.0107,0-0.0107,0-0.0107,0c-5.6514,0-11.3369-0.6036-16.9209-1.8213
			c-2.8369-0.4356-11.3701-2.2666-23.3321-9.5381c-17.7353-10.8672-31.7519-27.2628-40.5644-47.4561l-39.2813-90.1933
			c-2.2783-5.2276-0.3574-11.3311,4.502-14.313l84.7256-52.0635c18.9756-11.3306,39.873-16.6582,60.5908-15.1728
			c13.9951,0.9829,22.0254,4.4399,24.5938,5.7299c35.037,15.0996,52.6943,50.1866,42.0058,83.5811
			c-5.998,18.8369-19.9473,33.7246-37.6387,41.2519c10.2862,16.128,13.0782,35.7178,7.1143,54.4366
			C755.4688,633.667,729.6465,651.5489,698.541,651.5489L698.541,651.5489z M603.3721,502.5117l35.3154,81.086
			c6.9141,15.8594,17.8145,28.6816,31.5078,37.0683c9.0908,5.5176,14.8877,6.4561,14.9551,6.4669
			c5.0703,1.084,9.2471,1.542,13.3799,1.542c20.9746,0,38.2412-11.6269,44.0049-29.6425
			c5.2382-16.4512,0.2675-33.3604-13.3135-45.2334c-3.417-2.9932-4.7471-7.7178-3.3731-12.0508
			c1.3633-4.334,5.1602-7.4492,9.6836-7.9297c17.4903-1.877,32.2334-13.8389,37.5274-30.4746
			c7.9853-24.9566-8.835-46.9365-29.5752-55.749c-0.3682-0.1563-0.7256-0.3291-1.083-0.5249c0.0107,0,0.0107,0,0.0107,0
			c-0.0225,0-5.2715-2.524-15.7705-3.2613c-16.0381-1.0947-32.2998,3.0659-47.1318,11.9229L603.3721,502.5117L603.3721,502.5117z"/>
	</g>
	<g>
		<path fill="#FFFFFF" d="M295.085,375.6568c-2.0494,0-4.1153-0.5474-5.9751-1.6866l-38.5992-23.6665
			c-9.6777-6.1093-16.9321-14.5029-21.1035-24.3427c-3.1885-7.5611-3.289-12.7159-3.2446-14.1172
			c-1.3516-19.2217,11.7495-36.8682,30.4907-39.917c8.6558-1.419,17.0049,0.3013,24.0742,4.3276
			c5.3501-6.1264,12.6768-10.2807,21.0811-11.6435c19.2607-3.0713,36.8408,9.8174,41.8999,29.3296
			c0.1621,0.3012,1.6421,5.1709,1.0552,13.2627c-0.854,10.7607-5.1153,21.0307-12.3301,29.7592l-28.5254,34.5396
			C301.6689,374.2158,298.3965,375.6568,295.085,375.6568L295.085,375.6568z M262.5449,294.3199c-0.7314,0-1.48,0.0615-2.2285,0.184
			c-8.0801,1.3125-11.8105,9.5161-11.3135,16.9375c0.0225,0.6534,0.145,2.4688,1.4742,5.6123
			c2.3344,5.5118,6.5278,10.2979,12.1235,13.8272l29.9995,18.395l22.1978-26.8774c4.205-5.0933,6.6792-10.9453,7.1538-16.9322
			c0.2514-3.4067-0.2178-5.2158-0.2232-5.2329c-2.3174-8.8676-9.0019-14.2622-16.2617-13.039
			c-5.2275,0.8427-9.1865,4.6347-10.5996,10.1411c-1.1333,4.4004-4.7632,7.7124-9.2476,8.4438
			c-4.518,0.7149-8.98-1.2734-11.4424-5.0932C271.6416,296.7603,267.1855,294.3199,262.5449,294.3199L262.5449,294.3199z"/>
	</g>
</g>
</svg>
