<?xml version="1.0" encoding="utf-8"?>
<!-- Generator: Adobe Illustrator 17.1.0, SVG Export Plug-In . SVG Version: 6.00 Build 0)  -->
<!DOCTYPE svg PUBLIC "-//W3C//DTD SVG 1.1//EN" "http://www.w3.org/Graphics/SVG/1.1/DTD/svg11.dtd">
<svg version="1.1" id="love-stamp" xmlns="http://www.w3.org/2000/svg" xmlns:xlink="http://www.w3.org/1999/xlink" x="0px" y="0px"
	 viewBox="0 0 1024 1023.9942" enable-background="new 0 0 1024 1023.9942" xml:space="preserve">
<rect y="0" fill="#FF5551" width="1024" height="1023.9942"/>
<g id="love-stamp-love-stamp">
	<g>
		<g>
			<path fill="#FFFFFF" d="M689.1934,716.4278H334.7847c-15.0108,0-27.2183-12.2188-27.2183-27.2295V334.7959
				c0-15.0166,12.2075-27.2295,27.2183-27.2295h354.4087c15.0214,0,27.2402,12.2129,27.2402,27.2295v354.4024
				C716.4336,704.209,704.2148,716.4278,689.1934,716.4278L689.1934,716.4278z M334.7847,330.4395
				c-2.396,0-4.3448,1.9551-4.3448,4.3564v354.4024c0,2.4013,1.9488,4.3564,4.3448,4.3564h354.4087
				c2.4121,0,4.3671-1.9551,4.3671-4.3564V334.7959c0-2.4013-1.955-4.3564-4.3671-4.3564H334.7847L334.7847,330.4395z"/>
		</g>
		<g>
			<path fill="#FFFFFF" d="M695.8047,780.7598c-14.3633,0-27.6201-6.1758-36.7676-17.0322
				c-9.1357,10.8447-22.4043,17.0322-36.7451,17.0322c-14.3633,0-27.6318-6.1758-36.7793-17.0322
				c-9.1357,10.8447-22.4043,17.0322-36.7451,17.0322c-14.3516,0-27.6153-6.1758-36.7676-17.0215
				c-9.1699,10.8457-22.4326,17.0215-36.7676,17.0215c-14.3574,0-27.6152-6.1758-36.7622-17.0322
				c-9.1138,10.8447-22.3882,17.0322-36.7622,17.0322c-14.3291,0-27.5869-6.1758-36.7617-17.0215
				c-9.125,10.834-22.3994,17.0215-36.7734,17.0215c-22.6783,0-42.2574-15.8369-47.0713-37.8613
				c-22.0137-4.8028-37.8672-24.3936-37.8672-47.0879c0-14.3301,6.165-27.5869,17.0097-36.7569
				c-10.8559-9.2138-17.0097-22.4716-17.0097-36.7783c0-14.1289,6.3154-27.6767,17.0156-36.7461
				c-10.8452-9.1699-17.0156-22.4267-17.0156-36.7676c0-14.3291,6.165-27.5869,17.0097-36.7617
				c-10.8393-9.1533-17.0097-22.416-17.0097-36.7627c0-14.3349,6.1704-27.5923,17.0156-36.7617
				c-10.8398-9.1474-17.0156-22.4101-17.0156-36.7451c0-14.3355,6.1704-27.5986,17.0097-36.7734
				c-10.8505-9.1973-17.0097-22.4493-17.0097-36.7676c0-22.7007,15.8427-42.2798,37.8672-47.0767
				c4.8086-22.0307,24.3877-37.8789,47.0713-37.8789c14.3408,0,27.6035,6.1704,36.7675,17.021
				c9.2032-10.8559,22.4551-17.021,36.7676-17.021c14.1231,0,27.6816,6.3267,36.7622,17.0376
				c9.0523-10.6992,22.6226-17.0376,36.7622-17.0376c14.3184,0,27.5757,6.1704,36.7676,17.021
				c9.1523-10.8447,22.416-17.021,36.7676-17.021c14.3183,0,27.5762,6.1704,36.7451,17.0269
				c9.0576-10.6944,22.6279-17.0269,36.7793-17.0269c14.3184,0,27.5644,6.1704,36.7451,17.0269
				c9.1367-10.8394,22.4043-17.0269,36.7676-17.0269c22.706,0,42.2851,15.8428,47.0762,37.8736
				c22.0255,4.791,37.8847,24.3813,37.8847,47.082c0,14.3291-6.1758,27.5923-17.0322,36.7676
				c10.8447,9.1416,17.0322,22.416,17.0322,36.7734c0,14.335-6.1758,27.5869-17.0322,36.7451
				c10.8447,9.1416,17.0322,22.4102,17.0322,36.7617c0,14.3467-6.1758,27.604-17.0215,36.7627
				c10.834,9.1465,17.0215,22.4102,17.0215,36.7617c0,14.3409-6.1758,27.5977-17.0322,36.7676
				c10.6885,9.0244,17.0322,22.5948,17.0322,36.7461c0,14.3291-6.1758,27.586-17.0215,36.7783
				c10.8457,9.1475,17.0215,22.4043,17.0215,36.7569c0,22.6943-15.8475,42.2734-37.8847,47.0879
				C738.0898,764.9121,718.5107,780.7598,695.8047,780.7598L695.8047,780.7598z M659.0488,739.6035
				c6.5225,0,12.5645,3.004,16.585,8.2531c4.8252,6.3886,12.1748,10.0302,20.1709,10.0302c12.1738,0,22.6279-8.6562,24.873-20.5839
				c1.5977-8.4668,8.1084-14.9776,16.586-16.6084c11.9619-2.2559,20.6289-12.7217,20.6289-24.8838
				c0-7.9865-3.6416-15.335-9.9961-20.1485c-5.2949-4.0429-8.3096-10.0966-8.2988-16.6416
				c0.0117-6.5449,3.038-12.5761,8.2988-16.5752c6.3437-4.8242,9.9961-12.1845,9.9961-20.1699
				c0-7.9863-3.6416-15.3242-9.9854-20.1152c-5.3164-4.0771-8.3203-10.1416-8.3094-16.6641
				c0.0117-6.5224,3.0273-12.5644,8.2763-16.5635c6.377-4.8359,10.0186-12.1844,10.0186-20.1709
				c0-7.9853-3.6416-15.3349-9.9961-20.1601c-5.2832-4.0312-8.2988-10.0742-8.2988-16.5962c0-6.5229,3.0038-12.5708,8.2646-16.5913
				c6.3887-4.8418,10.0303-12.1851,10.0303-20.1768c0-7.9853-3.6416-15.3291-9.9961-20.1425
				c-5.2949-4.0489-8.2988-10.0967-8.2988-16.6192c0-6.5224,3.0156-12.5703,8.2646-16.5913
				c6.3887-4.8413,10.0303-12.1743,10.0303-20.1538c0-7.9912-3.6416-15.3408-9.9961-20.1655
				c-5.3057-4.0601-8.3096-10.1187-8.2988-16.6529c0.0117-6.5224,3.0273-12.5537,8.287-16.5517
				c6.3554-4.8364,10.0078-12.1856,10.0078-20.1709c0-12.169-8.6563-22.6279-20.5957-24.8731
				c-8.4883-1.6084-15.0108-8.1201-16.6192-16.6025c-2.2451-11.9507-12.6992-20.6064-24.873-20.6064
				c-7.9961,0-15.334,3.6411-20.1484,9.9848c-8.1192,10.6157-25.2081,10.5435-33.2159,0.0171
				c-4.8359-6.3555-12.1738-10.0019-20.1484-10.0019c-7.9971,0-15.3457,3.6411-20.1602,9.9848
				c-8.1191,10.6157-25.208,10.5435-33.2158,0.0171c-4.8359-6.3555-12.1738-10.0019-20.1484-10.0019
				c-7.9971,0-15.3457,3.6411-20.1709,9.996c-8.086,10.5826-25.208,10.5323-33.1992-0.0058
				c-4.836-6.3438-12.1905-9.9902-20.1651-9.9902c-7.9858,0-15.3237,3.6411-20.1377,9.9848
				c-8.1084,10.5991-25.1743,10.5547-33.2158,0.0444c-9.6836-12.7597-30.6416-12.749-40.3472-0.0219
				c-7.9692,10.5044-25.1245,10.5488-33.1772,0.0112c-4.8413-6.3774-12.1904-10.0185-20.1816-10.0185
				c-12.1573,0-22.6172,8.6611-24.8731,20.6005c-1.6084,8.4942-8.125,15.0059-16.6133,16.6084
				c-11.9228,2.2393-20.5791,12.7041-20.5791,24.8731c0,7.98,3.6416,15.3345,9.9961,20.1763
				c5.25,3.9873,8.2764,10.018,8.2876,16.5463c0.0112,6.5396-3.0044,12.5987-8.2759,16.6304
				c-6.3662,4.8472-10.0078,12.1968-10.0078,20.188c0,7.9741,3.6357,15.3125,9.9795,20.1318
				c5.2832,4.0371,8.3042,10.085,8.3042,16.6133s-3.021,12.5762-8.2817,16.5967c-6.3604,4.8359-10.002,12.1797-10.002,20.165
				c0,7.9917,3.6357,15.335,9.9795,20.1543c5.2886,4.0376,8.3042,10.0855,8.3042,16.6138c0,6.5278-3.0268,12.5757-8.293,16.5854
				c-6.3491,4.836-9.9907,12.1856-9.9907,20.1709c0,7.9865,3.6416,15.335,9.9854,20.1602
				c5.2656,4.0098,8.2871,10.0518,8.2983,16.5742c0.0112,6.5332-3.0044,12.5869-8.2705,16.6192
				c-6.3774,4.8359-10.0132,12.1738-10.0132,20.1601c0,7.9854,3.647,15.3457,9.9961,20.1924
				c5.2442,3.9648,8.2764,10.0078,8.2876,16.5527c0.0112,6.545-3.0156,12.6094-8.2983,16.6299
				c-6.3438,4.8252-9.9854,12.1738-9.9854,20.1602c0,12.162,8.6563,22.6279,20.5845,24.8838
				c8.5049,1.6191,15.0107,8.1416,16.6079,16.5966c2.2559,11.9395,12.7158,20.5958,24.8731,20.5958
				c8.0024,0,15.3457-3.6416,20.1596-9.9854c8.1255-10.5986,25.2193-10.5322,33.2105-0.0225
				c9.6665,12.7441,30.6972,12.6992,40.2968,0.0225c8.0977-10.5879,25.1968-10.543,33.2276-0.0449
				c9.6606,12.7665,30.6582,12.7665,40.3359,0.0224c8.0137-10.5429,25.1074-10.5322,33.1709-0.0332
				c9.6836,12.7881,30.6924,12.7773,40.3311,0.045c8.0967-10.5772,25.1748-10.5215,33.2041-0.0342
				c9.6279,12.7441,30.6816,12.7773,40.3203,0.0342C646.4727,742.6075,652.5146,739.6035,659.0488,739.6035L659.0488,739.6035z"/>
		</g>
	</g>
	<g>
		<path fill="#FFFFFF" d="M512,628.9766c-2.9263,0-5.8525-1.1172-8.0859-3.3516L399.9209,521.6328
			c-0.3516-0.3457-0.6758-0.7148-0.9717-1.0996c-14.2676-14.0005-22.1025-32.4736-22.1025-52.248
			c0-40.3975,32.875-73.2676,73.2783-73.2676c25.9785,0,48.8525,13.5811,61.875,34.0039
			c13.0225-20.4228,35.8848-34.0039,61.8643-34.0039c40.4081,0,73.289,32.8701,73.289,73.2676
			c0,19.7295-7.7734,38.1636-21.9464,52.1308c-0.3242,0.4297-0.6816,0.837-1.0605,1.2227L520.0859,625.625
			C517.8525,627.8594,514.9258,628.9766,512,628.9766L512,628.9766z M417.3779,506.7451L512,601.3672l94.6328-94.5664
			c0.4248-0.5976,0.916-1.1616,1.4745-1.6758c10.4317-9.7558,16.1729-22.8398,16.1729-36.8398
			c0-27.7881-22.6172-50.3936-50.416-50.3936c-27.8106,0-50.4278,22.6055-50.4278,50.3936c0,6.3159-5.1201,11.4365-11.4365,11.4365
			c-6.3159,0-11.4365-5.1206-11.4365-11.4365c0-27.7881-22.6284-50.3936-50.4385-50.3936
			c-27.7939,0-50.4053,22.6055-50.4053,50.3936c0,14.0058,5.7691,27.0957,16.2451,36.874
			C416.4902,505.6446,416.959,506.1753,417.3779,506.7451L417.3779,506.7451z"/>
	</g>
</g>
</svg>
