<?xml version="1.0" encoding="utf-8"?>
<!-- Generator: Adobe Illustrator 17.1.0, SVG Export Plug-In . SVG Version: 6.00 Build 0)  -->
<!DOCTYPE svg PUBLIC "-//W3C//DTD SVG 1.1//EN" "http://www.w3.org/Graphics/SVG/1.1/DTD/svg11.dtd">
<svg version="1.1" id="love-cruise" xmlns="http://www.w3.org/2000/svg" xmlns:xlink="http://www.w3.org/1999/xlink" x="0px"
	 y="0px" viewBox="0 0 1024 1024" enable-background="new 0 0 1024 1024" xml:space="preserve">
<rect fill="#FF5551" width="1024" height="1024"/>
<g id="love-cruise-love-cruise">
	<g>
		<g>
			<path fill="#FFFFFF" d="M642.4072,773.417H381.5928l-3.3223-3.2061c-105.668-101.7921-93.7842-186.1611-93.2261-189.7011
				l1.0386-6.5899l219.1992-82.2021c4.2661-1.6084,9.1475-1.6201,13.4805,0.0107l219.1484,82.1914l1.0391,6.5899
				c0.5469,3.54,12.4424,87.9091-93.2256,189.7011L642.4072,773.417L642.4072,773.417z M390.8521,750.543h242.2963
				c77.1983-75.9815,83.6094-140.2354,83.5197-160.1602L512.0059,513.625l-204.6856,76.7578
				C307.2256,610.2295,313.603,674.5176,390.8521,750.543L390.8521,750.543z"/>
		</g>
		<g>
			<path fill="#FFFFFF" d="M678.2246,654.3691c-1.3848,0-2.7803-0.2461-4.1426-0.7822l-157.7041-61.3164L349.7285,653.665
				c-5.8974,2.1778-12.5034-0.8486-14.687-6.7793c-2.1831-5.9306,0.8545-12.498,6.7798-14.6875l174.7803-64.3877l165.7675,64.4668
				c5.8858,2.2891,8.8008,8.9122,6.5108,14.7979C687.127,651.5986,682.8047,654.3691,678.2246,654.3691L678.2246,654.3691z"/>
		</g>
		<g>
			<path fill="#FFFFFF" d="M568.3691,431.8975h-22.874v-45.3623c-1.251-0.7872-4.1318-1.9488-8.3203-1.9488h-50.3496
				c-4.1826,0-7.0586,1.1616-8.3096,1.9488v45.3623h-22.873v-47.0098c0-13.2124,13.4077-23.1748,31.1826-23.1748h50.3496
				c17.7803,0,31.1943,9.9624,31.1943,23.1748V431.8975L568.3691,431.8975z"/>
		</g>
		<g>
			<path fill="#FFFFFF" d="M694.1631,565.4316h-22.874V446.3721c0-2.982-2.4346-5.4053-5.4161-5.4053H358.1274
				c-2.9819,0-5.4057,2.4233-5.4057,5.4053v119.0595h-22.8736V446.3721c0-15.5918,12.688-28.2793,28.2793-28.2793H665.873
				c15.6026,0,28.2901,12.6875,28.2901,28.2793V565.4316L694.1631,565.4316z"/>
		</g>
		<g>
			<path fill="#FFFFFF" d="M646.7852,476.8965h-22.8623c-6.3214,0-11.4375-5.1211-11.4375-11.4365
				c0-6.3164,5.1161-11.4375,11.4375-11.4375h22.8623c6.3212,0,11.4365,5.1211,11.4365,11.4375
				C658.2217,471.7754,653.1064,476.8965,646.7852,476.8965L646.7852,476.8965z M589.6123,476.8965h-22.874
				c-6.3213,0-11.4365-5.1211-11.4365-11.4365c0-6.3164,5.1152-11.4375,11.4365-11.4375h22.874
				c6.3213,0,11.4365,5.1211,11.4365,11.4375C601.0488,471.7754,595.9336,476.8965,589.6123,476.8965L589.6123,476.8965z
				 M532.4277,476.8965h-22.874c-6.3154,0-11.4365-5.1211-11.4365-11.4365c0-6.3164,5.1211-11.4375,11.4365-11.4375h22.874
				c6.3214,0,11.4366,5.1211,11.4366,11.4375C543.8643,471.7754,538.749,476.8965,532.4277,476.8965L532.4277,476.8965z
				 M475.2432,476.8965h-22.8731c-6.3164,0-11.4375-5.1211-11.4375-11.4365c0-6.3164,5.1211-11.4375,11.4375-11.4375h22.8731
				c6.3164,0,11.4375,5.1211,11.4375,11.4375C486.6807,471.7754,481.5596,476.8965,475.2432,476.8965L475.2432,476.8965z
				 M418.0596,476.8965h-22.8741c-6.3159,0-11.4365-5.1211-11.4365-11.4365c0-6.3164,5.1206-11.4375,11.4365-11.4375h22.8741
				c6.3154,0,11.4365,5.1211,11.4365,11.4375C429.4961,471.7754,424.375,476.8965,418.0596,476.8965L418.0596,476.8965z"/>
		</g>
		<g>
			<path fill="#FFFFFF" d="M736.6377,773.417H287.373c-6.3159,0-11.4365-5.1152-11.4365-11.4365
				c0-6.3223,5.1206-11.4374,11.4365-11.4374h449.2647c6.3213,0,11.4375,5.1152,11.4375,11.4374
				C748.0752,768.3018,742.959,773.417,736.6377,773.417L736.6377,773.417z"/>
		</g>
		<g>
			<path fill="#FFFFFF" d="M642.2949,809.3584H381.7158c-6.3159,0-11.4365-5.1162-11.4365-11.4375s5.1206-11.4365,11.4365-11.4365
				h260.5791c6.3223,0,11.4375,5.1152,11.4375,11.4365S648.6172,809.3584,642.2949,809.3584L642.2949,809.3584z"/>
		</g>
		<g>
			<polygon fill="#FFFFFF" points="523.4365,761.9805 500.5635,761.9805 500.5635,502.4282 523.4365,502.4282 523.4365,761.9805 			
				"/>
		</g>
	</g>
	<g>
		<g>
			<path fill="#FFFFFF" d="M556.7646,353.5371c-2.6582,0-5.3164-0.9214-7.4609-2.7695l-33.3389-28.7041
				c-8.3989-7.4107-14.1005-16.6475-16.58-26.8052c-1.6363-6.7124-1.3291-11.3813-1.0386-13.4248
				c2.0102-19.73,17.3843-34.5562,35.9018-34.5562c8.2872,0,16.128,2.8536,22.3829,7.8125
				c6.1093-4.998,13.7928-7.8125,22.0693-7.8125c18.54,0,33.9082,14.8379,35.9072,34.5674
				c0.2794,2.0323,0.5811,6.6953-1.0497,13.4024c-2.501,10.2304-8.209,19.4726-16.5186,26.7549l-32.7354,28.6982
				C562.1484,352.5879,559.4561,353.5371,556.7646,353.5371L556.7646,353.5371z M520.9404,285.4072
				c0.0342,0-0.0107,1.6587,0.6651,4.4346c1.3623,5.584,4.6123,10.7666,9.3818,14.977l25.71,22.1309l25.2636-22.1533
				c4.7579-4.1655,7.9971-9.3423,9.3711-14.9663c0.7705-3.1436,0.6143-4.8692,0.6143-4.8863
				c-0.7373-7.6674-5.4619-14.7929-13.2461-14.7929c-5.0264,0-9.3037,2.937-11.4482,7.8628
				c-1.8204,4.166-5.9307,6.8633-10.4649,6.8691c-0.0117,0-0.0117,0-0.0225,0c-4.5341,0-8.6445-2.6807-10.4658-6.8359
				c-2.1103-4.7969-6.8457-7.896-12.0508-7.896c-7.7734,0-12.5087,7.1313-13.1621,14.1733
				c-0.0332,0.3682-0.0839,0.7373-0.1562,1.0996C520.9355,285.4131,520.9355,285.4072,520.9404,285.4072L520.9404,285.4072z"/>
		</g>
		<g>
			<path fill="#FFFFFF" d="M617.3438,311.8437c-2.6583,0-5.3165-0.9208-7.4717-2.7753l-11.001-9.4825
				c-4.7803-4.1211-5.3164-11.3418-1.1953-16.1274c4.1328-4.7974,11.3476-5.3218,16.1387-1.1948l3.4628,2.9873L639,266.208
				c4.0322-3.5293,6.7793-7.9184,7.9639-12.6987c0.6142-2.5239,0.5029-3.9146,0.5029-3.9312
				c-0.6035-6.2827-4.3672-12.0625-10.5547-12.0625c-5.7305,0-8.2656,4.395-9.0918,6.2823
				c-1.8096,4.1718-5.9307,6.8632-10.4765,6.8632c0,0,0,0-0.0108,0c-4.5459,0-8.6562-2.7026-10.4766-6.874
				c-1.6533-3.8086-5.4052-6.2715-9.5605-6.2715c-6.1982,0-9.9619,5.7798-10.4873,11.4927
				c-0.0332,0.3628-0.0898,0.7202-0.1563,1.0776c0-0.0166,0.0108-0.0224,0.0108-0.0224c0.0449,0,0.0449,1.3125,0.5693,3.4345
				c1.5196,6.1319-2.2334,12.3306-8.3652,13.8438c-6.1094,1.5137-12.3301-2.2334-13.8379-8.3711
				c-1.5078-6.1147-1.2393-10.4595-0.9717-12.4194c1.8545-18.2163,16.0829-31.9097,33.2383-31.9097
				c7.3379,0,14.2959,2.4072,19.9365,6.6235c5.5283-4.2441,12.3527-6.6235,19.6797-6.6235
				c17.1553,0,31.3838,13.6992,33.2266,31.9209c0.2685,1.9434,0.5254,6.2715-0.96,12.3857
				c-2.3008,9.3819-7.5283,17.837-15.1113,24.4712l-29.1846,25.5874C622.7275,310.8945,620.0361,311.8437,617.3438,311.8437
				L617.3438,311.8437z"/>
		</g>
	</g>
</g>
</svg>
