<?xml version="1.0" encoding="utf-8"?>
<!-- Generator: Adobe Illustrator 17.1.0, SVG Export Plug-In . SVG Version: 6.00 Build 0)  -->
<!DOCTYPE svg PUBLIC "-//W3C//DTD SVG 1.1//EN" "http://www.w3.org/Graphics/SVG/1.1/DTD/svg11.dtd">
<svg version="1.1" id="love-smiley" xmlns="http://www.w3.org/2000/svg" xmlns:xlink="http://www.w3.org/1999/xlink" x="0px"
	 y="0px" viewBox="0 0 1024 1024" enable-background="new 0 0 1024 1024" xml:space="preserve">
<rect fill="#FF5551" width="1024" height="1024"/>
<g id="love-smiley-love-smiley">
	<g>
		<path fill="#FFFFFF" d="M512,780.7656c-148.1987,0-268.7656-120.5664-268.7656-268.7656
			c0-148.1987,120.5669-268.7656,268.7656-268.7656c148.1992,0,268.7656,120.5669,268.7656,268.7656
			C780.7656,660.1992,660.1992,780.7656,512,780.7656L512,780.7656z M512,266.1074c-135.5835,0-245.8926,110.3086-245.8926,245.8926
			c0,135.5889,110.3091,245.8926,245.8926,245.8926c135.5889,0,245.8926-110.3036,245.8926-245.8926
			C757.8926,376.416,647.5889,266.1074,512,266.1074L512,266.1074z"/>
	</g>
	<g>
		<path fill="#FFFFFF" d="M512,686.2334c-77.3774,0-146.2217-54.3701-146.2217-97.2246c0-6.3213,5.1206-11.4365,11.4365-11.4365
			c6.3165,0,11.4371,5.1152,11.4371,11.4365c0,25.4541,52.0913,74.3506,123.3481,74.3506s123.3369-48.8965,123.3369-74.3506
			c0-6.3213,5.1152-11.4365,11.4365-11.4365c6.3223,0,11.4375,5.1152,11.4375,11.4365
			C658.2109,631.8633,589.3662,686.2334,512,686.2334L512,686.2334z"/>
	</g>
	<g>
		<path fill="#FFFFFF" d="M408.3867,518.9687c-2.6914,0-5.3828-0.9433-7.5386-2.8359l-46.3725-40.6435
			c-11.0239-9.6553-18.6074-21.9024-21.919-35.4053c-2.167-8.9517-1.6865-15.0108-1.3628-17.2783
			c2.5298-25.565,22.2984-44.7979,46.1329-44.7979c11.9565,0,22.9409,4.6074,31.1831,12.6436
			c8.4214-7.9693,19.7075-12.6436,31.7422-12.6436c23.8173,0,43.5918,19.2329,46.1323,44.7925
			c0.3237,2.2729,0.8042,8.332-1.3848,17.2837c-3.2837,13.4863-10.8506,25.7275-21.8852,35.4053l-47.2608,40.7099
			C413.7031,518.0479,411.0449,518.9687,408.3867,518.9687L408.3867,518.9687z M353.7715,426.4189
			c0.0224,0-0.2622,3.0103,1.0107,8.2481c2.1782,8.8906,7.2881,17.0664,14.7657,23.6167l38.9062,34.0981l39.6548-34.1596
			c7.4048-6.4888,12.5034-14.6587,14.6704-23.5606c1.3457-5.5063,0.9717-8.5444,0.9717-8.5718
			c-1.2344-12.9336-9.628-25.208-23.499-25.208c-9.2647,0-17.6641,5.5005-21.3887,14.0225
			c-1.8203,4.1602-5.9307,6.8516-10.4766,6.8516c0,0,0,0-0.0049,0c-4.5459,0-8.6562-2.6973-10.4765-6.8633
			c-3.8311-8.7725-11.5205-14.0108-20.5786-14.0108c-13.8829,0-22.2759,12.2686-23.3931,24.3926
			c-0.0332,0.3853-0.0894,0.7705-0.1621,1.1504C353.7715,426.4189,353.7715,426.4189,353.7715,426.4189L353.7715,426.4189z"/>
	</g>
	<g>
		<path fill="#FFFFFF" d="M614.8203,518.9687c-2.6924,0-5.3839-0.9433-7.539-2.831l-46.3956-40.6426
			c-11.0127-9.6504-18.5849-21.9023-21.8906-35.4219c-2.1895-8.9072-1.709-14.9775-1.3623-17.2841
			c2.5235-25.5596,22.2705-44.7813,46.0938-44.7813c11.9503,0,22.9511,4.6074,31.1933,12.6436
			c8.4219-7.9693,19.713-12.6436,31.7539-12.6436c23.8116,0,43.5694,19.2276,46.1153,44.7813
			c0.3359,2.2841,0.8154,8.3545-1.3622,17.2949c-3.2842,13.4697-10.8565,25.7109-21.8799,35.3994l-47.2656,40.7158
			C620.1367,518.0479,617.4785,518.9687,614.8203,518.9687L614.8203,518.9687z M560.1934,426.4692
			c0.0224,0-0.257,2.9766,1.0166,8.1587c2.1884,8.9463,7.2928,17.1221,14.7538,23.6558l38.9229,34.0981l39.6494-34.1596
			c7.3936-6.5005,12.4981-14.6704,14.6651-23.5606c1.3398-5.4897,0.9717-8.522,0.9599-8.5493
			c-1.2285-12.9561-9.6269-25.2305-23.4873-25.2305c-9.2812,0-17.6582,5.4952-21.3661,14.0054
			c-1.8203,4.166-5.9306,6.8633-10.4765,6.8687h-0.0108c-4.5459,0-8.6562-2.6856-10.4765-6.8462
			c-3.8536-8.7842-11.5596-14.0279-20.6172-14.0279c-13.8721,0-22.2491,12.2686-23.3545,24.3868
			c-0.045,0.4023-0.1006,0.8095-0.1786,1.206C560.1934,426.4692,560.1934,426.4692,560.1934,426.4692L560.1934,426.4692z"/>
	</g>
</g>
</svg>
