<?xml version="1.0" encoding="utf-8"?>
<!-- Generator: Adobe Illustrator 17.1.0, SVG Export Plug-In . SVG Version: 6.00 Build 0)  -->
<!DOCTYPE svg PUBLIC "-//W3C//DTD SVG 1.1//EN" "http://www.w3.org/Graphics/SVG/1.1/DTD/svg11.dtd">
<svg version="1.1" id="mail-heart-xoxo" xmlns="http://www.w3.org/2000/svg" xmlns:xlink="http://www.w3.org/1999/xlink" x="0px"
	 y="0px" viewBox="0 0 1023.9942 1024" enable-background="new 0 0 1023.9942 1024" xml:space="preserve">
<rect x="0" fill="#FF5551" width="1023.9942" height="1024"/>
<g id="mail-heart-xoxo-mail-heart-xoxo">
	<path fill="none" stroke="#FFFFFF" stroke-width="22.8739" stroke-linecap="round" stroke-miterlimit="10" d="M336.3687,408.5137
		l-81.6949,76.8535v0.9267v281.8926v1.1504h1.1504h509.4532h2.9267h1.1387v-1.1504V486.2939v-0.9267
		c0,0.0117-82.5605-76.8535-82.5605-76.8535"/>
	<path fill="none" stroke="#FFFFFF" stroke-width="22.8739" stroke-linecap="round" stroke-miterlimit="10" d="M552.5987,283.584
		l-24.0801-22.416c-9.3037-8.6612-23.7227-8.6612-33.0264,0l-25.8672,24.0634"/>
	<polyline fill="none" stroke="#FFFFFF" stroke-width="22.8739" stroke-linecap="round" stroke-miterlimit="10" points="
		263.7818,492.3252 441.0215,627.3574 263.7818,762.4014 	"/>
	<polyline fill="none" stroke="#FFFFFF" stroke-width="22.8739" stroke-linecap="round" stroke-miterlimit="10" points="
		760.2295,492.3252 582.9893,627.3574 760.2295,762.4014 	"/>
	
		<line fill="none" stroke="#FFFFFF" stroke-width="22.8739" stroke-linecap="round" stroke-miterlimit="10" x1="432.1534" y1="627.3574" x2="582.9893" y2="627.3574"/>
	
		<path fill="none" stroke="#FFFFFF" stroke-width="20.5866" stroke-linecap="round" stroke-linejoin="round" stroke-miterlimit="10" d="
		M512.0108,360.0186c0-15.1397-12.2852-27.4082-27.4361-27.4082c-15.1396,0-27.4145,12.2685-27.4145,27.4082
		c0,7.9414,3.4292,15.0332,8.8071,20.0595h-0.0727l46.1162,46.1162l46.1054-46.1162c0,0-0.0224,0-0.0224-0.0332
		c5.3506-5.0156,8.7676-12.0849,8.7676-20.0263c0-15.1397-12.2627-27.4082-27.419-27.4082
		C524.2969,332.6104,512.0108,344.8789,512.0108,360.0186z"/>
	<polyline fill="none" stroke="#FFFFFF" stroke-width="22.8739" stroke-miterlimit="10" points="337.6866,545.501 
		337.6866,288.1689 686.335,288.1689 686.335,545.501 	"/>
	
		<line fill="none" stroke="#FFFFFF" stroke-width="20.5866" stroke-linecap="round" stroke-linejoin="round" stroke-miterlimit="10" x1="422.5254" y1="466.6367" x2="380.4248" y2="508.7441"/>
	
		<line fill="none" stroke="#FFFFFF" stroke-width="20.5866" stroke-linecap="round" stroke-linejoin="round" stroke-miterlimit="10" x1="380.4248" y1="466.6367" x2="422.5254" y2="508.7441"/>
	
		<line fill="none" stroke="#FFFFFF" stroke-width="20.5866" stroke-linecap="round" stroke-linejoin="round" stroke-miterlimit="10" x1="569.9112" y1="466.6367" x2="527.8037" y2="508.7441"/>
	
		<line fill="none" stroke="#FFFFFF" stroke-width="20.5866" stroke-linecap="round" stroke-linejoin="round" stroke-miterlimit="10" x1="527.8037" y1="466.6367" x2="569.9112" y2="508.7441"/>
	
		<path fill="none" stroke="#FFFFFF" stroke-width="20.5866" stroke-linecap="round" stroke-linejoin="round" stroke-miterlimit="10" d="
		M496.2183,487.7021c0,11.6153-9.4321,21.042-21.0425,21.042c-11.6323,0-21.0703-9.4267-21.0703-21.042
		c0-11.6162,9.438-21.0654,21.0703-21.0654C486.7862,466.6367,496.2183,476.0859,496.2183,487.7021z"/>
	
		<path fill="none" stroke="#FFFFFF" stroke-width="20.5866" stroke-linecap="round" stroke-linejoin="round" stroke-miterlimit="10" d="
		M643.6035,487.7021c0,11.6153-9.4267,21.042-21.0654,21.042c-11.6152,0-21.0527-9.4267-21.0527-21.042
		c0-11.6162,9.4375-21.0654,21.0527-21.0654C634.1768,466.6367,643.6035,476.0859,643.6035,487.7021z"/>
	
		<line fill="none" stroke="#FFFFFF" stroke-width="22.8739" stroke-miterlimit="10" x1="455.8535" y1="575.8242" x2="568.169" y2="575.8242"/>
</g>
</svg>
