<?xml version="1.0" encoding="utf-8"?>
<!-- Generator: Adobe Illustrator 17.1.0, SVG Export Plug-In . SVG Version: 6.00 Build 0)  -->
<!DOCTYPE svg PUBLIC "-//W3C//DTD SVG 1.1//EN" "http://www.w3.org/Graphics/SVG/1.1/DTD/svg11.dtd">
<svg version="1.1" id="male-sign" xmlns="http://www.w3.org/2000/svg" xmlns:xlink="http://www.w3.org/1999/xlink" x="0px" y="0px"
	 viewBox="0 0 1024 1023.9942" enable-background="new 0 0 1024 1023.9942" xml:space="preserve">
<rect y="0" fill="#FF5551" width="1024" height="1023.9942"/>
<g id="male-sign-male-sign">
	<g>
		<path fill="#FFFFFF" d="M445.4785,780.7598c-110.9287,0-201.1723-90.2441-201.1723-201.1719
			c0-110.9287,90.2436-201.1782,201.1723-201.1782s201.1729,90.2495,201.1729,201.1782
			C646.6514,690.5157,556.4072,780.7598,445.4785,780.7598L445.4785,780.7598z M445.4785,401.2832
			c-98.3135,0-178.2988,79.9854-178.2988,178.3047c0,98.3184,79.9853,178.2988,178.2988,178.2988
			c98.3194,0,178.2988-79.9804,178.2988-178.2988C623.7773,481.2686,543.7979,401.2832,445.4785,401.2832L445.4785,401.2832z"/>
	</g>
	<g>
		<path fill="#FFFFFF" d="M579.6494,456.8706c-2.9267,0-5.8525-1.1167-8.0859-3.3506c-4.4678-4.4672-4.4678-11.705,0-16.1723
			l174.1553-174.1665c4.4667-4.4673,11.7041-4.4673,16.1718,0c4.4678,4.4673,4.4678,11.7051,0,16.1723L587.7354,453.52
			C585.502,455.7539,582.5762,456.8706,579.6494,456.8706L579.6494,456.8706z"/>
	</g>
	<g>
		<path fill="#FFFFFF" d="M768.2568,446.3496c-6.3213,0-11.4365-5.1211-11.4365-11.437V266.0962H588.0039
			c-6.3223,0-11.4375-5.1206-11.4375-11.437c0-6.3154,5.1152-11.4365,11.4375-11.4365h180.2529
			c6.3213,0,11.4366,5.1211,11.4366,11.4365v180.2534C779.6934,441.2285,774.5781,446.3496,768.2568,446.3496L768.2568,446.3496z"/>
	</g>
	<g>
		<path fill="#FFFFFF" d="M329.7813,559.461c-6.3165,0-11.4371-5.1153-11.4371-11.4366c0-42.9829,37.4546-92.9521,85.7427-92.9521
			c6.3164,0,11.437,5.1211,11.437,11.437c0,6.3159-5.1206,11.437-11.437,11.437c-33.8584,0-62.8691,38.5322-62.8691,70.0781
			C341.2178,554.3457,336.0967,559.461,329.7813,559.461L329.7813,559.461z"/>
	</g>
</g>
</svg>
