<?xml version="1.0" encoding="utf-8"?>
<!-- Generator: Adobe Illustrator 17.1.0, SVG Export Plug-In . SVG Version: 6.00 Build 0)  -->
<!DOCTYPE svg PUBLIC "-//W3C//DTD SVG 1.1//EN" "http://www.w3.org/Graphics/SVG/1.1/DTD/svg11.dtd">
<svg version="1.1" id="rings" xmlns="http://www.w3.org/2000/svg" xmlns:xlink="http://www.w3.org/1999/xlink" x="0px" y="0px"
	 viewBox="0 0 1023.9942 1024" enable-background="new 0 0 1023.9942 1024" xml:space="preserve">
<rect x="0" fill="#FF5551" width="1023.9942" height="1024"/>
<g id="rings-rings">
	<g>
		<path fill="#FFFFFF" d="M603.0977,809.3691c-101.9483,0-184.8936-82.951-184.8936-184.9101
			c0-101.9375,82.9453-184.8662,184.8936-184.8662c101.9492,0,184.8887,82.9287,184.8887,184.8662
			C787.9864,726.418,705.0469,809.3691,603.0977,809.3691L603.0977,809.3691z M603.0977,462.4663
			c-89.3389,0-162.0195,72.6646-162.0195,161.9927c0,89.3496,72.6806,162.0371,162.0195,162.0371
			c89.3398,0,162.0146-72.6875,162.0146-162.0371C765.1123,535.1309,692.4375,462.4663,603.0977,462.4663L603.0977,462.4663z"/>
	</g>
	<g>
		<path fill="#FFFFFF" d="M420.8848,652.626c-49.3828,0-95.8115-19.2432-130.7363-54.168
			c-72.0889-72.084-72.0835-189.3784,0.0107-261.4844c34.9028-34.9082,81.3262-54.1347,130.7144-54.1347
			c49.3999,0,95.8393,19.2324,130.7592,54.1572c72.0831,72.0723,72.0938,189.3555,0.0108,261.4619
			C516.7022,633.3828,470.2617,652.626,420.8848,652.626L420.8848,652.626z M420.8736,305.7124
			c-43.2788,0-83.9556,16.8481-114.5415,47.4341c-63.1709,63.1875-63.1768,165.9736-0.0113,229.1387
			c30.6026,30.6025,71.2906,47.4677,114.564,47.4677c43.2676,0,83.9614-16.8652,114.5859-47.4677
			c63.1602-63.1817,63.1485-165.9629-0.0107-229.1167C504.8575,322.5659,464.1641,305.7124,420.8736,305.7124L420.8736,305.7124z"/>
	</g>
	<g>
		<path fill="#FFFFFF" d="M618.7901,351.292L618.7901,351.292l-79.2764-0.0108c-6.3213,0-11.4365-5.121-11.4365-11.437v-79.2651
			c0-0.3408,0.0107-0.6812,0.0449-1.0166c-0.0449-12.0898,4.5566-23.3369,13.0342-31.8193
			c16.9316-16.9151,46.4062-16.8819,63.2929,0.0224c9.3487,9.3423,13.6817,21.8233,13.0342,34.0923
			c12.6094-0.6362,25.085,4.0098,34.1201,13.0508c8.4551,8.4604,13.1133,19.7017,13.1133,31.6577
			c0,11.9565-4.6582,23.1982-13.1133,31.6523c-8.4091,8.4048-19.6455,13.0401-31.6523,13.0401l0,0l-0.2119-0.0059
			C619.416,351.2812,619.1035,351.292,618.7901,351.292L618.7901,351.292z M550.9512,328.4072l66.7109,0.0113
			c0.503-0.0562,1.0049-0.0616,1.5196-0.0503c0.0107,0,0.0332,0,0.0547,0c6.6464,0,12.1191-2.2505,16.1953-6.3272
			c4.1435-4.1377,6.4111-9.6328,6.4111-15.4746c0-5.8467-2.2783-11.3472-6.4111-15.4853
			c-8.2647-8.2759-22.7168-8.2647-30.9375-0.0225c-4.4678,4.479-11.7051,4.479-16.1719,0.0225
			c-2.2344-2.2281-3.3622-5.1543-3.3622-8.0806c0-2.9317,1.1055-5.8579,3.3389-8.0918c8.5224-8.544,8.5117-22.438-0.0215-30.9712
			c-8.2764-8.2705-22.6729-8.2759-30.9492-0.0166c-4.2891,4.2891-6.5332,10.0854-6.3213,16.3232
			c0.0224,0.5528,0,1.1055-0.0557,1.6416V328.4072L550.9512,328.4072z"/>
	</g>
</g>
</svg>
